<svg width="70" height="70" viewBox="0 0 70 70" fill="none" xmlns="http://www.w3.org/2000/svg">
<g clip-path="url(#clip0_69_52)">
<path d="M70 32.9412V0H57.6471V6.17647H53.5294C50.9853 6.17647 48.4532 5.82798 46.0035 5.14061C46.0035 5.14061 27.1085 0.220431 27.0145 0.198471C24.9938 -0.274373 22.821 0.152353 21.053 1.36884L3.9469 13.1371C3.73237 13.2846 3.07396 13.6934 3.07396 13.6934C1.1491 14.8933 0 16.9644 0 19.2334C0 20.9993 0.692588 22.6524 1.95012 23.888C3.16729 25.0839 4.82835 25.7641 6.52263 25.7641C6.55982 25.7641 6.59688 25.7637 6.63408 25.7632C7.18927 25.7534 7.7501 25.6631 8.34894 25.487L22.6705 21.2742C22.9117 24.2775 25.0409 26.7861 28.0172 27.4879L31.6333 28.4119C29.5654 30.187 28.2516 32.8168 28.2516 35.7493C28.2516 36.9658 28.4796 38.1294 28.8913 39.2027C27.7156 39.0256 26.5116 39.1274 25.3902 39.5011L19.9371 41.2822L19.6202 41.3878C16.5766 42.4024 14.8552 42.9753 12.3529 43.1643V37.0588H0V70H12.3529V63.8235H16.4706C19.0147 63.8235 21.5468 64.172 23.9965 64.8594L42.7015 69.7292C42.7962 69.7553 42.8915 69.7796 42.9854 69.8015C43.5252 69.9278 44.0757 69.9898 44.6266 69.9898C46.1378 69.9898 47.6511 69.5226 48.9469 68.6312L66.053 56.8629C66.2675 56.7154 66.9259 56.3066 66.9259 56.3066C68.8509 55.1068 70 53.0356 70 50.7666C70 49.0007 69.3074 47.3476 68.0499 46.112C66.8059 44.8899 65.0948 44.2043 63.3659 44.237C62.8107 44.2467 62.2499 44.3369 61.6511 44.5131L47.3295 48.7259C47.1457 46.4376 45.8657 44.4371 43.95 43.3035C46.1682 41.53 47.5931 38.8036 47.5931 35.7493C47.5931 33.6493 46.9181 31.7052 45.777 30.1177L50.063 28.7178L50.38 28.6122C53.4236 27.5976 55.145 27.0247 57.6472 26.8357V32.9412H70ZM61.7647 4.11765H65.8824V28.8235H61.7647V4.11765ZM39.372 30.3892C41.733 31.0284 43.4755 33.1886 43.4755 35.7491C43.4755 38.8112 40.9845 41.3022 37.9224 41.3022C37.5409 41.3022 37.1682 41.2635 36.8081 41.1898L36.3043 41.061C34.0292 40.3667 32.3692 38.2484 32.3692 35.7491C32.3692 32.6871 34.8603 30.1961 37.9224 30.1961C38.3737 30.1961 38.812 30.2515 39.2323 30.3536L39.372 30.3892ZM8.23529 65.8824H4.11765V41.1765H8.23529V65.8824ZM46.0176 53.4038L62.8129 48.4635C63.0493 48.394 63.2597 48.3571 63.4384 48.3539C63.4528 48.3538 63.4668 48.3535 63.4811 48.3535C64.1104 48.3535 64.7066 48.5996 65.1642 49.0491C65.6275 49.5043 65.8825 50.1142 65.8825 50.7666C65.8825 51.6047 65.4582 52.3695 64.7475 52.8125L64.5805 52.9163C64.302 53.0891 64.0139 53.2678 63.7192 53.4705L46.6131 65.2388C45.7978 65.7996 44.8174 66.0014 43.922 65.7918C43.8768 65.7812 43.8319 65.7697 43.7871 65.7573L25.0902 60.8896C22.2843 60.1042 19.3844 59.7059 16.4706 59.7059H12.3529V47.2895C15.5595 47.0809 17.7106 46.3647 20.9225 45.2941L26.6807 43.4114C27.2503 43.2214 27.8611 43.1844 28.4499 43.3042L41.0276 46.5175C42.3276 46.8193 43.2354 47.9622 43.2354 49.2969C43.2354 50.1816 42.8355 51.0015 42.1381 51.5459C41.4406 52.0904 40.5484 52.2797 39.69 52.065L29.323 49.4733L28.3245 53.4679L38.6915 56.0597C39.2579 56.2014 39.8301 56.2709 40.3978 56.2709C41.9312 56.2709 43.4287 55.7623 44.6724 54.7915C45.1905 54.3866 45.6407 53.9188 46.0176 53.4038ZM49.0776 24.7059L43.3193 26.5886C42.7494 26.7783 42.1385 26.8156 41.5501 26.6958L40.4143 26.4056C40.3572 26.3904 40.3 26.3759 40.2425 26.3617L29.0165 23.4934L28.9726 23.4827C27.6725 23.1808 26.7647 22.0379 26.7647 20.7033C26.7647 19.8185 27.1647 18.9987 27.8621 18.4542C28.5595 17.9096 29.4515 17.7203 30.3101 17.9351L40.6771 20.5269L41.6757 16.5322L31.3087 13.9404C29.2121 13.4164 27.0318 13.8783 25.3279 15.2087C24.8095 15.6136 24.3592 16.0813 23.9824 16.5963L7.18708 21.5365C6.95073 21.606 6.74031 21.6429 6.56161 21.6461C5.91431 21.6575 5.30394 21.4105 4.8359 20.9509C4.37267 20.4957 4.11765 19.8858 4.11765 19.2334C4.11765 18.3953 4.5419 17.6305 5.25261 17.1875C5.25261 17.1875 5.98624 16.7322 6.28092 16.5295L23.387 4.76124C24.2022 4.20041 25.1828 3.99865 26.0782 4.20824C26.1233 4.21867 44.9098 9.11043 44.9098 9.11043C47.7157 9.8958 50.6158 10.2941 53.5294 10.2941H57.6471V22.7105C54.4405 22.9191 52.2895 23.6353 49.0776 24.7059Z" fill="#F4B241"/>
</g>
<defs>
<clipPath id="clip0_69_52">
<rect width="70" height="70" fill="white"/>
</clipPath>
</defs>
</svg>
