<svg width="70" height="49" viewBox="0 0 70 49" fill="none" xmlns="http://www.w3.org/2000/svg">
<path d="M35.6655 16.2758C36.4442 16.9966 37.5905 18.0653 38.9492 19.3586L39.0205 19.4259L39.6255 20.0033L39.703 20.0769L40.308 20.6593L40.453 20.7977L41.0317 21.3576L41.2042 21.5248L41.7905 22.0947L41.968 22.2693C42.1617 22.4576 42.3555 22.6434 42.5517 22.8417L42.7867 23.0724L43.3317 23.6111L43.5955 23.873L44.138 24.4143L44.3655 24.6437C44.5567 24.8345 44.7405 25.0253 44.938 25.2186L45.1992 25.4843C45.3792 25.6676 45.5605 25.8496 45.7392 26.0342C45.8292 26.124 45.9167 26.2163 46.0055 26.3061C46.3655 26.676 46.7234 27.0464 47.0792 27.4172C47.158 27.4995 47.2367 27.5806 47.3142 27.6667L47.7017 28.0744C47.838 28.2191 47.9767 28.3638 48.1117 28.5084L48.458 28.8826L48.8742 29.3303C48.9992 29.455 49.113 29.5897 49.2317 29.7194L49.6242 30.1484L49.968 30.53L50.343 30.9527C50.4555 31.0774 50.5642 31.2021 50.6742 31.3269L51.0342 31.7396L51.348 32.105L51.6942 32.5116L51.9892 32.8658L52.3105 33.2573L52.5867 33.6003C52.6892 33.725 52.7917 33.8572 52.8905 33.9844C52.9755 34.0929 53.058 34.2001 53.1405 34.3061C53.2355 34.4308 53.328 34.5556 53.418 34.6803C53.508 34.805 53.573 34.8885 53.6467 34.9908C53.688 35.0482 53.733 35.1068 53.7717 35.1629L65.7817 28.2428L54.4367 8.97906C48.0617 10.7375 39.3792 6.67445 38.2917 6.14693C36.5977 5.62025 34.7517 5.98287 33.3842 7.11093C31.5817 8.65914 29.5226 9.88212 27.2992 10.725C26.3611 11.0824 25.467 11.5456 24.6342 12.1055C24.0092 12.7789 22.3017 17.7174 21.493 21.2092C21.358 21.7158 21.5738 22.2505 22.023 22.5224C22.675 22.9349 23.4774 23.0359 24.2117 22.798C25.303 22.4401 26.9955 21.1344 28.858 16.9554C29.0578 16.5039 29.5058 16.2125 30.0005 16.2122C31.0919 16.1275 32.1443 15.7698 33.0605 15.1721C33.3225 15.0012 33.5731 14.8133 33.8105 14.6097H33.8192L33.8255 14.6022C34.3607 14.1506 34.8272 13.6238 35.2105 13.0383C35.4561 12.6659 35.8822 12.4524 36.3284 12.4784C36.7745 12.5044 37.1728 12.7658 37.3734 13.1643C37.5739 13.5627 37.5461 14.0377 37.3005 14.4101C36.8377 15.0992 36.2882 15.7262 35.6655 16.2758ZM58.833 23.8194C59.1189 23.6513 59.46 23.6035 59.7812 23.6865C60.1025 23.7696 60.3774 23.9767 60.5455 24.2621L61.283 25.5092C61.6354 26.1036 61.4381 26.8705 60.8423 27.2221C60.2466 27.5737 59.4779 27.3769 59.1255 26.7825L58.3867 25.5354C58.216 25.2492 58.1672 24.9068 58.251 24.5845C58.3348 24.2622 58.5444 23.9867 58.833 23.8194ZM48.898 11.8212C49.5842 11.886 50.2605 11.9197 50.9105 11.9197H51.0692C52.4136 11.9101 53.6627 12.6107 54.353 13.7616L57.3755 18.8922C57.7255 19.4859 57.5268 20.2502 56.9317 20.5994C56.3366 20.9486 55.5705 20.7504 55.2205 20.1567L52.198 15.0274C51.981 14.6157 51.5374 14.3743 51.073 14.4151H50.9042C50.1767 14.4151 49.4192 14.3777 48.6542 14.3054C47.9675 14.2396 47.464 13.6312 47.5292 12.946C47.5565 12.6141 47.7175 12.3073 47.9755 12.0958C48.2334 11.8843 48.5662 11.7861 48.898 11.8237V11.8212ZM41.7292 11.5543C41.822 11.2368 42.0375 10.9691 42.3282 10.81C42.6189 10.651 42.961 10.6137 43.2792 10.7063C43.5167 10.7761 43.7588 10.8439 44.0055 10.9096C44.4387 11.0231 44.778 11.3592 44.8948 11.7907C45.0115 12.2222 44.8879 12.683 44.5708 12.9986C44.2536 13.3143 43.7914 13.4365 43.3592 13.3189C43.0955 13.2478 42.8342 13.1743 42.578 13.1007C41.917 12.9073 41.5374 12.2168 41.7292 11.5568V11.5543Z" fill="#F4B241"/>
<path d="M32.0934 43.9562L31.7259 43.6157C31.7097 43.6669 31.6772 43.7117 31.6584 43.7629C31.5837 43.9695 31.493 44.1701 31.3872 44.3627C31.3397 44.4513 31.2997 44.5436 31.2447 44.6284C31.0744 44.904 30.8736 45.1596 30.6459 45.3903L29.5859 46.4479C29.7534 46.5838 29.9047 46.7072 30.0372 46.822L31.2697 47.9444C32.3125 48.8368 33.8519 48.8368 34.8947 47.9444C35.0949 47.7723 35.2122 47.5233 35.2172 47.2597C35.2127 46.9908 35.0947 46.7363 34.8922 46.5588L34.8709 46.5376L32.0934 43.9562Z" fill="#F4B241"/>
<path d="M17.7149 44.147C17.9392 44.3978 18.2645 44.5351 18.6011 44.5211C18.9361 44.5204 19.2567 44.3856 19.4911 44.147L22.0661 41.578L25.0536 38.5974C25.7822 37.8631 25.7822 36.6804 25.0536 35.9461C24.3137 35.224 23.1311 35.224 22.3911 35.9461L21.0674 37.268C20.9961 37.3566 20.9149 37.4426 20.8399 37.5175L18.1249 40.2423L18.0174 40.3483L17.2386 41.1265C17.2111 41.154 17.1786 41.1826 17.1461 41.2101C17.1056 41.2562 17.0604 41.298 17.0111 41.3348L16.8399 41.5056C16.6048 41.7396 16.4727 42.0573 16.4727 42.3886C16.4727 42.7199 16.6048 43.0376 16.8399 43.2715L17.7149 44.147Z" fill="#F4B241"/>
<path d="M70.0001 0.840576L56.7363 7.96643L68.4713 27.8699C68.9256 28.2037 69.4472 28.4348 70.0001 28.5471V0.840576Z" fill="#F4B241"/>
<path d="M13.6335 39.4242C14.1072 39.8922 14.8656 39.907 15.3573 39.4579L15.3848 39.4279C15.4223 39.3918 15.461 39.3581 15.501 39.3257L16.2585 38.5699L16.351 38.4777L17.1973 37.6234C17.2282 37.5824 17.2621 37.5436 17.2985 37.5074L19.201 35.6094C19.2472 35.5493 19.289 35.4859 19.326 35.4198C19.3485 35.3836 19.3773 35.3475 19.396 35.3101C19.4306 35.2415 19.4595 35.1701 19.4823 35.0968C19.4923 35.0681 19.5085 35.0382 19.516 35.0095C19.5367 34.9349 19.5526 34.8591 19.5635 34.7825C19.5635 34.7638 19.5735 34.7426 19.576 34.7239C19.5866 34.6412 19.592 34.5579 19.5923 34.4745C19.5948 33.9776 19.3981 33.5003 19.046 33.1489C18.3105 32.4374 17.1415 32.4374 16.406 33.1489L14.2635 35.2864L12.751 36.7953C12.5159 37.0293 12.3838 37.347 12.3838 37.6783C12.3838 38.0096 12.5159 38.3272 12.751 38.5612L13.6335 39.4242Z" fill="#F4B241"/>
<path d="M36.6315 35.941L42.2752 41.5728L42.8752 42.1589C43.8514 43.108 45.4078 43.108 46.384 42.1589C46.8698 41.6917 46.8882 40.9215 46.4252 40.4317L39.0077 33.0178C38.6833 32.7042 38.5536 32.2404 38.6686 31.8045C38.7837 31.3687 39.1254 31.0287 39.5626 30.9152C39.9998 30.8017 40.4643 30.9323 40.7777 31.2569L48.2102 38.6858L48.7465 39.2208C49.2098 39.6853 49.8396 39.9465 50.4965 39.9465C51.1534 39.9465 51.7832 39.6853 52.2465 39.2208L52.2702 39.1946C52.683 38.7815 52.7536 38.1381 52.4402 37.6457C52.4189 37.6127 52.3993 37.5785 52.3815 37.5435L52.3652 37.5198C49.6665 33.2223 41.4615 25.1736 36.6152 20.5831C35.304 19.336 34.224 18.3383 33.5815 17.7422C32.7205 18.1765 31.7969 18.4744 30.844 18.6252C29.1202 22.2554 27.1565 24.4516 24.999 25.1611C23.5975 25.6164 22.0672 25.444 20.8027 24.6885C19.3844 23.8729 18.6764 22.2207 19.0652 20.6342C19.0852 20.5482 19.1115 20.4372 19.144 20.3075C19.6277 18.3508 21.4365 11.7699 22.8727 10.3383C23.901 9.52729 25.0538 8.8872 26.2865 8.4427C26.5665 8.31799 26.8602 8.19329 27.1615 8.05237L27.419 7.93514C27.724 7.79422 28.0327 7.64956 28.3402 7.49741L28.4027 7.46748C28.7177 7.3116 29.0277 7.14698 29.334 6.97738C29.409 6.93622 29.4827 6.89382 29.5565 6.85267C29.8315 6.69429 30.0977 6.53217 30.3527 6.36256C30.3802 6.3451 30.4102 6.32765 30.4377 6.30894C29.2234 5.85991 27.8967 5.81139 26.6527 6.17051C26.4477 6.26529 19.4577 9.27326 13.244 8.80935L4.20898 26.8123C5.57517 27.4636 6.89828 28.2013 8.17023 29.0209C8.26398 28.9348 8.37273 28.8687 8.47398 28.7914C8.57523 28.7141 8.65023 28.6467 8.74523 28.5844C8.88925 28.4957 9.03871 28.4162 9.19273 28.3462C9.28648 28.3001 9.37648 28.2452 9.47398 28.2053C9.65025 28.1392 9.83063 28.0846 10.014 28.0419C10.099 28.0207 10.1802 27.987 10.264 27.9708C10.5403 27.917 10.8212 27.8894 11.1027 27.8885C12.2678 27.8853 13.3848 28.3516 14.2002 29.1817C14.4223 29.4019 14.6189 29.6462 14.7865 29.91C14.8402 29.9936 14.879 30.0846 14.9265 30.1719C15.0308 30.357 15.121 30.5496 15.1965 30.7481C15.2127 30.7917 15.2402 30.8279 15.254 30.8728C15.9827 30.3848 16.844 30.1319 17.7215 30.1482C17.7277 30.1476 17.734 30.1476 17.7402 30.1482C17.9964 30.1497 18.2519 30.1731 18.504 30.2181L18.629 30.2393C18.8413 30.2832 19.0502 30.3424 19.254 30.4164C19.3227 30.4401 19.3902 30.46 19.4565 30.4874C19.6378 30.5652 19.8136 30.6552 19.9827 30.7568C20.0515 30.7967 20.124 30.8291 20.1915 30.8728C20.4207 31.0242 20.6343 31.198 20.829 31.3916C21.0662 31.6332 21.2739 31.9019 21.4477 32.1922C21.5015 32.2783 21.544 32.3705 21.5915 32.4603C21.7021 32.6726 21.795 32.8937 21.869 33.1213C21.889 33.1824 21.9277 33.2373 21.9452 33.2996C21.9727 33.2884 22.0015 33.2822 22.029 33.2697C22.0915 33.2448 22.154 33.226 22.2202 33.2036C22.4001 33.1373 22.5843 33.0831 22.7715 33.0415C22.8515 33.024 22.929 33.0091 23.0102 32.9953C23.2013 32.9646 23.3942 32.9463 23.5877 32.9405C23.6502 32.9405 23.7127 32.9317 23.7752 32.9317C24.0297 32.9336 24.2836 32.9574 24.534 33.0028C24.5802 33.0116 24.624 33.0278 24.6702 33.0377C24.8755 33.0815 25.0773 33.1402 25.274 33.2136C25.349 33.241 25.4202 33.2722 25.494 33.3046C25.6662 33.3809 25.8333 33.4683 25.994 33.5665C26.0602 33.6052 26.1277 33.6426 26.1915 33.6912C27.3968 34.4848 28.1156 35.8347 28.1002 37.2753C28.1004 37.5066 28.0829 37.7376 28.0477 37.9662C28.7376 38.0434 29.3985 38.286 29.974 38.6733C30.1973 38.82 30.4065 38.987 30.599 39.1722L30.6152 39.1821L36.5915 44.7179C36.6415 44.7653 36.679 44.8215 36.7265 44.8713L36.999 45.1208C37.9687 46.0844 39.5368 46.0844 40.5065 45.1208C40.7471 44.888 40.8839 44.5686 40.8863 44.2342C40.8886 43.8998 40.7563 43.5785 40.519 43.3424L34.8665 37.7018C34.3928 37.2125 34.3995 36.4347 34.8817 35.9537C35.3639 35.4726 36.1435 35.4659 36.634 35.9385L36.6315 35.941ZM11.1252 24.1822L10.8002 24.8307C10.5878 25.256 10.1515 25.5239 9.67523 25.5216C9.48196 25.5219 9.29135 25.4766 9.11898 25.3894C8.50233 25.0817 8.25177 24.334 8.55898 23.7183L8.88273 23.0685C9.19098 22.4521 9.94174 22.2017 10.5596 22.5092C11.1775 22.8167 11.4285 23.5658 11.1202 24.1822H11.1252ZM17.7727 13.6568C17.3015 13.7116 16.824 13.7565 16.344 13.789L13.594 19.2637C13.3965 19.6658 12.9979 19.9315 12.5499 19.9595C12.1019 19.9876 11.6732 19.7739 11.4267 19.3996C11.1803 19.0253 11.1539 18.5478 11.3577 18.1488L14.1077 12.6691C14.5096 11.8786 15.2988 11.3574 16.1852 11.2973C16.6252 11.2674 17.0611 11.2258 17.4927 11.1726C17.9422 11.1091 18.3908 11.2938 18.6647 11.655C18.9386 12.0162 18.9946 12.4971 18.8112 12.9114C18.6277 13.3256 18.2336 13.6081 17.7815 13.6493L17.7727 13.6568Z" fill="#F4B241"/>
<path d="M10.8425 8.00128L0 2.10132V27.2999C0.539768 27.1868 1.05038 26.9639 1.5 26.6452L10.8425 8.00128Z" fill="#F4B241"/>
<path d="M23.4653 47.2747C23.9569 47.7519 24.7408 47.7492 25.229 47.2685L26.829 45.6722L28.879 43.627C29.6024 42.8988 29.608 41.7268 28.8915 40.9919C28.1561 40.2698 26.9783 40.2626 26.234 40.9757L22.584 44.6172C22.3489 44.8511 22.2168 45.1688 22.2168 45.5001C22.2168 45.8314 22.3489 46.1491 22.584 46.383L23.4653 47.2747Z" fill="#F4B241"/>
<path d="M12.4378 30.9439C12.0898 30.589 11.6137 30.3879 11.116 30.3855C10.6183 30.3832 10.1404 30.5798 9.78903 30.9315L8.08403 32.62C7.84893 32.854 7.7168 33.1717 7.7168 33.503C7.7168 33.8343 7.84893 34.1519 8.08403 34.3859L8.95903 35.2776C9.44879 35.7599 10.2372 35.7565 10.7228 35.2701L12.384 33.6152C12.4103 33.5828 12.4378 33.5504 12.4665 33.5204C12.7914 33.1771 12.9706 32.7218 12.9665 32.2496C12.9744 31.761 12.7836 31.29 12.4378 30.9439Z" fill="#F4B241"/>
</svg>
