<svg width="88" height="88" viewBox="0 0 88 88" fill="none" xmlns="http://www.w3.org/2000/svg">
<g clip-path="url(#clip0_58_76)">
<path d="M14.0738 65.0925C13.9716 65.0621 13.8796 65.0042 13.808 64.9251C13.7363 64.846 13.6877 64.7488 13.6675 64.6441C13.6472 64.5393 13.6561 64.431 13.6931 64.331C13.7302 64.2309 13.7939 64.1429 13.8775 64.0765L14.3544 63.6996L12.7527 64.0776C12.6207 64.1088 12.4819 64.093 12.3603 64.0329C12.2386 63.9729 12.1417 63.8723 12.0862 63.7485C12.0307 63.6247 12.0201 63.4854 12.0562 63.3546C12.0923 63.2239 12.1729 63.1097 12.2841 63.032L13.7718 61.9959L10.6486 62.7488C10.5009 62.7778 10.3478 62.7486 10.2212 62.6673C10.0946 62.586 10.0043 62.459 9.96912 62.3127C9.93398 62.1664 9.95672 62.0122 10.0326 61.8822C10.1085 61.7523 10.2316 61.6567 10.3763 61.6155L16.5078 60.1485C16.64 60.1167 16.7792 60.132 16.9013 60.1919C17.0234 60.2518 17.1208 60.3525 17.1765 60.4766C17.2323 60.6007 17.2429 60.7403 17.2065 60.8714C17.1702 61.0025 17.0892 61.1168 16.9776 61.1945L15.4887 62.2302L16.6415 61.9539C16.7706 61.9232 16.9063 61.9374 17.0262 61.9942C17.1461 62.051 17.243 62.1469 17.3011 62.2662C17.3591 62.3855 17.3748 62.521 17.3454 62.6504C17.3161 62.7798 17.2436 62.8953 17.1398 62.9779L16.1189 63.7898C16.1877 63.8633 16.2361 63.9536 16.2591 64.0516C16.2953 64.2019 16.2703 64.3605 16.1896 64.4924C16.109 64.6243 15.9792 64.7188 15.8289 64.7552L14.3747 65.1039C14.2752 65.1271 14.1713 65.1231 14.0738 65.0925Z" fill="#F4B241"/>
<path d="M19.1928 57.2786C19.092 57.2486 19.0011 57.192 18.9299 57.1147C18.8586 57.0373 18.8096 56.9421 18.788 56.8392C18.7664 56.7363 18.7731 56.6294 18.8072 56.53C18.8414 56.4305 18.9018 56.3421 18.982 56.2742L19.8358 55.5539L17.5814 56.0936C17.4465 56.1251 17.3049 56.1076 17.1818 56.0443C17.0586 55.9809 16.962 55.8758 16.9093 55.7478C16.8565 55.6198 16.8511 55.4771 16.8938 55.3454C16.9366 55.2137 17.0248 55.1015 17.1427 55.0289L18.2647 54.348L15.7634 54.9447C15.6157 54.9736 15.4626 54.9444 15.336 54.8631C15.2094 54.7819 15.1191 54.6548 15.084 54.5085C15.0488 54.3622 15.0715 54.208 15.1474 54.0781C15.2233 53.9482 15.3464 53.8526 15.4911 53.8113L21.6271 52.3457C21.7619 52.3142 21.9036 52.3317 22.0267 52.395C22.1498 52.4584 22.2464 52.5635 22.2991 52.6915C22.3519 52.8195 22.3574 52.9621 22.3146 53.0939C22.2719 53.2256 22.1836 53.3378 22.0657 53.4104L20.9412 54.0917L21.9494 53.8517C22.077 53.8212 22.2111 53.8347 22.3301 53.8898C22.4491 53.9449 22.5461 54.0386 22.6053 54.1556C22.6645 54.2726 22.6826 54.4062 22.6566 54.5347C22.6306 54.6633 22.5621 54.7793 22.462 54.8641L21.1803 55.9442C21.2681 56.0223 21.3297 56.1255 21.3567 56.2399C21.3928 56.3902 21.3679 56.5488 21.2872 56.6807C21.2065 56.8126 21.0768 56.9071 20.9265 56.9434L19.4946 57.2866C19.3951 57.3111 19.2908 57.3083 19.1928 57.2786Z" fill="#F4B241"/>
<path d="M27.5278 36.8732C27.4051 36.8364 27.298 36.7602 27.223 36.6565C27.1479 36.5527 27.1091 36.4272 27.1125 36.2992C27.1158 36.1712 27.1612 36.0479 27.2416 35.9482C27.322 35.8486 27.433 35.7781 27.5574 35.7478L36.3727 33.6349C36.513 33.6012 36.6609 33.6208 36.7877 33.6899C36.9145 33.759 37.0112 33.8726 37.059 34.0088C37.1069 34.145 37.1025 34.2941 37.0468 34.4273C36.9911 34.5605 36.8879 34.6683 36.7573 34.7298L36.1733 35.0044C36.2953 35.0421 36.4015 35.1188 36.4757 35.2226C36.5499 35.3265 36.588 35.4518 36.5841 35.5794C36.5803 35.707 36.5347 35.8298 36.4543 35.929C36.3739 36.0281 36.2633 36.0982 36.1392 36.1285L31.3182 37.2844C31.1806 37.3121 31.0376 37.2894 30.9154 37.2202C30.7932 37.151 30.7001 37.0402 30.6531 36.9079C30.6061 36.7756 30.6084 36.6308 30.6595 36.5001C30.7107 36.3694 30.8072 36.2614 30.9315 36.1962L31.1579 36.0893L27.8285 36.8809C27.7293 36.905 27.6256 36.9023 27.5278 36.8732Z" fill="#F4B241"/>
<path d="M35.9866 24.8545C35.8799 24.8226 35.7845 24.7608 35.7117 24.6764C35.639 24.592 35.5919 24.4886 35.5761 24.3783C35.5603 24.268 35.5765 24.1555 35.6226 24.0541C35.6687 23.9527 35.7429 23.8666 35.8364 23.806L38.2306 22.2576L37.6425 22.3983C37.5115 22.4292 37.3738 22.4137 37.2529 22.3547C37.1319 22.2957 37.0351 22.1966 36.9789 22.0744C36.9226 21.9521 36.9103 21.8142 36.9442 21.6839C36.978 21.5537 37.0558 21.4391 37.1644 21.3597L39.6574 19.5436L37.454 20.0717C37.321 20.1036 37.181 20.0878 37.0585 20.0271C36.936 19.9663 36.8387 19.8645 36.7837 19.7393C36.7286 19.6141 36.7193 19.4736 36.7573 19.3422C36.7954 19.2109 36.8783 19.0971 36.9918 19.0207L38.4427 18.0431L36.5523 18.496C36.426 18.5265 36.2931 18.5139 36.1748 18.4603C36.0564 18.4067 35.9594 18.3151 35.899 18.2C35.839 18.0854 35.8188 17.954 35.8416 17.8266C35.8644 17.6992 35.9289 17.583 36.025 17.4963L37.7534 15.9402L33.6653 16.9181C33.5897 16.9397 33.5104 16.9457 33.4324 16.9359C33.3543 16.926 33.2791 16.9005 33.2111 16.8609C33.1432 16.8212 33.084 16.7682 33.0371 16.705C32.9901 16.6419 32.9565 16.5699 32.9381 16.4934C32.9197 16.4169 32.917 16.3375 32.9301 16.2599C32.9433 16.1823 32.9719 16.1082 33.0144 16.042C33.0569 15.9758 33.1124 15.9189 33.1774 15.8746C33.2425 15.8304 33.3159 15.7998 33.3931 15.7847L39.709 14.2702C39.8352 14.2397 39.968 14.2522 40.0863 14.3057C40.2046 14.3592 40.3017 14.4506 40.3622 14.5655C40.4227 14.6804 40.4431 14.8121 40.4202 14.9399C40.3974 15.0678 40.3325 15.1843 40.236 15.2711L38.5056 16.8339L41.3104 16.1617C41.4434 16.1298 41.5833 16.1455 41.7058 16.2063C41.8284 16.267 41.9256 16.3689 41.9807 16.4941C42.0358 16.6192 42.0451 16.7598 42.007 16.8911C41.969 17.0225 41.886 17.1363 41.7726 17.2127L40.3206 18.19L42.2329 17.7326C42.3639 17.7017 42.5016 17.7171 42.6225 17.7762C42.7435 17.8352 42.8403 17.9343 42.8965 18.0565C42.9528 18.1788 42.9651 18.3167 42.9312 18.447C42.8974 18.5772 42.8196 18.6918 42.711 18.7712L40.2196 20.5817L41.2765 20.3293C41.4103 20.2972 41.5512 20.3135 41.6742 20.3752C41.7972 20.437 41.8944 20.5402 41.9487 20.6667C42.0029 20.7932 42.0107 20.9348 41.9706 21.0664C41.9305 21.1981 41.8452 21.3113 41.7297 21.3862L39.3376 22.9316L40.4117 22.6746C40.4874 22.653 40.5666 22.6469 40.6447 22.6567C40.7227 22.6666 40.798 22.6921 40.8659 22.7318C40.9339 22.7715 40.9931 22.8245 41.04 22.8876C41.0869 22.9508 41.1206 23.0228 41.139 23.0992C41.1573 23.1757 41.16 23.2552 41.1469 23.3327C41.1338 23.4103 41.1051 23.4844 41.0626 23.5506C41.0201 23.6168 40.9647 23.6738 40.8996 23.718C40.8345 23.7622 40.7612 23.7928 40.684 23.8079L36.2885 24.8625C36.1889 24.8864 36.0848 24.8836 35.9866 24.8545Z" fill="#F4B241"/>
<path d="M5.25587 64.8136C5.14222 64.7797 5.04159 64.712 4.96739 64.6195C4.89319 64.5271 4.84894 64.4141 4.84054 64.2959C4.83213 64.1776 4.85998 64.0595 4.92036 63.9575C4.98074 63.8554 5.07079 63.7742 5.17851 63.7246L9.54628 61.7175L3.70637 63.1164C3.56181 63.151 3.4095 63.1291 3.28052 63.0552C3.15155 62.9814 3.05564 62.861 3.0124 62.7188C2.96915 62.5766 2.98183 62.4232 3.04783 62.29C3.11384 62.1569 3.2282 62.0539 3.36755 62.0022L4.40237 61.6192L3.37551 61.8646C3.23309 61.8968 3.08378 61.8744 2.95707 61.8019C2.83036 61.7293 2.73546 61.6119 2.69112 61.4728C2.64678 61.3337 2.65622 61.183 2.71758 61.0505C2.77894 60.918 2.88775 60.8133 3.02252 60.7572L5.7386 59.662L3.70298 60.1534C3.55462 60.1977 3.39475 60.1812 3.25854 60.1076C3.12234 60.034 3.02095 59.9093 2.97669 59.7609C2.93242 59.6126 2.94891 59.4527 3.02251 59.3165C3.09612 59.1803 3.22082 59.0789 3.36918 59.0346L4.51296 58.6206C4.37591 58.6146 4.24538 58.5604 4.1443 58.4676C4.04323 58.3749 3.97809 58.2495 3.96032 58.1134C3.94255 57.9774 3.9733 57.8394 4.04716 57.7238C4.12101 57.6082 4.23325 57.5223 4.36415 57.4813L6.03848 56.9484L5.70449 57.0282C5.56182 57.0607 5.41215 57.0384 5.28515 56.9658C5.15815 56.8931 5.0631 56.7753 5.01886 56.6359C4.97462 56.4964 4.98441 56.3454 5.04629 56.2128C5.10818 56.0802 5.21764 55.9757 5.35296 55.92L11.2506 53.5757L7.34572 54.5105C7.20465 54.5433 7.05641 54.5225 6.92986 54.452C6.80331 54.3816 6.70749 54.2666 6.66105 54.1294C6.61461 53.9922 6.62087 53.8426 6.67861 53.7098C6.73634 53.577 6.84143 53.4704 6.97343 53.4107L12.7406 50.8622L9.16969 51.7172C9.02561 51.7518 8.87376 51.7302 8.74499 51.6569C8.61622 51.5836 8.52017 51.464 8.47635 51.3225C8.43254 51.1809 8.44423 51.028 8.50906 50.8947C8.57389 50.7615 8.68699 50.6579 8.82541 50.605L11.3912 49.6308L10.3761 49.8736C10.2321 49.9088 10.0802 49.8878 9.95113 49.8149C9.82208 49.7421 9.72559 49.6228 9.68125 49.4814C9.63692 49.34 9.64806 49.1871 9.71242 49.0536C9.77679 48.9201 9.88954 48.8161 10.0278 48.7627L13.3107 47.4755L11.6837 47.8654C11.5392 47.9005 11.3869 47.8792 11.2576 47.8058C11.1284 47.7323 11.0321 47.6124 10.9883 47.4703C10.9446 47.3283 10.9567 47.1749 11.0222 47.0415C11.0877 46.9081 11.2017 46.8047 11.3408 46.7525L13.6753 45.869L12.8542 46.0648C12.7117 46.0985 12.5618 46.0773 12.4341 46.0056C12.3065 45.9339 12.2105 45.8167 12.1652 45.6775C12.1199 45.5382 12.1287 45.3871 12.1897 45.254C12.2507 45.1209 12.3596 45.0156 12.4946 44.959L16.9212 43.1312L14.3655 43.747C14.223 43.7801 14.0732 43.7584 13.9458 43.6862C13.8185 43.614 13.723 43.4965 13.6783 43.3572C13.6335 43.2178 13.6428 43.0667 13.7042 42.9339C13.7657 42.801 13.8748 42.6962 14.01 42.64L18.1082 40.9631L15.8178 41.5176C15.6734 41.5512 15.5217 41.5286 15.3934 41.4544C15.2652 41.3801 15.1699 41.2598 15.1271 41.1179C15.0843 40.976 15.0971 40.8232 15.163 40.6904C15.2288 40.5576 15.3427 40.4548 15.4816 40.403L16.8014 39.9207C16.6592 39.9371 16.5159 39.9007 16.3989 39.8183C16.2818 39.736 16.1991 39.6135 16.1665 39.4741C16.1339 39.3347 16.1537 39.1883 16.2221 39.0625C16.2905 38.9368 16.4027 38.8406 16.5374 38.7922L26.1239 35.4454L18.5991 37.2486C18.4537 37.2827 18.3007 37.2597 18.1718 37.1843C18.0428 37.1089 17.9477 36.987 17.906 36.8436C17.8643 36.7001 17.8792 36.5462 17.9476 36.4134C18.016 36.2806 18.1328 36.1792 18.2738 36.1299L26.2525 33.3953L20.1548 34.8552C20.0082 34.8895 19.854 34.8657 19.7245 34.789C19.595 34.7122 19.5002 34.5883 19.4599 34.4432C19.4197 34.2982 19.437 34.1431 19.5084 34.0106C19.5798 33.878 19.6997 33.7782 19.843 33.732L22.9328 32.7513L21.2681 33.1532C21.1218 33.1876 20.9678 33.1642 20.8383 33.0879C20.7088 33.0115 20.6138 32.8881 20.5731 32.7434C20.5323 32.5987 20.549 32.4439 20.6197 32.3112C20.6903 32.1785 20.8095 32.0782 20.9523 32.0312L24.8372 30.7741L20.5822 31.7937C20.4346 31.8308 20.2784 31.8088 20.1468 31.7324C20.0152 31.6559 19.9187 31.5311 19.8779 31.3845C19.8371 31.2379 19.8552 31.0812 19.9283 30.9477C20.0014 30.8143 20.1238 30.7147 20.2693 30.6702L23.9886 29.4953L19.7886 30.502C19.6482 30.535 19.5005 30.5147 19.3741 30.4452C19.2478 30.3756 19.1516 30.2617 19.1043 30.1255C19.057 29.9892 19.0618 29.8402 19.1179 29.7073C19.174 29.5744 19.2773 29.467 19.4079 29.4058L24.7139 26.9517L18.8846 28.3477C18.7415 28.3815 18.5909 28.36 18.463 28.2875C18.335 28.215 18.2392 28.0969 18.1946 27.9568C18.15 27.8167 18.16 27.6649 18.2226 27.5318C18.2851 27.3988 18.3956 27.2942 18.5319 27.2391L21.2941 26.1321L18.5043 26.7989C18.3604 26.8325 18.2091 26.8102 18.081 26.7365C17.9529 26.6629 17.8576 26.5433 17.8142 26.4021C17.7708 26.2608 17.7826 26.1084 17.8473 25.9755C17.912 25.8427 18.0247 25.7393 18.1626 25.6863L19.3802 25.2285L18.3315 25.4821C18.1902 25.511 18.0432 25.4866 17.9188 25.4135C17.7945 25.3404 17.7016 25.2239 17.6582 25.0864C17.6147 24.9488 17.6237 24.8001 17.6835 24.6688C17.7433 24.5376 17.8496 24.4331 17.9818 24.3756L19.6227 23.7464L18.3121 24.0623C18.171 24.0951 18.0228 24.0742 17.8962 24.0038C17.7697 23.9333 17.6739 23.8183 17.6274 23.6811C17.581 23.544 17.5872 23.3944 17.645 23.2616C17.7027 23.1287 17.8078 23.0221 17.9398 22.9625L22.5644 20.9099L18.5737 21.8594C18.4284 21.8938 18.2755 21.8712 18.1464 21.7963C18.0173 21.7214 17.9218 21.5998 17.8796 21.4567C17.8374 21.3135 17.8517 21.1596 17.9196 21.0266C17.9874 20.8937 18.1036 20.7918 18.2443 20.7419L19.2236 20.3984L18.9698 20.4582C18.8246 20.4926 18.6717 20.47 18.5426 20.3951C18.4134 20.3202 18.318 20.1986 18.2758 20.0555C18.2336 19.9123 18.2479 19.7584 18.3157 19.6254C18.3836 19.4925 18.4998 19.3906 18.6405 19.3407L26.955 16.4136L20.0681 18.0642C19.9234 18.0969 19.7717 18.0733 19.6438 17.9981C19.516 17.923 19.4215 17.802 19.3797 17.6596C19.3379 17.5173 19.3519 17.3644 19.4188 17.2321C19.4857 17.0997 19.6005 16.9978 19.7399 16.947L24.3892 15.324L21.5745 15.9969C21.4341 16.0298 21.2864 16.0096 21.1601 15.94C21.0337 15.8705 20.9376 15.7566 20.8902 15.6203C20.8429 15.484 20.8478 15.3351 20.9038 15.2022C20.9599 15.0693 21.0632 14.9619 21.1939 14.9007L25.2509 13.0387C25.1442 13.014 25.0464 12.9604 24.9682 12.8838C24.89 12.8071 24.8345 12.7104 24.8078 12.6042C24.7716 12.4539 24.7966 12.2953 24.8772 12.1634C24.9579 12.0315 25.0876 11.937 25.2379 11.9007L30.5066 10.639C30.6472 10.6059 30.7951 10.6261 30.9217 10.6958C31.0482 10.7655 31.1444 10.8797 31.1916 11.0162C31.2388 11.1528 31.2337 11.302 31.1772 11.4349C31.1207 11.5679 31.0168 11.6752 30.8858 11.736L27.1065 13.4698L35.37 11.4902C35.5147 11.4574 35.6664 11.481 35.7943 11.5562C35.9221 11.6313 36.0166 11.7524 36.0584 11.8947C36.1002 12.037 36.0862 12.1899 36.0193 12.3223C35.9524 12.4547 35.8376 12.5566 35.6982 12.6073L31.0419 14.2331L37.66 12.6477C37.8053 12.6133 37.9582 12.6358 38.0873 12.7108C38.2164 12.7857 38.3119 12.9072 38.3541 13.0504C38.3963 13.1936 38.382 13.3475 38.3141 13.4804C38.2463 13.6134 38.1301 13.7153 37.9894 13.7651L29.6803 16.6902L29.925 16.6326C30.0693 16.6004 30.2205 16.6242 30.3479 16.6993C30.4753 16.7743 30.5695 16.8949 30.6114 17.0367C30.6533 17.1785 30.6397 17.331 30.5735 17.4632C30.5073 17.5954 30.3933 17.6975 30.2547 17.7489L28.7589 18.2788C28.8582 18.3002 28.9504 18.3468 29.0266 18.4142C29.1027 18.4815 29.1602 18.5673 29.1937 18.6633C29.2404 18.8011 29.2339 18.9515 29.1754 19.0847C29.117 19.218 29.0108 19.3247 28.8778 19.3837L24.2575 21.434L27.9858 20.5405C28.1291 20.5078 28.2795 20.5304 28.4068 20.6038C28.5342 20.6772 28.6291 20.796 28.6727 20.9364C28.7162 21.0768 28.7052 21.2284 28.6417 21.361C28.5783 21.4936 28.4671 21.5974 28.3304 21.6515L26.683 22.2824L28.209 21.9173C28.3529 21.8837 28.5042 21.906 28.6323 21.9797C28.7604 22.0533 28.8557 22.1729 28.8991 22.3141C28.9425 22.4554 28.9307 22.6078 28.866 22.7407C28.8013 22.8735 28.6886 22.9769 28.5507 23.0299L27.3371 23.4865L28.8001 23.1367C28.9434 23.1021 29.0944 23.123 29.2229 23.1952C29.3514 23.2674 29.4478 23.3856 29.4927 23.5259C29.5383 23.6662 29.529 23.8185 29.4668 23.9522C29.4045 24.086 29.2939 24.1911 29.1573 24.2466L26.3954 25.3525L30.1615 24.4508C30.3014 24.419 30.4481 24.4399 30.5736 24.5094C30.6991 24.579 30.7945 24.6924 30.8417 24.8279C30.8888 24.9634 30.8844 25.1116 30.8292 25.244C30.774 25.3765 30.6719 25.4839 30.5425 25.5458L25.2309 27.9983L39.7342 24.523C39.8808 24.4887 40.035 24.5124 40.1645 24.5892C40.294 24.666 40.3888 24.7899 40.429 24.9349C40.4693 25.08 40.4519 25.235 40.3805 25.3676C40.3092 25.5001 40.1893 25.6 40.046 25.6462L36.3215 26.8219L39.1321 26.1466C39.2774 26.1149 39.4292 26.1398 39.5567 26.2163C39.6842 26.2928 39.7777 26.4151 39.818 26.5581C39.8584 26.7012 39.8426 26.8543 39.7739 26.9862C39.7051 27.118 39.5887 27.2186 39.4483 27.2675L35.5711 28.5232L38.5168 27.815C38.6643 27.7779 38.8206 27.7999 38.9521 27.8763C39.0837 27.9528 39.1802 28.0776 39.2211 28.2242C39.2619 28.3708 39.2438 28.5275 39.1707 28.661C39.0976 28.7944 38.9752 28.894 38.8297 28.9385L35.7234 29.9216L37.9357 29.3926C38.0818 29.3564 38.2362 29.3782 38.3667 29.4533C38.4971 29.5284 38.5935 29.651 38.6356 29.7955C38.6778 29.94 38.6625 30.0952 38.5928 30.2286C38.5232 30.3621 38.4047 30.4635 38.2621 30.5116L30.277 33.2553L37.1181 31.6155C37.2628 31.5828 37.4145 31.6064 37.5424 31.6815C37.6702 31.7567 37.7647 31.8777 37.8065 32.02C37.8483 32.1623 37.8343 32.3152 37.7674 32.4476C37.7005 32.58 37.5857 32.6819 37.4463 32.7326L26.7424 36.466C26.8496 36.5127 26.9404 36.5906 27.0028 36.6895C27.0652 36.7884 27.0965 36.9038 27.0925 37.0207C27.0886 37.1376 27.0495 37.2506 26.9805 37.3451C26.9115 37.4395 26.8157 37.511 26.7055 37.5503L25.3872 38.0318C25.5283 38.0123 25.6717 38.0452 25.7903 38.1242C25.9088 38.2032 25.9944 38.3229 26.0308 38.4607C26.0672 38.5984 26.0519 38.7447 25.9878 38.872C25.9237 38.9993 25.8153 39.0987 25.683 39.1515L21.5909 40.8157L23.8848 40.2658C24.0276 40.2318 24.1779 40.2528 24.3058 40.3247C24.4338 40.3966 24.5299 40.514 24.5751 40.6536C24.6203 40.7932 24.6112 40.9448 24.5496 41.078C24.4881 41.2112 24.3786 41.3163 24.243 41.3723L19.8132 43.2029L22.3796 42.5878C22.524 42.5527 22.6763 42.574 22.8056 42.6474C22.9348 42.7209 23.0311 42.8408 23.0749 42.9829C23.1186 43.1249 23.1065 43.2783 23.041 43.4117C22.9755 43.5451 22.8615 43.6485 22.7224 43.7007L20.3896 44.5908L21.2176 44.3922C21.3616 44.3571 21.5135 44.3781 21.6426 44.4509C21.7716 44.5238 21.8681 44.643 21.9125 44.7844C21.9568 44.9258 21.9457 45.0788 21.8813 45.2123C21.8169 45.3458 21.7042 45.4497 21.5659 45.5031L18.2888 46.7872L19.9159 46.3973C20.0599 46.3627 20.2118 46.3843 20.3406 46.4576C20.4693 46.5309 20.5654 46.6505 20.6092 46.792C20.653 46.9336 20.6413 47.0865 20.5765 47.2197C20.5117 47.353 20.3986 47.4566 20.2601 47.5095L17.6864 48.4777L18.7173 48.231C18.8587 48.1971 19.0077 48.2172 19.1351 48.2875C19.2624 48.3577 19.3589 48.473 19.4057 48.6107C19.4524 48.7485 19.4461 48.8987 19.3878 49.032C19.3295 49.1652 19.2235 49.2719 19.0907 49.3311L13.3246 51.88L18.8961 50.545C19.0392 50.5113 19.1898 50.5327 19.3177 50.6052C19.4456 50.6777 19.5415 50.7958 19.5861 50.9359C19.6306 51.076 19.6206 51.2278 19.5581 51.3609C19.4956 51.494 19.3851 51.5985 19.2487 51.6536L13.3508 53.999L21.2703 52.0999C21.4193 52.0582 21.5788 52.0775 21.7136 52.1535C21.8485 52.2294 21.9476 52.3558 21.9892 52.5048C22.0309 52.6538 22.0116 52.8133 21.9357 52.9481C21.8597 53.083 21.7334 53.1821 21.5843 53.2238L14.7954 55.3852C14.8248 55.4291 14.8479 55.477 14.864 55.5273C14.9066 55.6701 14.893 55.8238 14.826 55.9569C14.7589 56.0899 14.6434 56.1923 14.5032 56.2429L13.354 56.659C13.4718 56.6652 13.5851 56.7067 13.6791 56.778C13.7731 56.8493 13.8437 56.9471 13.8816 57.0588C13.9268 57.1989 13.9174 57.3509 13.8553 57.4844C13.7931 57.6179 13.6828 57.7229 13.5464 57.7784L10.8277 58.8825L13.5709 58.225C13.7155 58.1903 13.8678 58.2122 13.9968 58.2861C14.1258 58.36 14.2217 58.4803 14.2649 58.6225C14.3082 58.7648 14.2955 58.9181 14.2295 59.0513C14.1635 59.1845 14.0491 59.2874 13.9098 59.3391L12.8709 59.7234L15.0598 59.1996C15.2004 59.1665 15.3483 59.1867 15.4748 59.2564C15.6014 59.3261 15.6976 59.4403 15.7448 59.5768C15.792 59.7133 15.7868 59.8625 15.7304 59.9955C15.6739 60.1285 15.57 60.2357 15.439 60.2965L9.66241 62.9506C9.73077 63.0255 9.77842 63.117 9.80065 63.2159C9.82288 63.3149 9.81893 63.4179 9.78919 63.5149C9.75945 63.6118 9.70494 63.6993 9.63105 63.7688C9.55715 63.8383 9.46642 63.8873 9.36781 63.911L5.55673 64.8249C5.45723 64.8482 5.35333 64.8442 5.25587 64.8136Z" fill="#F4B241"/>
<path d="M38.9131 73.1663C38.7905 73.1295 38.6834 73.0533 38.6083 72.9496C38.5333 72.8458 38.4944 72.7203 38.4978 72.5923C38.5012 72.4643 38.5466 72.341 38.6269 72.2413C38.7073 72.1417 38.8183 72.0712 38.9427 72.0409L44.8207 70.6326C44.9411 70.6047 45.0674 70.6158 45.1811 70.6643C45.2949 70.7128 45.3903 70.7962 45.4536 70.9024C45.5169 71.0087 45.5447 71.1323 45.5332 71.2554C45.5216 71.3785 45.4712 71.4948 45.3893 71.5874L44.3876 72.708C44.4965 72.7316 44.5968 72.785 44.6772 72.8621C44.7577 72.9392 44.8152 73.0371 44.8433 73.145C44.8795 73.2953 44.8546 73.4539 44.7739 73.5858C44.6932 73.7177 44.5635 73.8122 44.4132 73.8485L42.9055 74.2093C42.7848 74.2375 42.6584 74.2265 42.5444 74.178C42.4304 74.1294 42.3348 74.0459 42.2715 73.9394C42.2082 73.8329 42.1804 73.709 42.1922 73.5857C42.2041 73.4623 42.2548 73.346 42.3372 73.2534L43.2784 72.2013L39.2172 73.175C39.1169 73.1994 39.0119 73.1964 38.9131 73.1663Z" fill="#F4B241"/>
<path d="M41.5668 64.2185C41.4441 64.1817 41.337 64.1055 41.262 64.0018C41.1869 63.898 41.1481 63.7725 41.1515 63.6445C41.1548 63.5165 41.2002 63.3932 41.2806 63.2935C41.361 63.1939 41.472 63.1235 41.5963 63.0931L47.4743 61.6848C47.6 61.6547 47.7321 61.6671 47.85 61.7202C47.9678 61.7732 48.0647 61.8639 48.1255 61.978C48.1862 62.0921 48.2073 62.2232 48.1854 62.3506C48.1636 62.478 48.1001 62.5945 48.0049 62.6819L47.0768 63.5298C47.2169 63.5366 47.3499 63.5936 47.4513 63.6905C47.5528 63.7874 47.6159 63.9176 47.6292 64.0572C47.6425 64.1969 47.605 64.3366 47.5236 64.4509C47.4422 64.5652 47.3224 64.6463 47.186 64.6793L45.1869 65.1584C45.0612 65.1884 44.9291 65.1758 44.8113 65.1226C44.6935 65.0694 44.5968 64.9785 44.5362 64.8643C44.4757 64.7501 44.4547 64.619 44.4768 64.4917C44.4988 64.3643 44.5625 64.2479 44.6578 64.1606L45.5508 63.3449L41.8653 64.2255C41.7669 64.2494 41.6639 64.247 41.5668 64.2185Z" fill="#F4B241"/>
<path d="M48.1932 31.6528C48.0821 31.6199 47.9834 31.5546 47.9096 31.4653C47.8358 31.376 47.7902 31.2668 47.7787 31.1515C47.7672 31.0362 47.7903 30.9201 47.8451 30.818C47.8998 30.7159 47.9837 30.6324 48.0861 30.5782L50.5526 29.2739L49.5415 29.5155C49.4021 29.5516 49.2542 29.5349 49.1263 29.4685C48.9985 29.4021 48.8998 29.2908 48.8491 29.156C48.7984 29.0211 48.7995 28.8723 48.852 28.7382C48.9045 28.604 49.0048 28.4941 49.1335 28.4295L50.7211 27.6105L50.4344 27.6787C50.298 27.7107 50.1547 27.6926 50.0306 27.6276C49.9066 27.5627 49.81 27.4553 49.7586 27.325C49.7072 27.1947 49.7043 27.0503 49.7506 26.9181C49.7968 26.786 49.8891 26.6748 50.0105 26.605L51.7855 25.5934L51.4072 25.6832C51.2747 25.7139 51.1357 25.6974 51.0141 25.6365C50.8925 25.5756 50.796 25.4742 50.7413 25.3497C50.6866 25.2252 50.6771 25.0855 50.7144 24.9548C50.7517 24.824 50.8336 24.7104 50.9457 24.6336L53.0973 23.1811L51.515 23.5637C51.3784 23.5964 51.2346 23.5788 51.1099 23.514C50.9853 23.4492 50.8882 23.3417 50.8365 23.211C50.7848 23.0804 50.782 22.9355 50.8286 22.803C50.8752 22.6705 50.968 22.5592 51.0901 22.4896L51.9885 21.9797L49.3254 22.6173C49.1778 22.6462 49.0247 22.617 48.898 22.5357C48.7714 22.4544 48.6811 22.3274 48.646 22.1811C48.6108 22.0348 48.6336 21.8806 48.7094 21.7506C48.7853 21.6207 48.9085 21.5251 49.0531 21.4839L55.7249 19.8815C55.8619 19.8479 56.0064 19.865 56.1317 19.9298C56.257 19.9946 56.3546 20.1025 56.4064 20.2337C56.4583 20.3649 56.4608 20.5104 56.4135 20.6433C56.3663 20.7763 56.2725 20.8875 56.1496 20.9566L55.25 21.4662L55.9598 21.297C56.0924 21.2656 56.2319 21.2817 56.3539 21.3425C56.476 21.4032 56.5729 21.5048 56.6279 21.6295C56.6828 21.7543 56.6924 21.8943 56.6548 22.0254C56.6173 22.1564 56.535 22.2702 56.4223 22.3469L54.2708 23.7994L55.506 23.5038C55.6422 23.4718 55.7854 23.4898 55.9094 23.5546C56.0334 23.6194 56.13 23.7266 56.1816 23.8567C56.2332 23.9868 56.2362 24.1311 56.1903 24.2632C56.1443 24.3954 56.0524 24.5066 55.9313 24.5767L54.1534 25.5899L55.1253 25.3574C55.2648 25.3212 55.4126 25.338 55.5405 25.4044C55.6683 25.4707 55.7671 25.5821 55.8177 25.7169C55.8684 25.8517 55.8674 26.0006 55.8149 26.1347C55.7623 26.2688 55.6621 26.3788 55.5333 26.4434L53.9457 27.2624L54.7774 27.0637C54.9155 27.0307 55.0608 27.0492 55.1863 27.1156C55.3117 27.1821 55.4086 27.2921 55.4588 27.4249C55.5089 27.5577 55.509 27.7043 55.4588 27.8371C55.4087 27.9699 55.3118 28.0799 55.1864 28.1464L52.7186 29.4466L54.3651 29.0527C54.4407 29.0312 54.52 29.0251 54.598 29.0349C54.6761 29.0448 54.7513 29.0703 54.8193 29.11C54.8872 29.1496 54.9464 29.2027 54.9933 29.2658C55.0403 29.329 55.0739 29.4009 55.0923 29.4774C55.1107 29.5539 55.1134 29.6334 55.1003 29.7109C55.0872 29.7885 55.0585 29.8626 55.016 29.9288C54.9735 29.995 54.918 30.052 54.853 30.0962C54.7879 30.1404 54.7145 30.171 54.6373 30.1861L48.4951 31.6608C48.3956 31.6853 48.2913 31.6826 48.1932 31.6528Z" fill="#F4B241"/>
<path d="M34.1171 76.5215C34.0104 76.4896 33.9151 76.428 33.8424 76.3437C33.7696 76.2595 33.7225 76.1562 33.7066 76.046C33.6906 75.9359 33.7065 75.8235 33.7524 75.7221C33.7983 75.6207 33.8722 75.5345 33.9654 75.4737L35.054 74.7659L32.4261 75.3956C32.2826 75.4292 32.1317 75.4073 32.0038 75.3343C31.8758 75.2612 31.7802 75.1424 31.7362 75.0017C31.6922 74.8611 31.7031 74.709 31.7667 74.576C31.8303 74.4431 31.9418 74.3391 32.0789 74.285L36.6986 72.4913L31.638 73.704C31.4946 73.7367 31.3443 73.714 31.2169 73.6406C31.0896 73.5672 30.9946 73.4485 30.9511 73.3081C30.9075 73.1677 30.9186 73.016 30.9821 72.8834C31.0455 72.7508 31.1567 72.6471 31.2933 72.5929L34.1685 71.4865L31.7634 72.0667C31.6247 72.0978 31.4794 72.0771 31.3548 72.0085C31.2303 71.94 31.135 71.8284 31.087 71.6946C31.039 71.5608 31.0414 71.414 31.094 71.2819C31.1465 71.1498 31.2455 71.0414 31.3722 70.9772L34.9652 69.2355L32.4186 69.8455C32.2751 69.8813 32.1234 69.8613 31.9941 69.7896C31.8648 69.7178 31.7676 69.5996 31.7222 69.4588C31.6767 69.3181 31.6864 69.1654 31.7493 69.0315C31.8121 68.8977 31.9235 68.7927 32.0608 68.7379L33.2814 68.2371L32.8629 68.3393C32.721 68.3731 32.5715 68.3524 32.4441 68.2814C32.3166 68.2104 32.2204 68.0942 32.1744 67.9558C32.1284 67.8173 32.1359 67.6666 32.1955 67.5335C32.2552 67.4003 32.3625 67.2943 32.4964 67.2364L34.3445 66.446L33.3517 66.6833C33.207 66.716 33.0553 66.6924 32.9274 66.6173C32.7995 66.5421 32.7051 66.4211 32.6633 66.2788C32.6215 66.1365 32.6354 65.9836 32.7024 65.8512C32.7693 65.7188 32.8841 65.6169 33.0235 65.5662L36.5858 64.3216L33.8567 64.9724C33.7146 65.0065 33.5648 64.9859 33.4371 64.9147C33.3094 64.8436 33.213 64.7271 33.1671 64.5883C33.1212 64.4495 33.1291 64.2985 33.1892 64.1653C33.2493 64.032 33.3573 63.9262 33.4917 63.8687L38.0242 61.9421L34.5032 62.7888C34.3621 62.8209 34.214 62.7995 34.0879 62.7286C33.9617 62.6576 33.8664 62.5423 33.8205 62.4051C33.7745 62.2678 33.7813 62.1184 33.8394 61.9858C33.8975 61.8532 34.0029 61.747 34.1349 61.6878L36.301 60.7483L35.0149 61.0556C34.8746 61.0915 34.7259 61.074 34.5978 61.0064C34.4697 60.9388 34.3713 60.826 34.3218 60.6898C34.2723 60.5537 34.2753 60.404 34.33 60.2699C34.3848 60.1358 34.4875 60.0269 34.6182 59.9644L38.5857 57.9773L35.7212 58.6621C35.5833 58.6907 35.4398 58.6684 35.317 58.5994C35.1943 58.5304 35.1007 58.4193 35.0534 58.2866C35.0062 58.154 35.0085 58.0088 35.0599 57.8777C35.1114 57.7466 35.2085 57.6386 35.3334 57.5736L38.6736 55.9906L36.3445 56.5483C36.2006 56.5834 36.0486 56.5624 35.9196 56.4895C35.7905 56.4167 35.694 56.2975 35.6497 56.1561C35.6054 56.0147 35.6165 55.8617 35.6809 55.7282C35.7452 55.5947 35.858 55.4907 35.9962 55.4374L36.4926 55.2451C36.3715 55.2234 36.2603 55.164 36.175 55.0754C36.0897 54.9868 36.0346 54.8735 36.0175 54.7517C36.0005 54.6299 36.0224 54.5058 36.0801 54.3971C36.1378 54.2885 36.2284 54.2009 36.3389 54.1468L40.0207 52.3476L37.4002 52.977C37.258 53.0111 37.1082 52.9905 36.9805 52.9193C36.8528 52.8482 36.7565 52.7317 36.7105 52.5929C36.6646 52.4541 36.6725 52.3031 36.7326 52.1699C36.7927 52.0366 36.9007 51.9308 37.0351 51.8733L38.9609 51.0426L37.8845 51.299C37.7436 51.3309 37.5958 51.3094 37.4699 51.2386C37.3439 51.1679 37.2487 51.0529 37.2026 50.9159C37.1566 50.7789 37.163 50.6297 37.2207 50.4972C37.2784 50.3648 37.3832 50.2584 37.5148 50.1987L39.7876 49.2033L38.4044 49.5341C38.2632 49.5662 38.1152 49.5448 37.989 49.4739C37.8628 49.4029 37.7675 49.2876 37.7216 49.1504C37.6757 49.0131 37.6825 48.8637 37.7406 48.7311C37.7987 48.5985 37.904 48.4923 38.0361 48.4331L40.1758 47.5089L38.9185 47.8089C38.7779 47.8413 38.6302 47.8205 38.504 47.7503C38.3778 47.6801 38.2822 47.5657 38.2355 47.4291C38.1888 47.2925 38.1945 47.1434 38.2513 47.0107C38.3082 46.878 38.4122 46.7711 38.5433 46.7107L41.1501 45.5369L39.4696 45.9389C39.3267 45.9703 39.1772 45.9469 39.0508 45.8733C38.9244 45.7997 38.8302 45.6813 38.787 45.5415C38.7438 45.4018 38.7546 45.2509 38.8174 45.1188C38.8802 44.9866 38.9904 44.8829 39.1261 44.8282L43.7224 43.0678L40.0548 43.9452C39.9129 43.9768 39.7643 43.9543 39.6381 43.882C39.5119 43.8097 39.4173 43.6929 39.3727 43.5545C39.3282 43.4161 39.3369 43.266 39.3973 43.1337C39.4576 43.0014 39.5652 42.8964 39.699 42.8393L45.4695 40.4804L40.7443 41.6125C40.601 41.6467 40.45 41.6253 40.3217 41.5527C40.1934 41.4801 40.0974 41.3616 40.0529 41.2211C40.0084 41.0806 40.0187 40.9284 40.0819 40.7952C40.145 40.662 40.2562 40.5577 40.3931 40.5031L45.2955 38.5645L39.0297 40.0659C38.8857 40.101 38.7338 40.08 38.6047 40.0071C38.4757 39.9343 38.3792 39.815 38.3349 39.6736C38.2905 39.5322 38.3017 39.3793 38.366 39.2458C38.4304 39.1123 38.5431 39.0083 38.6814 38.9549L45.6523 36.2171L37.3559 38.2052C37.2102 38.2404 37.0566 38.2182 36.9269 38.1432C36.7971 38.0682 36.7013 37.9461 36.6591 37.8023C36.6169 37.6585 36.6317 37.504 36.7004 37.3708C36.7691 37.2376 36.8864 37.136 37.028 37.087L42.8986 35.0389L36.3564 36.6066C36.2103 36.6399 36.0569 36.6157 35.9282 36.539C35.7995 36.4623 35.7052 36.339 35.6649 36.1947C35.6247 36.0504 35.6415 35.8961 35.7119 35.7638C35.7823 35.6315 35.9009 35.5314 36.0431 35.4842L39.0638 34.5232L35.7599 35.315C35.6169 35.3494 35.4661 35.3285 35.3379 35.2565C35.2096 35.1845 35.1133 35.0667 35.0682 34.9267C35.0231 34.7867 35.0326 34.6348 35.0947 34.5015C35.1568 34.3682 35.267 34.2633 35.4032 34.2077L38.4354 32.9739L35.2552 33.7343C35.1171 33.7636 34.973 33.7418 34.8496 33.673C34.7263 33.6041 34.6322 33.4929 34.5847 33.3599C34.5372 33.2269 34.5395 33.0811 34.5913 32.9497C34.6431 32.8183 34.7408 32.7102 34.8663 32.6454L39.0311 30.6498L34.9021 31.6386C34.7582 31.6722 34.6069 31.6499 34.4788 31.5763C34.3507 31.5026 34.2553 31.3831 34.212 31.2418C34.1686 31.1006 34.1804 30.9481 34.2451 30.8153C34.3098 30.6824 34.4224 30.579 34.5604 30.526L34.8837 30.4041L34.8736 30.4011C34.7304 30.4359 34.5792 30.4152 34.4506 30.343C34.322 30.2709 34.2255 30.1528 34.1805 30.0123C34.1355 29.8719 34.1453 29.7197 34.208 29.5863C34.2707 29.4528 34.3816 29.348 34.5184 29.293L36.3002 28.5742L34.9896 28.8901C34.8457 28.9236 34.6945 28.9013 34.5664 28.8277C34.4383 28.754 34.3429 28.6345 34.2995 28.4932C34.2561 28.352 34.268 28.1995 34.3326 28.0667C34.3973 27.9338 34.51 27.8305 34.6479 27.7775L35.2567 27.5467C35.1125 27.5767 34.9623 27.5511 34.8362 27.475C34.7101 27.3989 34.6175 27.2779 34.577 27.1363C34.5364 26.9948 34.5509 26.8431 34.6175 26.7117C34.6841 26.5804 34.798 26.4791 34.9362 26.4282L43.037 23.6921L36.0115 25.3794C35.8652 25.4138 35.7112 25.3904 35.5817 25.314C35.4522 25.2377 35.3572 25.1143 35.3165 24.9696C35.2757 24.8249 35.2924 24.6701 35.3631 24.5374C35.4337 24.4047 35.5529 24.3044 35.6957 24.2574L39.5432 23.0074L36.9848 23.62C36.841 23.6541 36.6897 23.6324 36.5613 23.5592C36.433 23.486 36.3372 23.3668 36.2933 23.2257C36.2494 23.0846 36.2607 22.9321 36.3249 22.799C36.389 22.6659 36.5014 22.5622 36.6391 22.5087L42.2534 20.3443L39.2025 21.0749C39.059 21.1086 38.9081 21.0866 38.7801 21.0136C38.6521 20.9405 38.5565 20.8217 38.5126 20.681C38.4686 20.5404 38.4795 20.3883 38.5431 20.2553C38.6067 20.1224 38.7182 20.0184 38.8553 19.9643L41.4995 18.9391C41.4557 18.8768 41.424 18.8067 41.4062 18.7326C41.3705 18.5823 41.3958 18.4241 41.4766 18.2924C41.5574 18.1608 41.687 18.0666 41.8372 18.0305L47.1127 16.766C47.2555 16.734 47.4051 16.7569 47.5318 16.83C47.6585 16.9032 47.7531 17.0213 47.7968 17.1609C47.8405 17.3005 47.8302 17.4514 47.7679 17.5838C47.7055 17.7161 47.5957 17.8202 47.4602 17.8754L47.3141 17.9331L50.5159 17.1657C50.6597 17.1317 50.811 17.1534 50.9394 17.2266C51.0677 17.2998 51.1635 17.419 51.2074 17.5601C51.2513 17.7012 51.24 17.8537 51.1758 17.9867C51.1117 18.1198 50.9994 18.2236 50.8616 18.2771L45.2517 20.4391L53.6522 18.4282C53.7985 18.3938 53.9525 18.4172 54.082 18.4936C54.2115 18.5699 54.3065 18.6933 54.3472 18.838C54.3879 18.9827 54.3712 19.1376 54.3006 19.2703C54.2299 19.4029 54.1108 19.5032 53.968 19.5502L50.1226 20.7972L55.314 19.554C55.4583 19.5231 55.609 19.548 55.7357 19.6238C55.8623 19.6996 55.9555 19.8206 55.9965 19.9624C56.0375 20.1042 56.0232 20.2563 55.9565 20.388C55.8898 20.5196 55.7756 20.6211 55.6371 20.672L44.5704 24.4098C44.6384 24.4791 44.6881 24.5643 44.7148 24.6577C44.7416 24.751 44.7446 24.8496 44.7236 24.9444C44.7026 25.0392 44.6582 25.1273 44.5946 25.2006C44.5309 25.274 44.45 25.3303 44.3591 25.3644L43.7218 25.605C43.8624 25.5884 44.0042 25.6234 44.1208 25.7036C44.2374 25.7838 44.3209 25.9037 44.3556 26.0408C44.3904 26.178 44.3742 26.3232 44.3099 26.4492C44.2456 26.5753 44.1377 26.6737 44.0063 26.7261L42.2233 27.4446L43.7124 27.0892C43.8563 27.0557 44.0075 27.078 44.1356 27.1516C44.2637 27.2253 44.3591 27.3448 44.4025 27.486C44.4459 27.6273 44.434 27.7797 44.3694 27.9126C44.3047 28.0455 44.192 28.1488 44.0541 28.2018L43.7238 28.3266L44.0996 28.2372C44.2377 28.2079 44.3818 28.2296 44.5052 28.2985C44.6285 28.3674 44.7226 28.4786 44.7701 28.6116C44.8176 28.7446 44.8153 28.8904 44.7635 29.0218C44.7117 29.1531 44.614 29.2613 44.4885 29.3261L40.3263 31.3212L45.6476 30.046C45.7902 30.0129 45.94 30.0346 46.0673 30.1068C46.1946 30.179 46.2901 30.2964 46.3349 30.4358C46.3797 30.5752 46.3704 30.7262 46.3089 30.8591C46.2475 30.9919 46.1384 31.0968 46.0032 31.1529L42.9729 32.3885L54.2329 29.689C54.3798 29.6534 54.5348 29.6762 54.6651 29.7527C54.7955 29.8291 54.8912 29.9531 54.9319 30.0986C54.9727 30.2442 54.9553 30.3998 54.8836 30.5328C54.8118 30.6659 54.6913 30.7658 54.5473 30.8117L51.511 31.7803L53.9225 31.2032C54.0672 31.1705 54.2189 31.1941 54.3468 31.2692C54.4747 31.3444 54.5691 31.4654 54.6109 31.6077C54.6527 31.75 54.6388 31.9029 54.5718 32.0353C54.5049 32.1677 54.3901 32.2696 54.2507 32.3203L48.3763 34.3649L53.5212 33.1347C53.6649 33.1 53.8163 33.1212 53.945 33.1939C54.0736 33.2667 54.1699 33.3855 54.2143 33.5265C54.2587 33.6674 54.2479 33.82 54.1842 33.9533C54.1205 34.0866 54.0085 34.1908 53.8709 34.2448L46.9038 36.9825L53.033 35.5149C53.1766 35.4803 53.3281 35.5015 53.4567 35.5742C53.5854 35.6469 53.6817 35.7658 53.7261 35.9067C53.7705 36.0477 53.7597 36.2002 53.696 36.3336C53.6323 36.4669 53.5203 36.5711 53.3827 36.6251L48.4815 38.564L52.6097 37.5737C52.7527 37.5393 52.9034 37.5602 53.0317 37.6322C53.1599 37.7042 53.2563 37.822 53.3014 37.962C53.3464 38.102 53.337 38.2539 53.2749 38.3872C53.2128 38.5206 53.1026 38.6255 52.9664 38.681L47.1918 41.0412L52.1408 39.8563C52.2841 39.8236 52.4344 39.8462 52.5618 39.9196C52.6891 39.993 52.7841 40.1118 52.8276 40.2522C52.8712 40.3926 52.8601 40.5442 52.7967 40.6768C52.7332 40.8094 52.622 40.9132 52.4854 40.9673L47.2683 42.9659C47.38 43.0027 47.4781 43.0724 47.5495 43.1659C47.6209 43.2594 47.6623 43.3723 47.6684 43.4898C47.6745 43.6073 47.6449 43.7239 47.5835 43.8243C47.5222 43.9246 47.4319 44.0041 47.3245 44.0523L44.7186 45.219L46.4043 44.8161C46.5464 44.7814 46.6964 44.8014 46.8245 44.872C46.9526 44.9427 47.0494 45.0589 47.0959 45.1976C47.1423 45.3363 47.1349 45.4874 47.0752 45.621C47.0155 45.7545 46.9077 45.8607 46.7734 45.9186L44.6368 46.8449L45.9009 46.542C46.0424 46.5088 46.1912 46.5296 46.3182 46.6003C46.4452 46.671 46.5412 46.7866 46.5874 46.9244C46.6336 47.0622 46.6267 47.2123 46.5681 47.3453C46.5094 47.4783 46.4032 47.5846 46.2703 47.6434L43.999 48.6381L45.3851 48.3057C45.5273 48.2716 45.677 48.2922 45.8047 48.3634C45.9325 48.4345 46.0288 48.551 46.0747 48.6898C46.1206 48.8286 46.1127 48.9796 46.0526 49.1128C45.9925 49.2461 45.8845 49.3519 45.7501 49.4094L43.8118 50.2375L44.8976 49.9779C45.0366 49.946 45.1825 49.9661 45.3077 50.0344C45.4329 50.1028 45.5287 50.2147 45.577 50.3489C45.6254 50.4831 45.6228 50.6304 45.5699 50.7628C45.517 50.8953 45.4173 51.0038 45.2898 51.0678L41.6109 52.8655L44.2318 52.2349C44.3752 52.2013 44.5261 52.2232 44.6541 52.2963C44.7821 52.3693 44.8777 52.4881 44.9217 52.6288C44.9656 52.7695 44.9547 52.9216 44.8912 53.0545C44.8276 53.1875 44.716 53.2914 44.5789 53.3455L44.0852 53.5373C44.1871 53.5546 44.2827 53.5986 44.362 53.6649C44.4413 53.7312 44.5016 53.8174 44.5367 53.9146C44.5843 54.0507 44.5798 54.1995 44.5242 54.3324C44.4686 54.4653 44.3658 54.5729 44.2355 54.6346L40.8953 56.2176L43.231 55.6582C43.3713 55.6222 43.52 55.6397 43.6481 55.7073C43.7762 55.7749 43.8745 55.8878 43.924 56.0239C43.9735 56.16 43.9706 56.3097 43.9158 56.4438C43.8611 56.5779 43.7584 56.6868 43.6277 56.7494L39.6613 58.7368L42.533 58.048C42.6748 58.0145 42.8239 58.0353 42.9511 58.1061C43.0783 58.177 43.1744 58.2929 43.2205 58.431C43.2666 58.5691 43.2594 58.7195 43.2003 58.8526C43.1412 58.9856 43.0344 59.0918 42.901 59.1502L40.7383 60.0906L44.5376 59.1793C44.6794 59.1464 44.8283 59.1678 44.9552 59.2391C45.082 59.3104 45.1776 59.4266 45.2232 59.5648C45.2688 59.703 45.2611 59.8533 45.2016 59.9861C45.1421 60.1189 45.035 60.2247 44.9015 60.2826L40.3676 62.2101L47.5555 60.4882C47.7002 60.4554 47.8519 60.479 47.9798 60.5542C48.1076 60.6293 48.2021 60.7504 48.2439 60.8927C48.2857 61.035 48.2717 61.1879 48.2048 61.3203C48.1379 61.4527 48.0231 61.5546 47.8837 61.6053L41.3821 63.8812C41.4326 63.9393 41.4708 64.0069 41.4947 64.0801C41.5407 64.2187 41.533 64.3695 41.4732 64.5027C41.4134 64.6359 41.3058 64.7419 41.1717 64.7996L39.3259 65.5907L40.3421 65.3482C40.4845 65.3154 40.6339 65.3372 40.7609 65.4093C40.888 65.4814 40.9833 65.5985 41.0282 65.7375C41.073 65.8765 41.0641 66.0273 41.0032 66.16C40.9423 66.2927 40.8338 66.3978 40.6991 66.4544L39.4811 66.9547L39.9198 66.85C40.0585 66.8189 40.2038 66.8396 40.3284 66.9081C40.4529 66.9767 40.5482 67.0883 40.5962 67.2221C40.6442 67.3559 40.6418 67.5026 40.5892 67.6347C40.5367 67.7668 40.4377 67.8752 40.3109 67.9395L36.7183 69.6801L42.4696 68.3011C42.6133 68.267 42.7647 68.2888 42.8931 68.362C43.0214 68.4352 43.1172 68.5543 43.1611 68.6954C43.205 68.8365 43.1937 68.989 43.1295 69.1221C43.0653 69.2552 42.953 69.359 42.8153 69.4125L39.9416 70.5181L44.8509 69.3397C44.9952 69.304 45.1476 69.3248 45.2771 69.3978C45.4066 69.4707 45.5034 69.5903 45.5476 69.7322C45.5919 69.8741 45.5804 70.0276 45.5153 70.1612C45.4503 70.2949 45.3367 70.3986 45.1977 70.4514L38.6283 72.9968C38.6797 73.049 38.721 73.1104 38.7499 73.1777C38.8039 73.3041 38.8115 73.4455 38.7714 73.577C38.7313 73.7085 38.646 73.8216 38.5307 73.8963L37.1723 74.7834C37.2863 74.8302 37.3826 74.912 37.4472 75.0169C37.5119 75.1219 37.5416 75.2446 37.5322 75.3675C37.5228 75.4904 37.4746 75.6071 37.3948 75.701C37.3149 75.7948 37.2073 75.861 37.0875 75.8899L34.419 76.5295C34.3194 76.5533 34.2153 76.5506 34.1171 76.5215Z" fill="#F4B241"/>
<path d="M64.5454 76.6317C64.4222 76.5952 64.3146 76.5191 64.2392 76.4152C64.1638 76.3113 64.1247 76.1854 64.1281 76.057C64.1315 75.9286 64.1772 75.805 64.2581 75.7052C64.3389 75.6055 64.4504 75.5352 64.5753 75.5052L69.21 74.395C69.2856 74.3735 69.3649 74.3674 69.4429 74.3772C69.521 74.3871 69.5963 74.4126 69.6642 74.4523C69.7321 74.4919 69.7913 74.5449 69.8383 74.6081C69.8852 74.6713 69.9188 74.7432 69.9372 74.8197C69.9556 74.8962 69.9583 74.9757 69.9452 75.0532C69.9321 75.1308 69.9034 75.2049 69.8609 75.2711C69.8184 75.3373 69.7629 75.3943 69.6979 75.4385C69.6328 75.4827 69.5595 75.5133 69.4823 75.5284L64.8475 76.6386C64.748 76.6629 64.6437 76.6605 64.5454 76.6317Z" fill="#F4B241"/>
<path d="M64.7412 67.3138C64.6181 67.2773 64.5105 67.2012 64.4351 67.0973C64.3596 66.9934 64.3206 66.8675 64.324 66.7391C64.3274 66.6107 64.3731 66.4871 64.4539 66.3873C64.5348 66.2876 64.6463 66.2173 64.7711 66.1873L69.3747 65.0837C69.5223 65.0548 69.6755 65.084 69.8021 65.1653C69.9287 65.2465 70.019 65.3736 70.0541 65.5199C70.0893 65.6662 70.0665 65.8204 69.9907 65.9503C69.9148 66.0802 69.7917 66.1758 69.647 66.2171L65.0423 67.3204C64.9431 67.3446 64.8393 67.3423 64.7412 67.3138Z" fill="#F4B241"/>
<path d="M63.3995 33.8428C63.286 33.8092 63.1854 33.7418 63.1111 33.6497C63.0368 33.5576 62.9923 33.445 62.9835 33.327C62.9747 33.209 63.0019 33.0911 63.0617 32.9889C63.1215 32.8868 63.2109 32.8052 63.3181 32.7551L67.5311 30.7897L65.6265 31.2457C65.4852 31.2794 65.3365 31.2592 65.2094 31.1891C65.0822 31.119 64.9858 31.004 64.9389 30.8666C64.8921 30.7291 64.8982 30.5792 64.956 30.446C65.0138 30.3128 65.1192 30.206 65.2516 30.1464L66.4843 29.5969L65.8148 29.7573C65.678 29.7909 65.5336 29.7738 65.4083 29.7092C65.2831 29.6446 65.1855 29.5368 65.1335 29.4058C65.0816 29.2748 65.0788 29.1295 65.1257 28.9966C65.1726 28.8637 65.2661 28.7523 65.3888 28.683L67.7113 27.3554L65.3797 27.9136C65.2465 27.9446 65.1068 27.9278 64.9848 27.8662C64.8628 27.8047 64.7662 27.7022 64.712 27.5768C64.6578 27.4513 64.6494 27.3108 64.6882 27.1798C64.727 27.0488 64.8106 26.9355 64.9244 26.8598L67.0532 25.4675L64.0078 26.1961C63.8705 26.2273 63.7266 26.2079 63.6026 26.1414C63.4785 26.0749 63.3827 25.9657 63.3328 25.8341C63.2829 25.7025 63.2823 25.5573 63.331 25.4252C63.3798 25.2932 63.4746 25.1832 63.5981 25.1156L64.6527 24.551L61.7845 25.236C61.6368 25.265 61.4837 25.2358 61.3571 25.1545C61.2305 25.0732 61.1402 24.9461 61.105 24.7998C61.0699 24.6536 61.0926 24.4993 61.1685 24.3694C61.2444 24.2395 61.3675 24.1439 61.5122 24.1026L68.7692 22.3611C68.9065 22.3298 69.0504 22.3493 69.1745 22.4158C69.2985 22.4823 69.3943 22.5914 69.4442 22.7231C69.4941 22.8547 69.4948 22.9999 69.446 23.1319C69.3972 23.264 69.3024 23.3739 69.1789 23.4415L68.1251 24.0076L70.0484 23.5461C70.1818 23.5146 70.3221 23.531 70.4446 23.5926C70.5671 23.6541 70.664 23.7569 70.7183 23.8828C70.7726 24.0087 70.7808 24.1497 70.7415 24.281C70.7022 24.4124 70.6179 24.5257 70.5034 24.601L68.3758 25.9973L71.4047 25.2712C71.5409 25.2392 71.6841 25.2573 71.8081 25.322C71.9321 25.3868 72.0287 25.494 72.0803 25.6241C72.1318 25.7542 72.1349 25.8985 72.089 26.0306C72.043 26.1628 71.9511 26.2741 71.83 26.3441L69.5085 27.6719L72.3534 26.9958C72.4943 26.9632 72.6422 26.9841 72.7686 27.0544C72.8949 27.1247 72.9907 27.2394 73.0372 27.3763C73.0838 27.5132 73.0778 27.6625 73.0205 27.7953C72.9632 27.9281 72.8587 28.0348 72.7271 28.0948L71.493 28.6451L72.8722 28.3155C73.0123 28.2829 73.1594 28.3031 73.2855 28.3724C73.4115 28.4416 73.5075 28.555 73.5551 28.6907C73.6027 28.8265 73.5984 28.975 73.5432 29.1077C73.4879 29.2405 73.3856 29.3482 73.2558 29.4101L69.0459 31.3692L73.3572 30.3359C73.5072 30.3009 73.665 30.3268 73.796 30.4078C73.9271 30.4887 74.0208 30.6182 74.0567 30.768C74.0926 30.9178 74.0678 31.0758 73.9877 31.2073C73.9076 31.3389 73.7787 31.4335 73.6291 31.4704L63.7013 33.8508C63.6018 33.8753 63.4976 33.8725 63.3995 33.8428Z" fill="#F4B241"/>
<path d="M58.7085 80.9486C58.5988 80.9158 58.5012 80.8514 58.4278 80.7636C58.3544 80.6757 58.3085 80.5681 58.2958 80.4543C58.2831 80.3406 58.3042 80.2255 58.3564 80.1236C58.4086 80.0217 58.4897 79.9375 58.5894 79.8813L59.4287 79.411L57.49 79.8752C57.3463 79.9099 57.1948 79.8887 57.0662 79.8159C56.9375 79.7432 56.8413 79.6244 56.7969 79.4834C56.7525 79.3425 56.7632 79.1899 56.8269 79.0566C56.8907 78.9232 57.0026 78.8191 57.1402 78.7651L61.4945 77.0412L56.7665 78.1748C56.6241 78.2076 56.4747 78.1858 56.3477 78.1137C56.2206 78.0416 56.1253 77.9245 56.0804 77.7855C56.0356 77.6465 56.0445 77.4957 56.1054 77.363C56.1663 77.2303 56.2748 77.1252 56.4095 77.0686L62.0696 74.7536L56.7666 76.0245C56.6299 76.0565 56.4862 76.0381 56.362 75.9727C56.2378 75.9073 56.1413 75.7992 56.0903 75.6684C56.0393 75.5376 56.0372 75.3928 56.0844 75.2605C56.1315 75.1283 56.2248 75.0175 56.3471 74.9485L59.7927 73.0268L56.8106 73.7388C56.6729 73.7725 56.5277 73.755 56.4021 73.6894C56.2764 73.6239 56.1789 73.5149 56.1278 73.3827C56.0767 73.2505 56.0754 73.1042 56.1243 72.9712C56.1731 72.8382 56.2687 72.7275 56.3932 72.6598L59.5755 70.9119L56.8497 71.5637C56.7076 71.5984 56.5577 71.5784 56.4296 71.5078C56.3015 71.4371 56.2046 71.3209 56.1582 71.1822C56.1118 71.0435 56.1191 70.8924 56.1789 70.7588C56.2386 70.6253 56.3463 70.5191 56.4807 70.4612L57.3725 70.0723L56.8733 70.1919C56.7299 70.2241 56.5796 70.2009 56.4525 70.1271C56.3254 70.0532 56.2309 69.9341 56.1879 69.7935C56.1448 69.653 56.1564 69.5014 56.2204 69.369C56.2843 69.2366 56.3959 69.1333 56.5327 69.0796L60.6142 67.5413L56.9014 68.4357C56.7594 68.4695 56.61 68.4488 56.4825 68.3778C56.3551 68.3068 56.2589 68.1906 56.2129 68.0522C56.1669 67.9137 56.1744 67.763 56.234 67.6299C56.2936 67.4967 56.401 67.3907 56.5349 67.3328L62.7559 64.6451L56.9438 66.0364C56.8054 66.0688 56.66 66.0495 56.5348 65.9822C56.4096 65.9149 56.3133 65.8043 56.2639 65.671C56.2145 65.5377 56.2155 65.391 56.2667 65.2584C56.3178 65.1258 56.4156 65.0165 56.5417 64.9509L59.2226 63.5764L56.9777 64.1128C56.835 64.1474 56.6845 64.127 56.5563 64.0556C56.428 63.9842 56.3313 63.8671 56.2856 63.7276C56.2399 63.5881 56.2485 63.4364 56.3096 63.303C56.3708 63.1695 56.48 63.064 56.6155 63.0075L56.9582 62.8657C56.8239 62.8864 56.6865 62.8602 56.5693 62.7915C56.452 62.7228 56.362 62.6158 56.3143 62.4886C56.2657 62.3535 56.2685 62.2052 56.3224 62.0721C56.3762 61.939 56.4773 61.8304 56.6062 61.7671L58.9079 60.633L57.0307 61.0826C56.8949 61.1146 56.752 61.0969 56.6281 61.0326C56.5043 60.9682 56.4075 60.8616 56.3555 60.7321C56.3036 60.6025 56.2997 60.4587 56.3448 60.3265C56.3899 60.1944 56.4808 60.0828 56.6011 60.0121L60.1797 57.929L57.075 58.6729C56.9347 58.7088 56.786 58.6913 56.6579 58.6237C56.5298 58.5561 56.4314 58.4432 56.3819 58.3071C56.3325 58.171 56.3354 58.0213 56.3901 57.8872C56.4449 57.7531 56.5476 57.6442 56.6783 57.5817L59.1506 56.34L57.1083 56.8294C56.9709 56.8622 56.8263 56.8441 56.7012 56.7784C56.5762 56.7127 56.4793 56.6038 56.4284 56.472C56.3776 56.3403 56.3763 56.1945 56.4247 56.0618C56.4732 55.9292 56.5682 55.8186 56.692 55.7506L59.8513 54.0227L57.1462 54.6709C57.0085 54.7046 56.8633 54.687 56.7376 54.6215C56.612 54.5559 56.5145 54.4469 56.4634 54.3147C56.4123 54.1825 56.411 54.0363 56.4598 53.9032C56.5087 53.7702 56.6043 53.6595 56.7288 53.5918L59.9257 51.8397L57.1893 52.4945C57.0479 52.5342 56.8967 52.5191 56.7659 52.4522C56.6351 52.3852 56.5344 52.2714 56.4839 52.1335C56.4334 51.9956 56.4367 51.8436 56.4934 51.7081C56.55 51.5725 56.6556 51.4633 56.7893 51.4023L59.414 50.061L57.2241 50.5845C57.0872 50.6165 56.9435 50.598 56.8192 50.5324C56.6949 50.4668 56.5984 50.3586 56.5476 50.2276C56.4967 50.0966 56.4948 49.9516 56.5423 49.8193C56.5898 49.6871 56.6835 49.5764 56.8061 49.5077L60.0237 47.7265L57.2516 48.3913C57.1099 48.4248 56.9608 48.404 56.8335 48.3332C56.7063 48.2623 56.6102 48.1464 56.5641 48.0083C56.518 47.8702 56.5252 47.7198 56.5843 47.5867C56.6435 47.4536 56.7502 47.3475 56.8836 47.2891L62.6656 44.7851L57.2944 46.0724C57.1504 46.1069 56.9985 46.0854 56.8697 46.0121C56.741 45.9388 56.6449 45.8192 56.6011 45.6776C56.5573 45.5361 56.569 45.3832 56.6338 45.2499C56.6986 45.1167 56.8117 45.0131 56.9502 44.9602L62.7112 42.7689L54.9388 44.6313C54.7934 44.6654 54.6404 44.6424 54.5115 44.567C54.3825 44.4916 54.2874 44.3697 54.2457 44.2263C54.204 44.0828 54.2189 43.9289 54.2873 43.7961C54.3557 43.6633 54.4725 43.5619 54.6135 43.5126L60.8378 41.3759L52.92 43.2732C52.7734 43.3089 52.6187 43.2863 52.4884 43.2103C52.358 43.1344 52.2622 43.0108 52.221 42.8657C52.1798 42.7205 52.1964 42.5651 52.2674 42.4319C52.3384 42.2988 52.4582 42.1984 52.6016 42.1517L59.6351 39.8388L51.4053 41.8114C51.259 41.8446 51.1055 41.82 50.9767 41.7429C50.848 41.6657 50.754 41.542 50.7141 41.3973C50.6743 41.2526 50.6918 41.0981 50.7629 40.966C50.8341 40.8338 50.9534 40.7342 51.0961 40.6878L56.9319 38.8678L50.3673 40.4412C50.2179 40.4814 50.0586 40.4606 49.9245 40.3834C49.7904 40.3062 49.6924 40.1789 49.6522 40.0295C49.612 39.8801 49.6327 39.7208 49.7099 39.5867C49.7871 39.4526 49.9145 39.3546 50.0639 39.3144L52.7745 38.5084L49.6668 39.2501C49.5256 39.2823 49.3776 39.2608 49.2514 39.1899C49.1252 39.119 49.0299 39.0037 48.984 38.8664C48.9381 38.7291 48.9448 38.5797 49.003 38.4471C49.0611 38.3146 49.1664 38.2083 49.2985 38.1491L53.9075 36.149L48.881 37.3535C48.7369 37.3881 48.585 37.3665 48.4563 37.2932C48.3275 37.2199 48.2315 37.1003 48.1876 36.9588C48.1438 36.8172 48.1555 36.6643 48.2203 36.5311C48.2852 36.3978 48.3983 36.2943 48.5367 36.2414L49.5934 35.838L48.5376 36.0907C48.3959 36.1249 48.2466 36.1048 48.119 36.0344C47.9914 35.964 47.8948 35.8484 47.8482 35.7104C47.8015 35.5723 47.8082 35.4218 47.867 35.2885C47.9257 35.1551 48.0323 35.0486 48.1656 34.9898L50.8079 33.8192L48.3055 34.4156C48.1683 34.4468 48.0244 34.4274 47.9003 34.3609C47.7763 34.2944 47.6804 34.1852 47.6305 34.0536C47.5806 33.922 47.58 33.7768 47.6288 33.6448C47.6775 33.5127 47.7724 33.4027 47.8959 33.3351L51.9605 31.1602L48.3438 32.026C48.2021 32.0602 48.0528 32.0401 47.9252 31.9697C47.7977 31.8993 47.701 31.7837 47.6544 31.6456C47.6077 31.5076 47.6145 31.3571 47.6732 31.2237C47.732 31.0904 47.8385 30.9838 47.9718 30.9251L50.3719 29.8615L48.6507 30.2734C48.5094 30.3058 48.361 30.2843 48.2346 30.2133C48.1082 30.1422 48.0128 30.0266 47.967 29.889C47.9212 29.7515 47.9283 29.6018 47.9869 29.4691C48.0455 29.3365 48.1513 29.2304 48.2839 29.1716L51.5484 27.7657L49.3212 28.3001C49.1756 28.3338 49.0225 28.3104 48.8937 28.2346C48.7648 28.1588 48.67 28.0364 48.6288 27.8927C48.5876 27.749 48.6031 27.5949 48.6721 27.4624C48.7412 27.3298 48.8585 27.2288 48.9999 27.1802L54.3735 25.3801L50.4016 26.3316C50.258 26.3647 50.1072 26.3422 49.9795 26.2687C49.8518 26.1951 49.7566 26.076 49.7132 25.9352C49.6697 25.7944 49.6812 25.6423 49.7452 25.5096C49.8092 25.3769 49.9212 25.2733 50.0584 25.2197L55.459 23.1563L52.5766 23.848C52.433 23.8827 52.2815 23.8615 52.1529 23.7888C52.0242 23.716 51.928 23.5972 51.8836 23.4562C51.8391 23.3153 51.8499 23.1627 51.9136 23.0294C51.9773 22.8961 52.0893 22.7919 52.2269 22.7379L54.8776 21.6988C54.8194 21.6215 54.7813 21.5309 54.7667 21.4352C54.7522 21.3395 54.7617 21.2417 54.7944 21.1506C54.8271 21.0595 54.882 20.978 54.954 20.9134C55.0261 20.8487 55.1131 20.8031 55.2072 20.7805L60.4197 19.5277C60.5657 19.4861 60.7222 19.503 60.8559 19.5749C60.9896 19.6468 61.09 19.768 61.1358 19.9128C61.1816 20.0575 61.1691 20.2144 61.1011 20.3501C61.033 20.4859 60.9147 20.5897 60.7714 20.6396L60.4838 20.7515L63.9369 19.9284C64.081 19.8939 64.2329 19.9154 64.3617 19.9887C64.4904 20.0621 64.5865 20.1816 64.6303 20.3232C64.6741 20.4647 64.6624 20.6176 64.5976 20.7509C64.5328 20.8841 64.4197 20.9877 64.2812 21.0406L58.8816 23.1007L66.9957 21.157C67.1413 21.1232 67.2944 21.1467 67.4232 21.2225C67.5521 21.2983 67.6469 21.4207 67.6881 21.5644C67.7293 21.7081 67.7138 21.8621 67.6448 21.9947C67.5757 22.1273 67.4584 22.2283 67.317 22.2769L58.4791 25.2374C58.527 25.2946 58.5637 25.3604 58.5871 25.4313C58.6332 25.5698 58.6258 25.7205 58.5662 25.8538C58.5066 25.9871 58.3992 26.0932 58.2652 26.1511L55.0057 27.5524L56.3339 27.2345C56.475 27.2017 56.6232 27.2225 56.7498 27.293C56.8763 27.3634 56.9721 27.4784 57.0186 27.6156C57.065 27.7528 57.0588 27.9024 57.001 28.0352C56.9433 28.168 56.8382 28.2746 56.7062 28.3343L54.2981 29.4003L56.086 28.9729C56.2232 28.9417 56.3672 28.9611 56.4912 29.0276C56.6152 29.0941 56.7111 29.2033 56.761 29.3349C56.8109 29.4665 56.8115 29.6117 56.7627 29.7438C56.714 29.8758 56.6191 29.9858 56.4957 30.0534L52.4321 32.2286L56.7435 31.1953C56.8851 31.1612 57.0344 31.1812 57.162 31.2516C57.2896 31.322 57.3863 31.4376 57.4329 31.5757C57.4795 31.7137 57.4728 31.8642 57.4141 31.9976C57.3553 32.1309 57.2488 32.2375 57.1154 32.2962L54.4757 33.4664L58.0506 32.6101C58.1947 32.5755 58.3466 32.5971 58.4753 32.6704C58.6041 32.7437 58.7001 32.8633 58.744 33.0048C58.7878 33.1464 58.7761 33.2993 58.7113 33.4326C58.6464 33.5658 58.5333 33.6694 58.3949 33.7223L57.3368 34.1264L60.1361 33.4563C60.2772 33.4241 60.4253 33.4456 60.5515 33.5165C60.6776 33.5874 60.7729 33.7027 60.8189 33.84C60.8648 33.9773 60.858 34.1267 60.7999 34.2593C60.7418 34.3918 60.6364 34.498 60.5044 34.5573L55.8953 36.5573L73.5007 32.3386C73.6471 32.3066 73.8003 32.3323 73.9283 32.4102C74.0564 32.4881 74.1496 32.6123 74.1885 32.757C74.2274 32.9018 74.2091 33.056 74.1374 33.1876C74.0657 33.3192 73.9461 33.4182 73.8033 33.464L71.0972 34.2713L73.4215 33.7134C73.5687 33.6778 73.7239 33.7009 73.8544 33.7778C73.9849 33.8546 74.0804 33.9792 74.1207 34.1251C74.161 34.2711 74.143 34.427 74.0704 34.5599C73.9978 34.6928 73.8764 34.7923 73.7318 34.8374L67.8987 36.6605L73.1212 35.4107C73.2678 35.3751 73.4226 35.3976 73.5529 35.4736C73.6833 35.5495 73.7791 35.6731 73.8203 35.8182C73.8615 35.9634 73.8449 36.1188 73.7739 36.252C73.7029 36.3851 73.5831 36.4856 73.4396 36.5322L66.4051 38.8448L72.432 37.3979C72.5774 37.3639 72.7304 37.3869 72.8594 37.4623C72.9883 37.5376 73.0835 37.6596 73.1252 37.803C73.1669 37.9464 73.152 38.1004 73.0835 38.2332C73.0151 38.3659 72.8983 38.4674 72.7573 38.5166L66.5371 40.6521L71.2597 39.5205C71.4038 39.486 71.5556 39.5075 71.6844 39.5808C71.8132 39.6541 71.9092 39.7737 71.953 39.9153C71.9968 40.0568 71.9851 40.2097 71.9203 40.343C71.8555 40.4762 71.7424 40.5798 71.604 40.6327L65.8426 42.8252L68.9115 42.0914C69.0532 42.0579 69.2023 42.0786 69.3295 42.1495C69.4567 42.2204 69.5528 42.3363 69.599 42.4744C69.6451 42.6125 69.6378 42.7629 69.5787 42.896C69.5196 43.029 69.4128 43.1352 69.2794 43.1935L63.5026 45.6966L63.9259 45.5946C64.0632 45.5618 64.2077 45.5799 64.3326 45.6454C64.4576 45.711 64.5545 45.8196 64.6055 45.9512C64.6565 46.0828 64.6581 46.2284 64.6099 46.361C64.5618 46.4937 64.4672 46.6043 64.3436 46.6726L61.1129 48.4608L63.8899 47.7963C63.9617 47.7696 64.038 47.7574 64.1146 47.7603C64.1911 47.7631 64.2664 47.7811 64.336 47.813C64.4056 47.845 64.4683 47.8903 64.5204 47.9465C64.5725 48.0027 64.613 48.0685 64.6396 48.1404C64.6663 48.2122 64.6785 48.2885 64.6756 48.3651C64.6727 48.4416 64.6548 48.5169 64.6229 48.5865C64.5909 48.6561 64.5456 48.7188 64.4894 48.7709C64.4332 48.823 64.3674 48.8635 64.2955 48.8901L61.6693 50.2322L63.8636 49.7063C64.0008 49.6735 64.1453 49.6916 64.2703 49.7571C64.3952 49.8227 64.4922 49.9313 64.5432 50.0629C64.5942 50.1945 64.5957 50.3401 64.5476 50.4727C64.4994 50.6054 64.4048 50.7161 64.2813 50.7843L61.0841 52.5375L63.8244 51.8815C63.9618 51.8486 64.1064 51.8668 64.2315 51.9325C64.3565 51.9982 64.4534 52.1071 64.5043 52.2388C64.5551 52.3706 64.5564 52.5164 64.508 52.649C64.4595 52.7817 64.3645 52.8923 64.2407 52.9602L61.0861 54.6847L63.795 54.0279C63.9353 53.9919 64.084 54.0095 64.2121 54.0771C64.3402 54.1447 64.4386 54.2575 64.4881 54.3936C64.5376 54.5298 64.5346 54.6794 64.4799 54.8135C64.4251 54.9476 64.3224 55.0566 64.1917 55.1191L61.7216 56.3615L63.7662 55.8727C63.9021 55.8407 64.0449 55.8584 64.1688 55.9228C64.2927 55.9871 64.3894 56.0937 64.4414 56.2232C64.4934 56.3528 64.4972 56.4967 64.4521 56.6288C64.4071 56.7609 64.3162 56.8725 64.1958 56.9433L60.6179 59.024L63.7266 58.279C63.866 58.2461 64.0125 58.2656 64.1384 58.3338C64.2643 58.402 64.3607 58.5141 64.4093 58.6487C64.4579 58.7834 64.4552 58.9312 64.4019 59.0641C64.3486 59.1969 64.2482 59.3055 64.12 59.3692L61.8126 60.5101L63.6964 60.0589C63.8386 60.0255 63.9883 60.0467 64.1156 60.1183C64.243 60.1899 64.3388 60.3067 64.3842 60.4456C64.4296 60.5845 64.4212 60.7353 64.3607 60.8683C64.3002 61.0013 64.1919 61.1068 64.0574 61.1638L63.7182 61.3066C63.8555 61.2839 63.9963 61.3111 64.1153 61.3832C64.2343 61.4553 64.3236 61.5676 64.3671 61.6998C64.4106 61.832 64.4054 61.9753 64.3525 62.104C64.2996 62.2327 64.2024 62.3382 64.0785 62.4016L61.3987 63.7764L69.0348 61.9466C69.1762 61.9142 69.3245 61.9356 69.4509 62.0067C69.5773 62.0777 69.6727 62.1933 69.7185 62.3309C69.7643 62.4685 69.7572 62.6182 69.6986 62.7508C69.6401 62.8835 69.5342 62.9895 69.4017 63.0484L63.18 65.7383L69.3934 64.2494C69.5373 64.2159 69.6886 64.2382 69.8167 64.3118C69.9448 64.3855 70.0402 64.505 70.0835 64.6463C70.1269 64.7875 70.1151 64.94 70.0504 65.0728C69.9857 65.2057 69.8731 65.3091 69.7351 65.3621L64.0179 67.5165C64.1099 67.5862 64.1786 67.6821 64.215 67.7916C64.2615 67.9299 64.2545 68.0806 64.1953 68.214C64.1362 68.3474 64.0292 68.4538 63.8954 68.5121L63.0069 68.8984L63.52 68.7768C63.657 68.7448 63.8009 68.7634 63.9252 68.8291C64.0496 68.8948 64.146 69.0033 64.1967 69.1345C64.2475 69.2657 64.2491 69.4108 64.2013 69.5431C64.1535 69.6754 64.0595 69.7859 63.9366 69.8544L60.756 71.5967L63.639 70.9027C63.7761 70.8699 63.9205 70.8879 64.0454 70.9533C64.1702 71.0187 64.2672 71.1271 64.3183 71.2585C64.3695 71.3899 64.3713 71.5354 64.3235 71.668C64.2756 71.8006 64.1814 71.9114 64.0582 71.9799L60.6126 73.9016L69.2052 71.8419C69.3476 71.8091 69.497 71.8309 69.6241 71.903C69.7511 71.9751 69.8464 72.0922 69.8913 72.2312C69.9362 72.3702 69.9272 72.5209 69.8663 72.6537C69.8054 72.7864 69.6969 72.8915 69.5622 72.9481L63.9032 75.2634L69.2128 73.9908C69.3557 73.9579 69.5058 73.9801 69.6331 74.0529C69.7604 74.1257 69.8556 74.2438 69.8998 74.3837C69.9439 74.5235 69.9338 74.6749 69.8713 74.8076C69.8089 74.9403 69.6988 75.0446 69.5629 75.0998L63.7547 77.4049C63.8368 77.469 63.8999 77.5541 63.9372 77.6513C63.9884 77.7823 63.9905 77.9274 63.9431 78.0598C63.8958 78.1922 63.8022 78.3031 63.6796 78.372L62.6575 78.9462C62.7638 78.9717 62.8611 79.0255 62.9392 79.1021C63.0172 79.1786 63.073 79.2749 63.1006 79.3806C63.1366 79.5311 63.1114 79.6897 63.0306 79.8216C62.9497 79.9534 62.8197 80.0478 62.6693 80.0839L59.0087 80.9622C58.9092 80.9845 58.8056 80.9798 58.7085 80.9486Z" fill="#F4B241"/>
<path d="M69.3636 71.3779C67.8447 70.8824 66.1035 71.2384 64.5284 71.0925C64.5542 69.7583 64.5806 68.4235 64.6075 67.088C66.9493 66.988 71.1179 68.1673 70.4863 64.3888C71.1253 60.9422 66.8191 61.9418 64.6966 61.7539C64.8248 56.2879 64.8934 50.719 65.0288 45.3025C74.7176 43.2272 77.8678 29.4602 70.2257 23.1788C71.2706 22.8888 70.4611 23.3776 69.0042 22.23C66.4788 23.9889 71.8758 21.1228 69.0042 22.23C67.2156 21.006 65.1759 20.1975 63.0344 19.8636C60.8929 19.5297 58.7039 19.6789 56.6275 20.3002C54.7393 18.7843 52.5076 17.7556 50.1286 17.3046C47.7496 16.8536 45.2961 16.994 42.9841 17.7136C41.6746 15.4957 39.781 13.6802 37.51 12.4651C35.239 11.2501 32.6779 10.6822 30.1061 10.8235C28.0702 8.18094 31.5336 13.8386 30.1061 10.8235C26.5312 11.3731 27.5905 10.0408 28.3047 11.0096C18.5916 12.2271 13.5738 25.1274 20.3708 32.3093C19.4502 33.9184 18.4349 35.4714 17.3302 36.9601C12.8781 43.7669 8.42848 50.574 3.98116 57.3813C2.93949 58.9732 1.69978 60.5598 2.62952 62.5782C4.06172 65.6145 8.90553 65.625 10.5533 62.8598C12.2998 63.9461 14.8172 66.4294 16.6781 64.2092C17.9408 62.6927 18.9992 61.0936 16.6495 59.9732C15.7463 59.3089 14.808 58.6938 13.8386 58.1306C13.4672 57.9426 13.5415 58.2336 13.8194 57.9205C14.4862 57.0097 15.0408 55.9974 15.689 55.0677C18.4634 57.0905 21.2001 58.8307 22.9594 54.6103C23.9597 52.4111 20.0407 51.4324 18.8139 50.2106C21.8081 45.7529 24.7167 41.2393 27.6758 36.7444C30.2611 37.329 32.9556 37.2138 35.4815 36.4105C36.5337 38.2301 37.9937 39.7807 39.7466 40.9406C38.6608 45.4216 36.9523 49.9139 35.7468 54.4252L31.2029 69.7442C30.6502 71.6076 29.9673 73.5529 31.6207 75.1543C34.0182 77.3854 38.635 76.4342 39.2788 73.045C42.936 74.3732 46.1272 75.1798 46.0041 70.0396C44.9286 68.4964 42.447 68.6656 40.8092 67.9267C41.2565 66.6977 41.5297 65.3416 41.9518 64.0746C45.0423 65.04 48.2768 66.5214 48.6836 61.8925C49.0212 59.5235 44.6025 59.7864 43.2056 58.8998C43.5456 59.3658 43.811 57.8065 43.887 57.5504L48.1668 43.1218C49.332 43.0671 50.4877 42.8851 51.6134 42.5791C58.3078 47.9077 56.0225 41.4458 56.1224 53.1298C55.9985 61.0224 55.7661 68.9157 55.6699 76.8093C55.634 77.8352 55.9927 78.8359 56.6722 79.6054C57.3516 80.3749 58.3002 80.8546 59.3227 80.946C59.9722 81.0864 60.6457 81.0715 61.2883 80.9024C61.931 80.7333 62.5246 80.4148 63.0209 79.9729C63.5171 79.531 63.902 78.9781 64.1442 78.3593C64.3864 77.7405 64.479 77.0732 64.4145 76.4119C66.4497 76.2416 70.4798 77.5064 70.2921 74.2746C70.3144 73.1738 70.5739 71.9377 69.3636 71.3779ZM41.5311 18.2635C40.3606 18.7795 39.2715 19.4632 38.2981 20.2932C38.198 19.6346 37.9643 19.0035 37.6115 18.4384C37.2587 17.8734 36.7941 17.3864 36.2463 17.0074C34.2089 15.4034 32.3497 13.5852 30.7008 11.584C32.9477 11.5843 35.1503 12.2091 37.0627 13.3886C38.9752 14.568 40.5222 16.2558 41.5311 18.2635ZM31.15 24.7978C26.5501 22.2542 30.3998 14.2316 35.041 17.6453C35.6859 18.1942 36.1634 18.9134 36.4189 19.7209C36.6743 20.5283 36.6974 21.3913 36.4855 22.2113C35.9544 22.8633 35.5015 23.5751 35.1359 24.3324C34.6065 24.8219 33.9351 25.1303 33.2189 25.2131C32.5026 25.296 31.7786 25.149 31.1513 24.7933L31.15 24.7978ZM27.551 35.9261C27.2591 35.8395 26.4732 35.7732 26.26 36.0981C23.3834 40.873 19.5167 45.6585 17.1286 50.4397C18.4562 51.7364 22.9115 52.7695 20.8138 55.0825C20.7338 55.2048 20.0277 56.5676 19.9861 56.5808C19.8497 56.6304 19.1088 56.0103 18.9929 55.9333C17.6188 55.3432 16.0587 53.1524 14.4986 54.0879C13.8236 55.4611 12.2175 56.888 12.0226 58.2588C13.303 59.1363 14.668 59.9294 15.925 60.8158C16.6936 61.6133 16.1374 62.2247 15.6898 62.9133C15.4414 63.4078 15.1321 63.8692 14.7689 64.2867C13.1419 63.7615 11.1424 60.8818 9.38473 61.8925C8.07279 65.0848 4.39027 64.7202 4.0403 61.2394C4.4376 58.1933 7.10024 55.9408 8.49049 53.2805L22.0791 32.4947C16.1581 25.535 19.3585 13.3587 28.8714 11.7533C30.0513 13.2655 31.3649 14.6685 32.7963 15.9451C24.3242 16.1994 26.5216 28.0078 34.4894 25.8966C33.3902 29.0794 33.5983 32.5682 35.0679 35.5978C32.6706 36.5489 30.0225 36.663 27.5523 35.9217L27.551 35.9261ZM47.3395 42.678C47.1468 42.6793 46.5349 42.6377 46.4582 42.8961C45.1741 48.2346 42.5475 54.14 41.9256 59.2029C43.6383 60.0832 48.0869 59.7235 46.6854 62.6433C46.6522 62.7551 46.2785 64.7045 46.2978 64.6883C44.8692 64.3644 43.3001 63.7383 41.8451 63.3676C41.5767 63.288 40.4624 63.1059 40.346 63.4985L39.0189 67.9725C38.9924 68.062 39.2446 68.1429 39.2703 68.1505C40.983 69.0309 45.4317 68.6711 44.0301 71.591C43.997 71.7028 43.6232 73.6522 43.6426 73.636C42.213 73.3069 40.6464 72.6889 39.1898 72.3152C38.9214 72.2356 37.8072 72.0536 37.6907 72.4462C37.528 73.2942 37.184 74.0971 36.6822 74.7999C34.3011 77.4243 31.2747 73.7484 32.5303 71.1564C35.5072 61.0873 38.4938 51.0186 41.49 40.9502C33.0419 35.7161 33.895 22.1159 43.2672 18.4085C45.296 17.576 47.5237 17.3544 49.6767 17.771C51.8297 18.1875 53.814 19.2241 55.3858 20.7533C54.1422 21.2708 52.9827 21.9706 51.9454 22.8298C44.7875 18.1366 38.4082 29.1898 47.2496 31.5592C47.0584 33.4714 47.2957 35.4022 47.9443 37.2112C48.5928 39.0202 49.6362 40.662 50.9988 42.0172C49.8228 42.4317 48.5875 42.6534 47.3408 42.6735L47.3395 42.678ZM47.3442 30.8754C41.8034 28.632 46.162 18.9507 51.0615 23.6312C49.0817 25.5869 47.7794 28.1245 47.3448 30.8731L47.3442 30.8754ZM62.3065 78.661C60.6007 81.8763 56.8803 79.5802 57.4142 76.4797L58.0214 45.1358C40.5214 38.7427 51.4404 12.4994 67.7492 22.6949C64.23 24.467 59.6044 22.9988 56.7155 25.9156C53.2713 29.6253 57.208 35.5864 61.9551 34.5363C66.638 33.9284 68.1358 27.3937 64.0243 24.9718C65.6873 24.6814 67.3222 24.2482 68.9109 23.6772C76.0039 30.0536 72.824 42.7434 63.5422 45.0137C62.6968 50.3047 63.3015 56.4713 62.9408 62.0485C63.8898 62.8289 65.8524 62.2428 67.0964 62.4633C68.8285 62.1666 68.8773 62.8224 68.7423 64.3485C68.8171 65.5037 68.8444 66.8759 67.2038 66.483C65.9522 66.6533 63.8168 66.0041 62.8727 66.7255C62.8426 68.2791 62.8121 69.8318 62.781 71.3834C62.7759 71.6837 63.4857 71.7275 63.6512 71.7316C65.2231 71.9666 68.9219 70.6518 68.5775 73.3145C68.5655 74.0277 68.799 75.5707 67.8917 75.8358L63.5748 75.7515C63.3971 75.7475 62.6959 75.7524 62.6911 76.0516C62.7663 76.9394 62.6347 77.8326 62.3065 78.661ZM62.1383 33.1803C55.9821 34.9563 55.4542 24.3829 61.7244 25.3776C65.473 26.1925 65.7277 31.9389 62.1383 33.1803Z" fill="#F4B241" fill-opacity="0.73"/>
</g>
<defs>
<clipPath id="clip0_58_76">
<rect width="70" height="70" fill="white" transform="translate(19.9062) rotate(16.5213)"/>
</clipPath>
</defs>
</svg>
