<svg width="52" height="70" viewBox="0 0 52 70" fill="none" xmlns="http://www.w3.org/2000/svg">
<g clip-path="url(#clip0_69_67)">
<path d="M50.4064 25.3658C50.5021 32.482 47.4785 39.2867 42.1245 44.0044C39.1722 46.6427 37.4937 50.4109 37.5117 54.3598V54.8334C37.5117 56.1221 36.462 57.1668 35.1672 57.1668H16.4112C15.1164 57.1668 14.0667 56.1221 14.0667 54.8334V54.3586C14.0782 50.4008 12.392 46.6262 9.43162 43.9834C1.00136 36.5217 -1.25342 24.3117 3.96009 14.3543C9.17361 4.39694 20.5209 -0.758919 31.4957 1.84298C42.4705 4.44488 50.2635 14.1385 50.4064 25.3658Z" fill="#F4B241"/>
<path d="M16.4111 57.1667H35.1671V60.6667C35.1671 61.9554 34.1174 63.0001 32.8226 63.0001H18.7556C17.4608 63.0001 16.4111 61.9554 16.4111 60.6667V57.1667Z" fill="#BDC9D7"/>
<path d="M18.7559 63H32.8228V66.5C32.8228 67.7887 31.7732 68.8333 30.4783 68.8333H21.1004C19.8055 68.8333 18.7559 67.7887 18.7559 66.5V63Z" fill="#97A5BB"/>
<path d="M24.6161 7.03391H24.6865C25.0506 7.01136 25.4179 7.00008 25.7884 7.00008C26.4358 7.00008 26.9606 6.47775 26.9606 5.83341C26.9606 5.18908 26.4358 4.66675 25.7884 4.66675C25.3722 4.66675 24.9584 4.67958 24.547 4.70291C23.8995 4.7216 23.3899 5.25908 23.4087 5.90341C23.4275 6.54775 23.9675 7.05493 24.615 7.03625L24.6161 7.03391Z" fill="white"/>
<path d="M21.0482 6.36422C20.9566 6.06833 20.7506 5.8208 20.4755 5.67616C20.2004 5.53151 19.8789 5.50162 19.5817 5.59305C12.4752 7.78979 7.0455 13.5328 5.27437 20.7259C5.12216 21.3518 5.50834 21.9821 6.13715 22.1341C6.22814 22.1558 6.32139 22.1668 6.41497 22.1667C6.9554 22.1656 7.42505 21.797 7.55205 21.2742C9.12908 14.8787 13.9592 9.77403 20.2792 7.82372C20.8959 7.63141 21.2399 6.97852 21.0482 6.36422Z" fill="white"/>
<path d="M45.6135 23.3333C44.9675 23.3715 44.4748 23.9235 44.5128 24.5665C44.5339 24.932 44.5445 25.2988 44.5445 25.6666C44.5445 26.311 45.0693 26.8333 45.7167 26.8333C46.3641 26.8333 46.889 26.311 46.889 25.6666C46.889 25.2536 46.8761 24.8418 46.8526 24.4311C46.8348 24.122 46.6942 23.8325 46.4618 23.6266C46.2293 23.4207 45.9242 23.3151 45.6135 23.3333Z" fill="white"/>
<path d="M45.4352 29.1994C45.133 29.1267 44.8142 29.1764 44.5488 29.3377C44.2835 29.4989 44.0934 29.7585 44.0203 30.0593C43.0902 33.8974 40.955 37.3405 37.9246 39.8884C37.8485 39.9521 37.7811 40.0254 37.7241 40.1066C35.2553 42.4557 33.4475 45.4072 32.4807 48.6676C32.2371 49.4809 32.0464 50.309 31.9098 51.1468C31.8063 51.7827 32.2403 52.3818 32.8792 52.4849C32.9416 52.4951 33.0047 52.5002 33.068 52.5001C33.6425 52.4995 34.1319 52.0845 34.2238 51.5201C34.3449 50.7811 34.5128 50.0505 34.7267 49.3326C35.6349 46.2671 37.3871 43.5158 39.785 41.3899C39.8323 41.3479 39.8762 41.3023 39.9162 41.2534C43.0805 38.4315 45.3078 34.7186 46.3027 30.6076C46.3756 30.3064 46.3252 29.9886 46.1624 29.7244C45.9997 29.4603 45.738 29.2714 45.4352 29.1994Z" fill="white"/>
<path d="M21.1 70.0001H30.478C32.4203 70.0001 33.9948 68.4331 33.9948 66.5001V63.9521C35.3949 63.4595 36.3331 62.1447 36.3393 60.6668V58.1188C37.7394 57.6262 38.6776 56.3114 38.6838 54.8334V54.3598C38.6652 50.7445 40.201 47.2938 42.9039 44.8783C50.9169 37.8067 53.7047 26.5423 49.9083 16.5759C46.112 6.60945 36.5216 0.0152362 25.8121 0.00757504C15.1025 -8.6166e-05 5.50263 6.5804 1.6919 16.5414C-2.11884 26.5024 0.652666 37.7708 8.65545 44.8538C11.3652 47.2763 12.9074 50.7346 12.8943 54.3598V54.8334C12.9005 56.3114 13.8387 57.6262 15.2388 58.1188V60.6668C15.245 62.1447 16.1832 63.4595 17.5833 63.9521V66.5001C17.5833 67.4284 17.9538 68.3186 18.6133 68.975C19.2728 69.6314 20.1673 70.0001 21.1 70.0001ZM31.6503 66.5001C31.6503 67.1444 31.1254 67.6668 30.478 67.6668H21.1C20.4526 67.6668 19.9278 67.1444 19.9278 66.5001V64.1668H31.6503V66.5001ZM33.9948 60.6668C33.9948 61.3111 33.4699 61.8334 32.8225 61.8334H18.7555C18.1081 61.8334 17.5833 61.3111 17.5833 60.6668V58.3334H33.9948V60.6668ZM10.211 43.1108C5.21057 38.6777 2.34857 32.3316 2.34406 25.6668C2.34406 12.7851 12.8329 2.34053 25.7761 2.33345C26.1982 2.33345 26.6213 2.34433 27.0457 2.36611C39.3084 3.17214 48.9303 13.1514 49.234 25.3786C49.3169 32.1553 46.4386 38.6338 41.346 43.1329C38.1429 45.9921 36.3209 50.0777 36.3393 54.3598V54.8334C36.3393 55.4778 35.8144 56.0001 35.167 56.0001H16.411C15.7636 56.0001 15.2388 55.4778 15.2388 54.8334V54.3598C15.2502 50.0684 13.4211 45.976 10.211 43.1108Z" fill="black"/>
</g>
<defs>
<clipPath id="clip0_69_67">
<rect width="51.5789" height="70" fill="white"/>
</clipPath>
</defs>
</svg>
