<svg width="68" height="68" viewBox="0 0 68 68" fill="none" xmlns="http://www.w3.org/2000/svg">
<path d="M63.3785 61.9998H57.3331C56.6967 61.9998 56.2725 61.5756 56.2725 60.9392V31.7726C56.2725 30.1817 57.5452 28.9089 59.1361 28.9089H61.5755C63.1664 28.9089 64.4391 30.1817 64.4391 31.7726V60.9392C64.4391 61.5756 63.9088 61.9998 63.3785 61.9998ZM58.3937 59.8786H62.3179V31.7726C62.3179 31.3483 61.9997 31.0301 61.5755 31.0301H59.1361C58.7119 31.0301 58.3937 31.3483 58.3937 31.7726V59.8786Z" fill="#F4B241"/>
<path d="M60.3028 67.3029C59.8786 67.3029 59.5604 67.0908 59.3483 66.7726L56.2725 61.4696C55.9544 60.9392 56.1665 60.3029 56.6968 59.9847C57.2271 59.6665 57.8635 59.8786 58.1816 60.4089L60.3028 64.1211L62.4241 60.4089C62.7422 59.8786 63.3786 59.7726 63.9089 59.9847C64.4392 60.3029 64.5453 60.9392 64.3331 61.4696L61.2574 66.7726C61.0453 67.0908 60.7271 67.3029 60.3028 67.3029Z" fill="#F4B241"/>
<path d="M66.5603 42.6968C66.03 42.6968 65.6058 42.2725 65.4997 41.7422L65.2876 39.4089C65.2876 39.3029 65.2876 39.1968 65.2876 39.0907L65.6058 36.7574C65.6058 36.4392 65.4997 36.2271 65.3937 36.121C65.2876 36.015 65.0755 35.8029 64.7573 35.8029H57.3331C56.6967 35.8029 56.2725 35.3786 56.2725 34.7422C56.2725 34.1059 56.6967 33.6816 57.3331 33.6816H64.8634C65.7119 33.6816 66.5603 33.9998 67.0906 34.7422C67.6209 35.3786 67.9391 36.2271 67.727 37.0756L67.4088 39.1968L67.6209 41.4241C67.727 41.9544 67.3028 42.4847 66.6664 42.5907C66.6664 42.6968 66.6664 42.6968 66.5603 42.6968Z" fill="#F4B241"/>
<path d="M43.9692 67.9394H10.2419C7.37826 67.9394 5.04492 65.6061 5.04492 62.7425V14.9091C5.04492 12.0455 7.37826 9.71216 10.2419 9.71216H43.9692C46.8328 9.71216 49.1661 12.0455 49.1661 14.9091V15.2273C49.1661 15.8637 48.7419 16.2879 48.1055 16.2879C47.4692 16.2879 47.0449 15.8637 47.0449 15.2273V14.9091C47.0449 13.2122 45.6661 11.8334 43.9692 11.8334H10.2419C8.54492 11.8334 7.16613 13.2122 7.16613 14.9091V62.7425C7.16613 64.4394 8.54492 65.8182 10.2419 65.8182H43.9692C45.6661 65.8182 47.0449 64.4394 47.0449 62.7425V36.8637C47.0449 36.2273 47.4692 35.8031 48.1055 35.8031C48.7419 35.8031 49.1661 36.2273 49.1661 36.8637V62.6364C49.1661 65.6061 46.8328 67.9394 43.9692 67.9394Z" fill="#F4B241"/>
<path d="M5.46943 61.8939C2.60579 61.8939 0.272461 59.5605 0.272461 56.6969V10.0302C0.272461 7.16658 2.60579 4.83325 5.46943 4.83325H37.0755C39.9391 4.83325 42.2725 7.16658 42.2725 10.0302V10.7726C42.2725 11.409 41.8482 11.8333 41.2119 11.8333C40.5755 11.8333 40.1512 11.409 40.1512 10.7726V10.0302C40.1512 8.33325 38.7725 6.95446 37.0755 6.95446H5.46943C3.77246 6.95446 2.39367 8.33325 2.39367 10.0302V56.6969C2.39367 58.3939 3.77246 59.7726 5.46943 59.7726C6.10579 59.7726 6.53004 60.1969 6.53004 60.8332C6.53004 61.4696 5.99973 61.8939 5.46943 61.8939Z" fill="#F4B241"/>
<path d="M15.8633 18.7272C13.9542 18.7272 12.4694 17.2424 12.4694 15.3333V14.6969C12.4694 14.0605 12.8936 13.6363 13.53 13.6363C14.1664 13.6363 14.5906 14.0605 14.5906 14.6969V15.3333C14.5906 16.0757 15.1209 16.606 15.8633 16.606C16.6058 16.606 17.1361 16.0757 17.1361 15.3333V5.78782C17.1361 3.77267 15.5452 2.18176 13.53 2.18176C11.5149 2.18176 9.92395 3.77267 9.92395 5.78782C9.92395 6.42418 9.4997 6.84843 8.86334 6.84843C8.22698 6.84843 7.80273 6.42418 7.80273 5.78782C7.80273 2.606 10.3482 0.0605469 13.53 0.0605469C16.7118 0.0605469 19.2573 2.606 19.2573 5.78782V15.3333C19.2573 17.2424 17.7724 18.7272 15.8633 18.7272Z" fill="#F4B241"/>
<path d="M13.5297 41.8485H11.7266C11.0903 41.8485 10.666 41.4243 10.666 40.7879C10.666 40.1515 11.0903 39.7273 11.7266 39.7273H13.5297C14.166 39.7273 14.5903 40.1515 14.5903 40.7879C14.5903 41.4243 14.06 41.8485 13.5297 41.8485Z" fill="#F4B241"/>
<path d="M13.5297 47.0455H11.7266C11.0903 47.0455 10.666 46.6213 10.666 45.9849C10.666 45.3486 11.0903 44.9243 11.7266 44.9243H13.5297C14.166 44.9243 14.5903 45.3486 14.5903 45.9849C14.5903 46.6213 14.06 47.0455 13.5297 47.0455Z" fill="#F4B241"/>
<path d="M13.5297 52.2426H11.7266C11.0903 52.2426 10.666 51.8183 10.666 51.1819C10.666 50.5456 11.0903 50.1213 11.7266 50.1213H13.5297C14.166 50.1213 14.5903 50.5456 14.5903 51.1819C14.5903 51.8183 14.06 52.2426 13.5297 52.2426Z" fill="#F4B241"/>
<path d="M13.5297 57.5455H11.7266C11.0903 57.5455 10.666 57.1213 10.666 56.4849C10.666 55.8486 11.0903 55.4243 11.7266 55.4243H13.5297C14.166 55.4243 14.5903 55.8486 14.5903 56.4849C14.5903 57.1213 14.06 57.5455 13.5297 57.5455Z" fill="#F4B241"/>
<path d="M36.2271 41.8485H17.7725C17.1362 41.8485 16.7119 41.4243 16.7119 40.7879C16.7119 40.1515 17.1362 39.7273 17.7725 39.7273H36.2271C36.8634 39.7273 37.2877 40.1515 37.2877 40.7879C37.2877 41.4243 36.8634 41.8485 36.2271 41.8485Z" fill="#F4B241"/>
<path d="M42.4846 47.0455H17.7725C17.1362 47.0455 16.7119 46.6213 16.7119 45.9849C16.7119 45.3486 17.1362 44.9243 17.7725 44.9243H42.4846C43.121 44.9243 43.5452 45.3486 43.5452 45.9849C43.5452 46.6213 43.0149 47.0455 42.4846 47.0455Z" fill="#F4B241"/>
<path d="M42.4846 52.2426H17.7725C17.1362 52.2426 16.7119 51.8183 16.7119 51.1819C16.7119 50.5456 17.1362 50.1213 17.7725 50.1213H42.4846C43.121 50.1213 43.5452 50.5456 43.5452 51.1819C43.5452 51.8183 43.0149 52.2426 42.4846 52.2426Z" fill="#F4B241"/>
<path d="M42.4846 57.5455H17.7725C17.1362 57.5455 16.7119 57.1213 16.7119 56.4849C16.7119 55.8486 17.1362 55.4243 17.7725 55.4243H42.4846C43.121 55.4243 43.5452 55.8486 43.5452 56.4849C43.5452 57.1213 43.0149 57.5455 42.4846 57.5455Z" fill="#F4B241"/>
<path d="M42.4846 62.5304H17.7725C17.1362 62.5304 16.7119 62.1061 16.7119 61.4698C16.7119 60.8334 17.1362 60.4092 17.7725 60.4092H42.4846C43.121 60.4092 43.5452 60.8334 43.5452 61.4698C43.5452 62.1061 43.0149 62.5304 42.4846 62.5304Z" fill="#F4B241"/>
<path d="M13.5297 62.5304H11.7266C11.0903 62.5304 10.666 62.1061 10.666 61.4698C10.666 60.8334 11.0903 60.4092 11.7266 60.4092H13.5297C14.166 60.4092 14.5903 60.8334 14.5903 61.4698C14.5903 62.1061 14.06 62.5304 13.5297 62.5304Z" fill="#F4B241"/>
<path d="M51.7111 40.1514C51.499 40.1514 51.2868 40.0454 51.0747 39.9393L47.3626 37.2878L43.6505 39.9393C43.3323 40.1514 42.9081 40.1514 42.5899 40.0454C42.2717 39.8332 42.0596 39.5151 42.0596 39.0908V29.6514C42.0596 29.0151 42.4838 28.5908 43.1202 28.5908C43.7565 28.5908 44.1808 29.0151 44.1808 29.6514V37.0757L46.8323 35.1666C47.1505 34.9545 47.6808 34.9545 48.105 35.1666L50.7565 37.0757V30.0757C50.7565 29.4393 51.1808 29.0151 51.8171 29.0151C52.4535 29.0151 52.8778 29.4393 52.8778 30.0757V39.1969C52.8778 39.6211 52.6656 39.9393 52.3474 40.1514C52.0293 40.1514 51.9232 40.1514 51.7111 40.1514Z" fill="#F4B241"/>
<path d="M47.363 31.9848C42.5903 31.9848 38.666 28.0605 38.666 23.2878C38.666 18.5151 42.5903 14.5908 47.363 14.5908C52.1357 14.5908 56.06 18.5151 56.06 23.2878C56.06 28.0605 52.1357 31.9848 47.363 31.9848ZM47.363 16.712C43.7569 16.712 40.7872 19.6817 40.7872 23.2878C40.7872 26.8939 43.7569 29.8635 47.363 29.8635C50.969 29.8635 53.9387 26.8939 53.9387 23.2878C53.9387 19.6817 50.969 16.712 47.363 16.712Z" fill="#F4B241"/>
<path d="M47.3633 27.9545C44.8179 27.9545 42.8027 25.8333 42.8027 23.3939C42.8027 20.8484 44.9239 18.8333 47.3633 18.8333C49.9088 18.8333 51.9239 20.9545 51.9239 23.3939C51.9239 25.8333 49.9088 27.9545 47.3633 27.9545ZM47.3633 20.8484C45.9846 20.8484 44.9239 22.0151 44.9239 23.2878C44.9239 24.6666 46.0906 25.7272 47.3633 25.7272C48.6361 25.7272 49.8027 24.5605 49.8027 23.2878C49.8027 21.909 48.7421 20.8484 47.3633 20.8484Z" fill="#F4B241"/>
<path d="M31.5606 33.8938H22.6515C20.9546 33.8938 19.4697 32.515 19.4697 30.712V21.8029C19.4697 20.1059 20.8485 18.6211 22.6515 18.6211H31.5606C33.2576 18.6211 34.7425 19.9999 34.7425 21.8029V30.712C34.7425 32.515 33.2576 33.8938 31.5606 33.8938ZM22.6515 20.7423C22.1212 20.7423 21.5909 21.1665 21.5909 21.8029V30.712C21.5909 31.2423 22.0152 31.7726 22.6515 31.7726H31.5606C32.0909 31.7726 32.6212 31.3484 32.6212 30.712V21.8029C32.6212 21.2726 32.197 20.7423 31.5606 20.7423H22.6515Z" fill="#F4B241"/>
<path d="M28.4848 29.4394H25.7272C24.7727 29.4394 24.0303 28.6969 24.0303 27.7424V24.9848C24.0303 24.0303 24.7727 23.2878 25.7272 23.2878H28.4848C29.4394 23.2878 30.1818 24.0303 30.1818 24.9848V27.7424C30.1818 28.5909 29.4394 29.4394 28.4848 29.4394ZM26.1515 27.3181H28.1666V25.303H26.1515V27.3181Z" fill="#F4B241"/>
<path d="M23.2872 20.7423C22.6508 20.7423 22.2266 20.318 22.2266 19.6817V17.4544C22.2266 16.818 22.6508 16.3938 23.2872 16.3938C23.9235 16.3938 24.3478 16.818 24.3478 17.4544V19.6817C24.3478 20.318 23.8175 20.7423 23.2872 20.7423Z" fill="#F4B241"/>
<path d="M27.1055 20.7423C26.4692 20.7423 26.0449 20.318 26.0449 19.6817V17.4544C26.0449 16.818 26.4692 16.3938 27.1055 16.3938C27.7419 16.3938 28.1661 16.818 28.1661 17.4544V19.6817C28.1661 20.318 27.6358 20.7423 27.1055 20.7423Z" fill="#F4B241"/>
<path d="M30.9239 20.7423C30.2875 20.7423 29.8633 20.318 29.8633 19.6817V17.4544C29.8633 16.818 30.2875 16.3938 30.9239 16.3938C31.5603 16.3938 31.9845 16.818 31.9845 17.4544V19.6817C31.9845 20.318 31.5603 20.7423 30.9239 20.7423Z" fill="#F4B241"/>
<path d="M23.2872 36.1212C22.6508 36.1212 22.2266 35.6969 22.2266 35.0606V32.8333C22.2266 32.1969 22.6508 31.7727 23.2872 31.7727C23.9235 31.7727 24.3478 32.1969 24.3478 32.8333V35.0606C24.3478 35.6969 23.8175 36.1212 23.2872 36.1212Z" fill="#F4B241"/>
<path d="M30.9239 36.1212C30.2875 36.1212 29.8633 35.6969 29.8633 35.0606V32.8333C29.8633 32.1969 30.2875 31.7727 30.9239 31.7727C31.5603 31.7727 31.9845 32.1969 31.9845 32.8333V35.0606C31.9845 35.6969 31.5603 36.1212 30.9239 36.1212Z" fill="#F4B241"/>
<path d="M27.1055 36.1212C26.4692 36.1212 26.0449 35.6969 26.0449 35.0606V32.8333C26.0449 32.1969 26.4692 31.7727 27.1055 31.7727C27.7419 31.7727 28.1661 32.1969 28.1661 32.8333V35.0606C28.1661 35.6969 27.6358 36.1212 27.1055 36.1212Z" fill="#F4B241"/>
<path d="M35.8025 23.4999H33.5753C32.9389 23.4999 32.5146 23.0756 32.5146 22.4393C32.5146 21.8029 32.9389 21.3787 33.5753 21.3787H35.8025C36.4389 21.3787 36.8631 21.8029 36.8631 22.4393C36.8631 23.0756 36.4389 23.4999 35.8025 23.4999Z" fill="#F4B241"/>
<path d="M35.8025 27.318H33.5753C32.9389 27.318 32.5146 26.8937 32.5146 26.2574C32.5146 25.621 32.9389 25.1968 33.5753 25.1968H35.8025C36.4389 25.1968 36.8631 25.621 36.8631 26.2574C36.8631 26.8937 36.4389 27.318 35.8025 27.318Z" fill="#F4B241"/>
<path d="M35.8025 31.2423H33.5753C32.9389 31.2423 32.5146 30.8181 32.5146 30.1817C32.5146 29.5453 32.9389 29.1211 33.5753 29.1211H35.8025C36.4389 29.1211 36.8631 29.5453 36.8631 30.1817C36.8631 30.8181 36.4389 31.2423 35.8025 31.2423Z" fill="#F4B241"/>
<path d="M20.5301 23.4999H18.3028C17.6664 23.4999 17.2422 23.0756 17.2422 22.4393C17.2422 21.8029 17.6664 21.3787 18.3028 21.3787H20.5301C21.1664 21.3787 21.5907 21.8029 21.5907 22.4393C21.5907 23.0756 21.0604 23.4999 20.5301 23.4999Z" fill="#F4B241"/>
<path d="M20.5301 27.318H18.3028C17.6664 27.318 17.2422 26.8937 17.2422 26.2574C17.2422 25.621 17.6664 25.1968 18.3028 25.1968H20.5301C21.1664 25.1968 21.5907 25.621 21.5907 26.2574C21.5907 26.8937 21.0604 27.318 20.5301 27.318Z" fill="#F4B241"/>
<path d="M20.5301 31.2423H18.3028C17.6664 31.2423 17.2422 30.8181 17.2422 30.1817C17.2422 29.5453 17.6664 29.1211 18.3028 29.1211H20.5301C21.1664 29.1211 21.5907 29.5453 21.5907 30.1817C21.5907 30.8181 21.0604 31.2423 20.5301 31.2423Z" fill="#F4B241"/>
</svg>
