<svg width="70" height="70" viewBox="0 0 70 70" fill="none" xmlns="http://www.w3.org/2000/svg">
<g clip-path="url(#clip0_69_93)">
<path d="M62.7309 15.61V57.4192L62.3032 59.1498C62.3032 59.3763 62.1196 59.5599 61.8931 59.5599L54.4754 59.4727C54.2489 59.4727 54.0653 59.2891 54.0653 59.0625L53.8994 24.0829C53.8994 23.957 53.9578 23.8383 54.057 23.7608C54.9494 23.0638 55.662 22.2965 56.2507 21.4788C58.41 19.5574 60.3344 17.5119 61.9947 15.3618C62.2346 15.051 62.7309 15.2174 62.7309 15.61Z" fill="#F4B241"/>
<path d="M62.7305 57.4191V59.7433C62.7305 59.9703 62.5473 60.1535 62.3203 60.1535H53.9258C53.6988 60.1535 53.5156 59.9703 53.5156 59.7433V23.949C53.5156 23.8232 53.5744 23.7043 53.6729 23.6263C54.5656 22.9304 55.4245 22.2143 56.2503 21.4788L56.25 57.009C56.25 57.2359 56.4332 57.4191 56.6602 57.4191H62.7305Z" fill="#F4B241"/>
<path d="M10.634 38.8183C11.421 38.7717 11.8378 38.4948 12.6164 38.4295C14.6508 38.2586 16.6558 38.025 18.6266 37.7307C18.8745 37.6936 19.0968 37.8846 19.0968 38.1352V57.4191L18.6519 59.3068C18.6519 59.5334 18.4683 59.717 18.2417 59.717L10.8764 59.7518C10.6499 59.7518 10.4663 59.5682 10.4663 59.3417L10.248 39.2265C10.2479 39.0097 10.4174 38.8311 10.634 38.8183Z" fill="#F4B241"/>
<path d="M19.0967 57.4191V59.7433C19.0967 59.9703 18.9135 60.1535 18.6865 60.1535H10.292C10.065 60.1535 9.88184 59.9703 9.88184 59.7433V39.0058C9.88184 38.7898 10.0514 38.6107 10.2674 38.5984C11.0549 38.5519 11.8369 38.4964 12.6162 38.4294V57.009C12.6162 57.2359 12.7994 57.4191 13.0264 57.4191H19.0967Z" fill="#F4B241"/>
<path d="M48.1861 28.146V57.4192L47.7464 59.4291C47.7464 59.6557 47.5628 59.8393 47.3362 59.8393L39.9622 59.7258C39.7356 59.7258 39.552 59.5422 39.552 59.3157L39.4414 32.5944C39.4414 32.4302 39.54 32.2823 39.6911 32.2179C40.5328 31.8597 40.891 31.2859 41.7056 30.9028C43.7505 29.941 45.7075 28.9022 47.5677 27.7926C47.8403 27.6301 48.1861 27.8287 48.1861 28.146Z" fill="#FEE45A"/>
<path d="M48.1865 57.4192V59.7434C48.1865 59.9704 48.0033 60.1536 47.7764 60.1536H39.3818C39.1549 60.1536 38.9717 59.9704 38.9717 59.7434V32.3915C38.9717 32.2274 39.0701 32.0797 39.2219 32.0155C40.0627 31.6573 40.8912 31.2854 41.7061 30.9026V57.009C41.7061 57.236 41.8893 57.4192 42.1162 57.4192H48.1865Z" fill="#FFD15B"/>
<path d="M25.2488 36.9246C26.06 36.746 27.1607 36.0363 27.1607 36.0363C29.1921 35.5284 31.1753 34.9543 33.1036 34.3184C33.3692 34.2308 33.6425 34.4273 33.6425 34.7071V57.4191L33.2607 59.429C33.2607 59.6556 33.0771 59.8392 32.8505 59.8392L25.3281 59.752C25.1016 59.752 24.918 59.5683 24.918 59.3418L24.9266 37.3242C24.9266 37.1318 25.0608 36.9659 25.2488 36.9246Z" fill="#F4B241"/>
<path d="M33.642 57.4192V59.7434C33.642 59.9704 33.4588 60.1536 33.2318 60.1536H24.8359C24.609 60.1536 24.4258 59.9704 24.4258 59.7434V37.003C24.4258 36.8102 24.5598 36.6448 24.7484 36.6038C25.5592 36.4247 26.3645 36.236 27.1602 36.0364V57.009C27.1602 57.236 27.3434 57.4192 27.5703 57.4192H33.642Z" fill="#F4B241"/>
<path d="M65.1329 7.89008L63.8373 4.46295C63.6686 4.00618 63.1413 3.69637 62.6365 3.82899L59.1551 4.67309C58.6048 4.80653 58.2668 5.36092 58.4003 5.91121C58.514 6.38043 58.9336 6.6953 59.396 6.6953C59.476 6.6953 59.5573 6.68586 59.6384 6.66618L61.1278 6.3051C58.4561 11.9493 53.6453 17.1855 47.1012 21.544C41.6425 25.1795 35.2516 28.0437 28.1059 30.0566C22.284 31.6965 16.1326 32.7137 9.82248 33.0797C9.25714 33.1125 8.82539 33.5973 8.8582 34.1626C8.88978 34.7079 9.34177 35.1287 9.88086 35.1287C9.90082 35.1287 9.92091 35.1281 9.94115 35.1269C16.3989 34.7524 22.6976 33.7106 28.6619 32.0305C36.0144 29.9594 42.6007 27.0054 48.238 23.2508C54.9558 18.7766 59.9453 13.3847 62.8082 7.54049L63.2146 8.61524C63.3697 9.02553 63.7597 9.27832 64.1739 9.27832C64.2945 9.27832 64.4169 9.257 64.5364 9.21188C65.066 9.01158 65.3332 8.41973 65.1329 7.89008Z" fill="#F4B241"/>
<path d="M69.6998 64.8318L67.1021 62.2342C66.7015 61.8337 66.0524 61.8337 65.6519 62.2342C65.2515 62.6346 65.2515 63.2839 65.6519 63.6842L66.4992 64.5315H5.46875V3.50117L6.31586 4.34828C6.51615 4.54857 6.77865 4.64865 7.04102 4.64865C7.30338 4.64865 7.56588 4.54857 7.76617 4.34828C8.16662 3.94783 8.16662 3.29855 7.76617 2.89824L5.16852 0.300581C4.76793 -0.0998682 4.11879 -0.0998682 3.71834 0.300581L1.12068 2.89824C0.720234 3.29869 0.720234 3.94796 1.12068 4.34828C1.32084 4.54857 1.58334 4.64865 1.8457 4.64865C2.10807 4.64865 2.37057 4.54857 2.57086 4.34828L3.41797 3.50117V11.8947H2.39258C1.82615 11.8947 1.36719 12.3538 1.36719 12.9201C1.36719 13.4864 1.82615 13.9455 2.39258 13.9455H3.41797V19.4143H1.02539C0.458965 19.4143 0 19.8734 0 20.4397C0 21.006 0.458965 21.4651 1.02539 21.4651H3.41797V26.9338H2.39258C1.82615 26.9338 1.36719 27.3929 1.36719 27.9592C1.36719 28.5255 1.82615 28.9846 2.39258 28.9846H3.41797V34.4533H1.02539C0.458965 34.4533 0 34.9124 0 35.4787C0 36.045 0.458965 36.5041 1.02539 36.5041H3.41797V41.9729H2.39258C1.82615 41.9729 1.36719 42.432 1.36719 42.9983C1.36719 43.5645 1.82615 44.0236 2.39258 44.0236H3.41797V49.4924H1.02539C0.458965 49.4924 0 49.9515 0 50.5178C0 51.0841 0.458965 51.5432 1.02539 51.5432H3.41797V57.0119H2.39258C1.82615 57.0119 1.36719 57.471 1.36719 58.0373C1.36719 58.6036 1.82615 59.0627 2.39258 59.0627H3.41797V64.5315H1.02539C0.458965 64.5315 0 64.9906 0 65.5569C0 66.1231 0.458965 66.5822 1.02539 66.5822H3.41797V68.9748C3.41797 69.5411 3.87693 70.0002 4.44336 70.0002C5.00979 70.0002 5.46875 69.5411 5.46875 68.9748V66.5822H10.9375V67.6076C10.9375 68.1739 11.3965 68.633 11.9629 68.633C12.5293 68.633 12.9883 68.1739 12.9883 67.6076V66.5822H18.457V68.9748C18.457 69.5411 18.916 70.0002 19.4824 70.0002C20.0488 70.0002 20.5078 69.5411 20.5078 68.9748V66.5822H25.9766V67.6076C25.9766 68.1739 26.4355 68.633 27.002 68.633C27.5684 68.633 28.0273 68.1739 28.0273 67.6076V66.5822H33.4961V68.9748C33.4961 69.5411 33.9551 70.0002 34.5215 70.0002C35.0879 70.0002 35.5469 69.5411 35.5469 68.9748V66.5822H41.0156V67.6076C41.0156 68.1739 41.4746 68.633 42.041 68.633C42.6074 68.633 43.0664 68.1739 43.0664 67.6076V66.5822H48.5352V68.9748C48.5352 69.5411 48.9941 70.0002 49.5605 70.0002C50.127 70.0002 50.5859 69.5411 50.5859 68.9748V66.5822H56.0547V67.6076C56.0547 68.1739 56.5137 68.633 57.0801 68.633C57.6465 68.633 58.1055 68.1739 58.1055 67.6076V66.5822H66.499L65.6518 67.4295C65.2514 67.8299 65.2514 68.4792 65.6518 68.8795C65.8521 69.0797 66.1146 69.1799 66.377 69.1799C66.6393 69.1799 66.9018 69.0798 67.1021 68.8795L69.6998 66.2819C70.1001 65.8816 70.1001 65.2321 69.6998 64.8318Z" fill="#F4B241"/>
</g>
<defs>
<clipPath id="clip0_69_93">
<rect width="70" height="70" fill="white"/>
</clipPath>
</defs>
</svg>
