<svg width="20" height="20" viewBox="0 0 20 20" fill="none" xmlns="http://www.w3.org/2000/svg">
<path d="M19.0625 5.9375H16.5625V0.9375H19.0625V5.9375Z" fill="#4298D1"/>
<path d="M11.875 4.375L8.92969 3.49137C8.81247 3.45622 8.68753 3.45622 8.57031 3.49137L5.625 4.375H5.62891C5.37923 4.375 5.13978 4.27582 4.96323 4.09927C4.78668 3.92272 4.6875 3.68327 4.6875 3.43359C4.68748 3.24931 4.74154 3.06907 4.84299 2.91523C4.94444 2.76138 5.08881 2.64069 5.2582 2.56813L8.00129 1.39234C8.70146 1.09226 9.4553 0.937513 10.2171 0.9375H16.5625V5.9375C15.9622 6.53777 15.1481 6.875 14.2992 6.875H14.0539C13.6467 6.875 13.2432 6.7973 12.8652 6.64606L11.875 6.25H10C9.75136 6.25 9.5129 6.15123 9.33709 5.97541C9.16127 5.7996 9.0625 5.56114 9.0625 5.3125C9.0625 5.06386 9.16127 4.8254 9.33709 4.64959C9.5129 4.47377 9.75136 4.375 10 4.375H11.875Z" fill="#F6D3BC"/>
<path d="M3.4375 6.875H16.5625V16.875H3.4375V6.875Z" fill="#5D8668"/>
<path d="M16.5625 10.625H3.4375V9.375H16.5625V10.625Z" fill="#8AC79B"/>
<path d="M16.5625 8.125H3.4375V6.875H16.5625V8.125Z" fill="#8AC79B"/>
<path d="M5.13789 13.0409C4.99408 13.0957 4.84136 13.1232 4.6875 13.1221V16.875H14.4918C14.2994 16.7086 14.1625 16.4872 14.0997 16.2406C14.0369 15.994 14.0511 15.7341 14.1406 15.4959C14.23 15.2577 14.3902 15.0526 14.5998 14.9082C14.8093 14.7639 15.0581 14.6872 15.3125 14.6886V13.1221C15.1484 13.1234 14.9856 13.0921 14.8337 13.0299C14.6818 12.9676 14.5438 12.8758 14.4278 12.7598C14.3117 12.6437 14.2199 12.5057 14.1577 12.3538C14.0955 12.2019 14.0641 12.0391 14.0654 11.875H5.93426C5.93481 12.127 5.85902 12.3733 5.71687 12.5815C5.57471 12.7896 5.37286 12.9498 5.13789 13.0409Z" fill="#8AC79B"/>
<path d="M16.25 13.7794C17.9759 13.7794 19.375 12.3803 19.375 10.6544C19.375 8.92853 17.9759 7.52942 16.25 7.52942C14.5241 7.52942 13.125 8.92853 13.125 10.6544C13.125 12.3803 14.5241 13.7794 16.25 13.7794Z" fill="#EC9E15"/>
<path d="M16.25 13.1544C17.6307 13.1544 18.75 12.0351 18.75 10.6544C18.75 9.27371 17.6307 8.15442 16.25 8.15442C14.8693 8.15442 13.75 9.27371 13.75 10.6544C13.75 12.0351 14.8693 13.1544 16.25 13.1544Z" fill="#FDB62F"/>
<path d="M8.4375 6.875H10.9375V16.875H8.4375V6.875Z" fill="#EC9E15"/>
<path d="M8.4375 10.625H10.9375V16.875H8.4375V10.625Z" fill="#FDB62F"/>
<path d="M0.9375 14.0625H3.4375V19.0625H0.9375V14.0625Z" fill="#995701"/>
<path d="M14.8888 17.1613L10.9835 18.68C10.3335 18.9328 9.64216 19.0625 8.94473 19.0625H3.4375V14.0625L4.11613 13.6553C4.69449 13.3083 5.35627 13.125 6.03074 13.125H6.06078C6.79547 13.125 7.51371 13.3425 8.125 13.75H10C10.2486 13.75 10.4871 13.8488 10.6629 14.0246C10.8387 14.2004 10.9375 14.4389 10.9375 14.6875C10.9375 14.9361 10.8387 15.1746 10.6629 15.3504C10.4871 15.5262 10.2486 15.625 10 15.625H8.125L11.25 16.25L14.2507 15.3267C14.3831 15.286 14.5227 15.274 14.6601 15.2916C14.7975 15.3092 14.9296 15.356 15.0474 15.4289C15.1653 15.5017 15.2662 15.5989 15.3434 15.7139C15.4206 15.8289 15.4723 15.9591 15.4951 16.0958C15.5318 16.316 15.4916 16.5422 15.3811 16.7362C15.2707 16.9303 15.0968 17.0804 14.8888 17.1613Z" fill="#F6D3BC"/>
<path d="M15.3124 11.9046C15.2506 11.9046 15.1902 11.8862 15.1389 11.8519C15.0875 11.8176 15.0474 11.7688 15.0238 11.7117C15.0001 11.6546 14.9939 11.5918 15.006 11.5311C15.0181 11.4705 15.0478 11.4149 15.0915 11.3712L17.279 9.18366C17.3078 9.15381 17.3423 9.13001 17.3804 9.11363C17.4186 9.09725 17.4596 9.08863 17.5011 9.08827C17.5426 9.08791 17.5837 9.09581 17.6221 9.11153C17.6605 9.12724 17.6954 9.15044 17.7247 9.17979C17.7541 9.20913 17.7773 9.24402 17.793 9.28242C17.8087 9.32083 17.8166 9.36198 17.8163 9.40347C17.8159 9.44497 17.8073 9.48597 17.7909 9.5241C17.7745 9.56222 17.7507 9.59671 17.7209 9.62553L15.5334 11.813C15.5044 11.8421 15.47 11.8652 15.432 11.8809C15.3941 11.8966 15.3535 11.9046 15.3124 11.9046Z" fill="#EC9E15"/>
<path d="M15.625 10C15.7976 10 15.9375 9.86009 15.9375 9.6875C15.9375 9.51491 15.7976 9.375 15.625 9.375C15.4524 9.375 15.3125 9.51491 15.3125 9.6875C15.3125 9.86009 15.4524 10 15.625 10Z" fill="#EC9E15"/>
<path d="M17.1875 11.5625C17.3601 11.5625 17.5 11.4226 17.5 11.25C17.5 11.0774 17.3601 10.9375 17.1875 10.9375C17.0149 10.9375 16.875 11.0774 16.875 11.25C16.875 11.4226 17.0149 11.5625 17.1875 11.5625Z" fill="#EC9E15"/>
<path d="M19.0625 6.25C19.1454 6.25 19.2249 6.21708 19.2835 6.15848C19.3421 6.09987 19.375 6.02038 19.375 5.9375V0.937504C19.375 0.854624 19.3421 0.775138 19.2835 0.716533C19.2249 0.657928 19.1454 0.625004 19.0625 0.625004H10.2171C9.41288 0.624078 8.61697 0.787444 7.87816 1.10508L5.13508 2.28086C4.87031 2.39442 4.65272 2.59567 4.51887 2.85077C4.38503 3.10588 4.34309 3.39929 4.40012 3.68168C4.45715 3.96407 4.60966 4.21821 4.83202 4.40139C5.05437 4.58456 5.33301 4.68559 5.62109 4.6875H5.62926C5.66911 4.68756 5.70859 4.67997 5.74559 4.66516L8.66016 3.79071C8.71876 3.77308 8.78124 3.77308 8.83984 3.79071L9.79945 4.07856C9.48923 4.12876 9.20931 4.29397 9.01542 4.54128C8.82153 4.7886 8.72791 5.09986 8.7532 5.4131C8.77849 5.72633 8.92084 6.01855 9.15189 6.23155C9.38294 6.44456 9.68575 6.56272 10 6.5625H3.4375C3.35462 6.5625 3.27513 6.59543 3.21653 6.65403C3.15792 6.71264 3.125 6.79212 3.125 6.875V13.75H0.9375C0.85462 13.75 0.775134 13.7829 0.716529 13.8415C0.657924 13.9001 0.625 13.9796 0.625 14.0625V19.0625C0.625 19.1454 0.657924 19.2249 0.716529 19.2835C0.775134 19.3421 0.85462 19.375 0.9375 19.375H8.94473C9.68094 19.3755 10.4108 19.2386 11.0968 18.9713L15.002 17.4526C15.157 17.3923 15.2987 17.3022 15.419 17.1875H16.5625C16.6454 17.1875 16.7249 17.1546 16.7835 17.096C16.8421 17.0374 16.875 16.9579 16.875 16.875V13.7171C17.5807 13.5728 18.2149 13.1891 18.6704 12.6311C19.1258 12.073 19.3746 11.3748 19.3746 10.6545C19.3746 9.93416 19.1258 9.23594 18.6704 8.67789C18.2149 8.11984 17.5807 7.7362 16.875 7.59184V6.875C16.875 6.79212 16.8421 6.71264 16.7835 6.65403C16.7249 6.59543 16.6454 6.5625 16.5625 6.5625H16.2994C16.4359 6.46759 16.5656 6.36316 16.6874 6.25H19.0625ZM16.875 1.25H18.75V5.625H16.875V1.25ZM3.125 18.75H1.25V14.375H3.125V18.75ZM9.375 5.3125C9.3752 5.1468 9.44111 4.98795 9.55828 4.87078C9.67544 4.75361 9.8343 4.6877 10 4.6875H11.875C11.95 4.6875 12.0225 4.66051 12.0793 4.61147C12.136 4.56244 12.1733 4.49462 12.1842 4.42041C12.1951 4.3462 12.1789 4.27054 12.1386 4.20726C12.0984 4.14397 12.0367 4.09728 11.9648 4.07571L9.01953 3.19204C8.84383 3.13922 8.65648 3.13922 8.48078 3.19204L5.58438 4.06094C5.44369 4.0509 5.31046 3.99388 5.20607 3.89902C5.10168 3.80417 5.03219 3.67699 5.00876 3.53791C4.98533 3.39882 5.00932 3.2559 5.07687 3.13208C5.14442 3.00827 5.25162 2.91074 5.38125 2.85516L8.12437 1.67969C8.7854 1.39543 9.49752 1.24921 10.2171 1.25H16.25V5.80422C15.7185 6.29375 15.0218 6.56457 14.2992 6.5625H14.0539C13.6864 6.56281 13.3223 6.49269 12.9812 6.35594L11.9911 5.95985C11.9541 5.94509 11.9148 5.9375 11.875 5.9375H10C9.8343 5.93731 9.67544 5.8714 9.55828 5.75423C9.44111 5.63706 9.3752 5.4782 9.375 5.3125ZM13.1381 10.9375C13.1568 11.1494 13.197 11.3588 13.2583 11.5625H11.25V10.9375H13.1381ZM11.25 10.3125V9.6875H13.2777C13.2118 9.8907 13.167 10.1001 13.144 10.3125H11.25ZM13.5263 12.1875C13.8603 12.7794 14.3775 13.2469 15 13.5195V14.4057C14.9935 14.407 14.987 14.4083 14.9805 14.4097L14.9766 14.4105C14.5809 14.4979 14.2346 14.7356 14.0109 15.0736L11.25 15.923V12.1875H13.5263ZM11.25 9.0625V8.4375H14.0479C14.0454 8.43997 14.0428 8.44227 14.0403 8.44477C13.855 8.62986 13.6936 8.83738 13.5598 9.0625H11.25ZM11.25 7.8125V7.1875H16.25V7.52946C15.8007 7.5288 15.3566 7.62536 14.9481 7.8125H11.25ZM8.75 7.1875H10.625V7.8125H8.75V7.1875ZM8.75 8.4375H10.625V9.0625H8.75V8.4375ZM8.75 9.6875H10.625V10.3125H8.75V9.6875ZM8.75 10.9375H10.625V11.5625H8.75V10.9375ZM8.75 12.1875H10.625V13.6057C10.4352 13.4954 10.2195 13.4373 10 13.4375H8.75V12.1875ZM3.75 7.1875H8.125V7.8125H3.75V7.1875ZM3.75 8.4375H8.125V9.0625H3.75V8.4375ZM3.75 9.6875H8.125V10.3125H3.75V9.6875ZM3.75 10.9375H8.125V11.5625H5.93437C5.85149 11.5625 5.77201 11.5954 5.7134 11.654C5.6548 11.7126 5.62187 11.7921 5.62187 11.875C5.62302 11.998 5.59964 12.12 5.55309 12.2339C5.50654 12.3478 5.43775 12.4513 5.35076 12.5383C5.26377 12.6253 5.16031 12.694 5.04642 12.7406C4.93254 12.7871 4.81052 12.8105 4.6875 12.8094C4.60462 12.8094 4.52513 12.8423 4.46653 12.9009C4.40792 12.9595 4.375 13.039 4.375 13.1219V13.1688C4.23095 13.2334 4.09083 13.3064 3.95535 13.3875L3.75 13.5106V10.9375ZM8.125 12.1875V13.3812C7.50101 13.0085 6.78762 12.8119 6.06078 12.8125H6.03074C5.99777 12.8125 5.96484 12.8134 5.93191 12.8142C6.07117 12.6286 6.16778 12.4147 6.21484 12.1875H8.125ZM15.0599 16.6544C15.0466 16.6678 15.0346 16.6824 15.0239 16.698C14.9556 16.7739 14.8706 16.8329 14.7755 16.8701L10.8702 18.3888C10.2564 18.628 9.60344 18.7505 8.94473 18.75H3.75V14.2394L4.27691 13.9233C4.43482 13.8287 4.60014 13.747 4.77125 13.6791C4.79103 13.6736 4.81023 13.6662 4.82855 13.657C5.21279 13.512 5.62006 13.4377 6.03074 13.4375H6.06078C6.73386 13.4369 7.39196 13.6361 7.95164 14.01C8.00298 14.0442 8.0633 14.0625 8.125 14.0625H10C10.1658 14.0625 10.3247 14.1284 10.4419 14.2456C10.5592 14.3628 10.625 14.5217 10.625 14.6875C10.625 14.8533 10.5592 15.0122 10.4419 15.1294C10.3247 15.2467 10.1658 15.3125 10 15.3125H8.125C8.04744 15.3125 7.97264 15.3413 7.91515 15.3934C7.85766 15.4454 7.82159 15.517 7.81395 15.5942C7.80631 15.6714 7.82764 15.7487 7.8738 15.811C7.91996 15.8733 7.98765 15.9163 8.06371 15.9314L8.37383 15.9935L8.37539 15.9938L10.8733 16.4933L10.876 16.4939L11.1885 16.5564C11.2394 16.5666 11.2921 16.5639 11.3417 16.5486L14.3424 15.6253C14.4758 15.584 14.6189 15.5861 14.751 15.6315C14.8831 15.6769 14.9973 15.7631 15.0772 15.8776C15.1571 15.9922 15.1984 16.1292 15.1953 16.2688C15.1921 16.4085 15.1447 16.5435 15.0597 16.6543L15.0599 16.6544ZM16.25 16.5625H15.7824C15.8583 16.2582 15.8198 15.9366 15.6742 15.6588C15.5287 15.381 15.2862 15.1663 14.9928 15.0555C15.0308 15.0416 15.0696 15.0302 15.109 15.0213C15.176 15.0073 15.2441 15.0002 15.3125 15C15.3954 15 15.4749 14.9671 15.5335 14.9085C15.5921 14.8499 15.625 14.7704 15.625 14.6875V13.7171C15.8307 13.7587 16.0401 13.7796 16.25 13.7796V16.5625ZM16.4885 8.16582C16.5127 8.17183 16.5375 8.17491 16.5625 8.175H16.5659C17.1696 8.25175 17.7246 8.5461 18.1267 9.00285C18.5289 9.45961 18.7506 10.0474 18.7503 10.656C18.7499 11.2645 18.5276 11.8521 18.125 12.3084C17.7223 12.7647 17.167 13.0585 16.5632 13.1346H16.5625C16.5384 13.1347 16.5144 13.1375 16.491 13.1431C16.4114 13.1507 16.331 13.1546 16.25 13.1548C15.9726 13.155 15.6972 13.1091 15.4348 13.019C15.4225 13.0138 15.4098 13.0095 15.3969 13.0059C14.7861 12.7829 14.2855 12.3317 14.0005 11.7473C13.9966 11.7388 13.9927 11.7305 13.988 11.7224C13.8277 11.381 13.7463 11.0078 13.7501 10.6306C13.7539 10.2534 13.8427 9.88193 14.0098 9.54379C14.0213 9.52578 14.031 9.50665 14.0386 9.48668C14.2842 9.02403 14.6681 8.64957 15.1367 8.41551C15.1533 8.40894 15.1693 8.40092 15.1845 8.39157C15.5178 8.23476 15.8817 8.15378 16.25 8.15446C16.3302 8.15446 16.4097 8.1584 16.4885 8.16582Z" fill="black"/>
<path d="M15.0915 11.8129C15.1205 11.8419 15.1549 11.8649 15.1929 11.8806C15.2308 11.8964 15.2714 11.9044 15.3125 11.9044C15.3535 11.9044 15.3941 11.8964 15.432 11.8806C15.47 11.8649 15.5044 11.8419 15.5334 11.8129L17.7209 9.6254C17.7781 9.56651 17.8098 9.48748 17.8092 9.40539C17.8086 9.3233 17.7757 9.24475 17.7177 9.18671C17.6596 9.12868 17.5811 9.09581 17.499 9.09522C17.4169 9.09463 17.3379 9.12637 17.279 9.18357L15.0915 11.3711C15.0329 11.4297 15 11.5091 15 11.592C15 11.6748 15.0329 11.7543 15.0915 11.8129Z" fill="black"/>
<path d="M15.625 10C15.7976 10 15.9375 9.86009 15.9375 9.6875C15.9375 9.51491 15.7976 9.375 15.625 9.375C15.4524 9.375 15.3125 9.51491 15.3125 9.6875C15.3125 9.86009 15.4524 10 15.625 10Z" fill="black"/>
<path d="M17.1875 11.5625C17.3601 11.5625 17.5 11.4226 17.5 11.25C17.5 11.0774 17.3601 10.9375 17.1875 10.9375C17.0149 10.9375 16.875 11.0774 16.875 11.25C16.875 11.4226 17.0149 11.5625 17.1875 11.5625Z" fill="black"/>
</svg>
