<svg width="21" height="20" viewBox="0 0 21 20" fill="none" xmlns="http://www.w3.org/2000/svg">
<g clip-path="url(#clip0_552_1483)">
<path d="M15.197 7.71576C15.187 7.71779 15.1769 7.71966 15.1667 7.72138C15.1617 7.72216 15.1569 7.72294 15.1519 7.72373C15.1414 7.72513 15.1308 7.72623 15.1202 7.72732C15.1156 7.72763 15.1111 7.7281 15.1066 7.72857C15.0914 7.72951 15.0763 7.73013 15.0609 7.73013H9.64359C9.12172 7.73013 8.68812 7.32279 8.61141 6.79248C8.60344 6.73763 8.59937 6.68154 8.59937 6.62435V0.790757C8.59937 0.773413 8.6 0.756069 8.60125 0.738882C8.60156 0.733569 8.60234 0.728257 8.60281 0.722788C8.60391 0.711069 8.605 0.699351 8.60656 0.687632C8.6075 0.681694 8.60859 0.675757 8.60953 0.669819C8.61141 0.658882 8.61328 0.647944 8.61547 0.637163C8.61672 0.631226 8.61812 0.625444 8.61953 0.619663C8.62109 0.613101 8.6225 0.606382 8.62422 0.599976H1.52922C0.961719 0.599976 0.5 1.06419 0.5 1.63513V18.3648C0.5 18.9356 0.961719 19.4 1.52922 19.4H14.1919C14.7594 19.4 15.2211 18.9356 15.2211 18.3648V7.71044C15.2178 7.71123 15.2144 7.71185 15.2111 7.71263C15.2064 7.71373 15.2017 7.71466 15.197 7.71576ZM2.96797 3.80919H6.92438C7.06359 3.80919 7.17641 3.92248 7.17641 4.06216C7.17641 4.20185 7.06359 4.31498 6.92438 4.31498H2.96797C2.82875 4.31498 2.71594 4.20185 2.71594 4.06216C2.71594 3.92248 2.82875 3.80919 2.96797 3.80919ZM2.96797 5.38763H6.92438C7.06359 5.38763 7.17641 5.50091 7.17641 5.6406C7.17641 5.78029 7.06359 5.89341 6.92438 5.89341H2.96797C2.82875 5.89341 2.71594 5.78029 2.71594 5.6406C2.71594 5.50091 2.82875 5.38763 2.96797 5.38763ZM2.71594 7.21904C2.71594 7.07935 2.82875 6.96607 2.96797 6.96607H6.92438C7.06359 6.96607 7.17641 7.07935 7.17641 7.21904C7.17641 7.35873 7.06359 7.47185 6.92438 7.47185H2.96797C2.82875 7.47185 2.71594 7.35873 2.71594 7.21904ZM7.90984 17.4395C6.16641 17.4395 4.74797 16.014 4.74797 14.2619C4.74797 12.5095 6.16625 11.084 7.90984 11.084C9.65312 11.084 11.0716 12.5095 11.0716 14.2619C11.0716 16.014 9.65312 17.4395 7.90984 17.4395Z" fill="#005A5A"/>
<path d="M18.0234 7.94519H20.4998V16.0889H18.0234V7.94519Z" fill="#005A5A"/>
<path d="M7.90961 11.5898C6.44414 11.5898 5.25195 12.7884 5.25195 14.2619C5.25195 15.7352 6.44414 16.9338 7.90961 16.9338C9.37492 16.9338 10.5671 15.7352 10.5671 14.2619C10.5671 12.7884 9.37492 11.5898 7.90961 11.5898ZM9.47039 13.4466L7.3143 15.6138L6.34883 14.6431C6.25039 14.5442 6.25055 14.3841 6.34914 14.2855C6.44773 14.1867 6.60742 14.1869 6.7057 14.2858L7.3143 14.8977L9.11336 13.0892C9.21164 12.9903 9.37133 12.9902 9.46992 13.0889C9.56852 13.1875 9.56867 13.3477 9.47039 13.4466Z" fill="#005A5A"/>
<path d="M9.64352 7.22433H15.061C15.0754 7.22433 15.088 7.22199 15.1001 7.21855C15.1059 7.21699 15.1116 7.21558 15.1173 7.21308C15.1196 7.21214 15.1218 7.21058 15.1241 7.20949C15.1302 7.20636 15.1363 7.20308 15.1421 7.19886C15.1435 7.19793 15.1448 7.19683 15.1462 7.19574C15.1529 7.19043 15.1595 7.18464 15.1657 7.17793C15.1662 7.17746 15.1668 7.17683 15.1673 7.17636C15.1713 7.17183 15.1752 7.16699 15.1788 7.16199C15.1795 7.16121 15.1801 7.16043 15.1807 7.15949C15.1843 7.15449 15.1876 7.14933 15.1907 7.14402C15.1912 7.14308 15.1916 7.1423 15.1923 7.14136C15.1977 7.13152 15.2023 7.12105 15.2063 7.11027C15.2076 7.10699 15.2088 7.10386 15.2099 7.10043C15.2113 7.09605 15.2124 7.09168 15.2135 7.0873C15.2145 7.08371 15.2154 7.07996 15.2162 7.07636C15.2171 7.07168 15.2179 7.06714 15.2185 7.06246C15.219 7.05871 15.2195 7.05496 15.2198 7.05105C15.2202 7.04636 15.2207 7.04152 15.2209 7.03668C15.2209 7.03199 15.2207 7.0273 15.2205 7.02261C15.2204 7.01949 15.2204 7.01621 15.2202 7.01308L15.2198 7.00886C15.2157 6.96949 15.2004 6.92902 15.1674 6.89355L9.36914 0.649957C9.34586 0.624801 9.32211 0.611207 9.29961 0.604644L9.29211 0.602926C9.27242 0.598707 9.25148 0.599488 9.23102 0.604801C9.23023 0.605113 9.22945 0.605269 9.22867 0.605582C9.2193 0.608082 9.21023 0.611676 9.20133 0.616207C9.20039 0.616519 9.19961 0.616988 9.19883 0.617457C9.18961 0.622144 9.18086 0.627926 9.17258 0.634488C9.16727 0.638707 9.16211 0.643394 9.15711 0.648551C9.15617 0.649332 9.15523 0.650426 9.1543 0.651363C9.14352 0.662926 9.13383 0.676519 9.12586 0.692301C9.12477 0.694332 9.12383 0.696676 9.12273 0.698863C9.11992 0.704957 9.11742 0.711363 9.11523 0.717926C9.1143 0.720738 9.11336 0.723551 9.11242 0.726519C9.11039 0.733394 9.10883 0.740738 9.10758 0.748238C9.10695 0.751207 9.10633 0.753863 9.10586 0.756988C9.10445 0.767613 9.10352 0.778863 9.10352 0.790738V6.62433C9.10352 6.95527 9.3457 7.22433 9.64352 7.22433Z" fill="#005A5A"/>
<path d="M19.865 6.15088H18.6581C18.3141 6.15088 18.0234 6.54447 18.0234 7.01025V7.41619H20.4997V7.01025C20.4997 6.54447 20.2091 6.15088 19.865 6.15088Z" fill="#005A5A"/>
<path d="M19.2622 18.5213L20.4852 16.5239H18.0391L19.2622 18.5213Z" fill="#005A5A"/>
</g>
<defs>
<clipPath id="clip0_552_1483">
<rect width="20" height="20" fill="white" transform="translate(0.5)"/>
</clipPath>
</defs>
</svg>
