<svg width="20" height="20" viewBox="0 0 20 20" fill="none" xmlns="http://www.w3.org/2000/svg">
<path d="M13.3113 16.8422C12.8152 16.8447 12.3195 16.8117 11.8281 16.7434L10.6113 18.3333L10.6137 18.336C11.3723 18.5555 12.3039 18.6848 13.3113 18.6848C15.8559 18.6848 17.9184 17.8598 17.9184 16.8422V14.9993C17.9184 16.0168 15.8559 16.8422 13.3113 16.8422Z" fill="#EDB740"/>
<path d="M13.3113 14.9993C12.9508 15.0004 12.5904 14.9834 12.2316 14.9481L11.8281 16.7435C12.3195 16.8117 12.8152 16.8447 13.3113 16.8423C15.8559 16.8423 17.9184 16.0169 17.9184 14.9993V13.1567C17.9184 14.1743 15.8559 14.9993 13.3113 14.9993Z" fill="#D8A43D"/>
<path d="M11.8486 13.0606L12.2318 14.9481C12.5906 14.9833 12.951 15.0004 13.3115 14.9993C15.8561 14.9993 17.9186 14.1743 17.9186 13.1567V11.3137L11.8486 13.0606Z" fill="#EDB740"/>
<path d="M6.68809 9.84419C4.14355 9.84419 2.08105 9.0188 2.08105 8.00122V9.84419C2.08105 10.5872 3.18027 11.2274 4.76426 11.5188L9.07363 10.5899L11.2947 9.81294V8.00122C11.2947 9.0188 9.23223 9.84419 6.68809 9.84419Z" fill="#D8A43D"/>
<path d="M11.2947 6.15869V8.00127C11.2947 9.01885 9.23223 9.84424 6.68809 9.84424C4.14395 9.84424 2.08105 9.01885 2.08105 8.00127V6.15869C2.08105 7.17627 4.14355 8.00127 6.68809 8.00127C9.23262 8.00127 11.2947 7.17627 11.2947 6.15869Z" fill="#EDB740"/>
<path d="M11.2947 4.31567V6.15864C11.2947 7.17622 9.23223 8.00122 6.68809 8.00122C4.14395 8.00122 2.08105 7.17622 2.08105 6.15864V4.31567C2.08105 5.33364 4.14355 6.15864 6.68809 6.15864C9.23262 6.15864 11.2947 5.33364 11.2947 4.31567Z" fill="#D8A43D"/>
<path d="M2.08105 2.47314V4.31572C2.08105 5.33369 4.14355 6.15869 6.68809 6.15869C9.23262 6.15869 11.2947 5.33369 11.2947 4.31572V2.47314H2.08105Z" fill="#EDB740"/>
<path d="M2.08105 9.84424V11.6868C2.08105 12.2356 2.68105 12.7282 3.63262 13.0661L3.6334 13.0665L4.76426 11.5188C3.18027 11.2274 2.08105 10.5872 2.08105 9.84424Z" fill="#EDB740"/>
<path d="M3.63262 13.0661C2.68105 12.7282 2.08105 12.2356 2.08105 11.6868V13.5293C2.08105 14.0012 2.52402 14.4313 3.25254 14.7571H3.25371L3.6334 13.0665L3.63262 13.0661Z" fill="#D8A43D"/>
<path d="M13.3117 9.47114C12.6352 9.46867 11.96 9.53081 11.2953 9.65669C10.3027 9.85005 9.51016 10.1821 9.07422 10.5899L11.8488 13.0606C12.3336 13.127 12.8224 13.1591 13.3117 13.1567C15.8562 13.1567 17.9187 12.3317 17.9187 11.3137C17.9187 10.2957 15.8562 9.47114 13.3117 9.47114Z" fill="#FFD54F"/>
<path d="M7.74234 19.3698C10.2223 19.3698 12.2327 17.3594 12.2327 14.8794C12.2327 12.3995 10.2223 10.389 7.74234 10.389C5.26237 10.389 3.25195 12.3995 3.25195 14.8794C3.25195 17.3594 5.26237 19.3698 7.74234 19.3698Z" fill="#FFB300"/>
<path d="M7.74258 18.0868C9.51399 18.0868 10.95 16.6508 10.95 14.8794C10.95 13.108 9.51399 11.672 7.74258 11.672C5.97117 11.672 4.53516 13.108 4.53516 14.8794C4.53516 16.6508 5.97117 18.0868 7.74258 18.0868Z" fill="#FFD54F"/>
<path d="M5.70713 14.8794C5.70724 14.1305 5.96943 13.4052 6.44824 12.8293C6.92704 12.2534 7.59228 11.8632 8.32861 11.7264C7.86557 11.64 7.3892 11.6567 6.93335 11.7753C6.47749 11.8938 6.05334 12.1113 5.69104 12.4123C5.32873 12.7133 5.03716 13.0904 4.83705 13.5168C4.63694 13.9432 4.5332 14.4084 4.5332 14.8794C4.5332 15.3504 4.63694 15.8157 4.83705 16.2421C5.03716 16.6685 5.32873 17.0456 5.69104 17.3466C6.05334 17.6475 6.47749 17.865 6.93335 17.9836C7.3892 18.1021 7.86557 18.1188 8.32861 18.0325C7.59228 17.8956 6.92705 17.5054 6.44824 16.9295C5.96944 16.3536 5.70725 15.6283 5.70713 14.8794Z" fill="#DDB443"/>
<path d="M3.25293 2.47314H2.08105V4.31572C2.08105 4.78752 2.52426 5.21775 3.25293 5.54373V2.47314Z" fill="#C69739"/>
<path d="M3.25293 5.54368C2.52426 5.21771 2.08105 4.78747 2.08105 4.31567V6.15864C2.08105 6.63024 2.52426 7.0604 3.25293 7.3863V5.54368Z" fill="#BA8B36"/>
<path d="M3.25293 7.38635C2.52426 7.06045 2.08105 6.63029 2.08105 6.15869V8.00127C2.08105 8.47287 2.52426 8.90311 3.25293 9.22912V7.38635Z" fill="#C69739"/>
<path d="M3.25293 9.22907C2.52426 8.90306 2.08105 8.47282 2.08105 8.00122V9.84419C2.08105 10.3158 2.52434 10.7458 3.25293 11.0717V9.22907Z" fill="#BA8B36"/>
<path d="M3.25293 11.0717C2.52434 10.7459 2.08105 10.3158 2.08105 9.84424V11.6868C2.08105 12.1585 2.52441 12.5885 3.25293 12.9146V11.0717Z" fill="#C69739"/>
<path d="M3.25293 12.9145C2.52441 12.5884 2.08105 12.1584 2.08105 11.6868V13.5293C2.08105 14.0012 2.52402 14.4313 3.25254 14.7571H3.25293V12.9145Z" fill="#BA8B36"/>
<path d="M6.68809 0.630127C9.23223 0.630127 11.2947 1.45513 11.2947 2.4731C11.2947 3.49106 9.23223 4.31567 6.68809 4.31567C4.14395 4.31567 2.08105 3.49067 2.08105 2.4731C2.08105 1.45552 4.14355 0.630127 6.68809 0.630127Z" fill="#FFD54F"/>
<path d="M3.25297 2.47314C3.25297 1.53458 5.00621 0.760093 7.27402 0.645015C7.08215 0.635275 6.88684 0.630353 6.68809 0.630249C4.14355 0.630249 2.08105 1.45525 2.08105 2.47322C2.08105 3.49119 4.14355 4.3158 6.68809 4.3158C6.88658 4.3158 7.08189 4.31087 7.27402 4.30103C5.00621 4.18583 3.25297 3.41134 3.25297 2.47314Z" fill="#E0B641"/>
<path d="M9.08203 13.9495H6.30859C6.24643 13.9495 6.18682 13.9742 6.14287 14.0181C6.09891 14.0621 6.07422 14.1217 6.07422 14.1838C6.07422 14.246 6.09891 14.3056 6.14287 14.3496C6.18682 14.3935 6.24643 14.4182 6.30859 14.4182H7.46094V16.7569C7.46094 16.819 7.48563 16.8787 7.52958 16.9226C7.57354 16.9666 7.63315 16.9913 7.69531 16.9913C7.75747 16.9913 7.81709 16.9666 7.86104 16.9226C7.90499 16.8787 7.92969 16.819 7.92969 16.7569V14.4182H9.08203C9.14419 14.4182 9.20381 14.3935 9.24776 14.3496C9.29171 14.3056 9.31641 14.246 9.31641 14.1838C9.31641 14.1217 9.29171 14.0621 9.24776 14.0181C9.20381 13.9742 9.14419 13.9495 9.08203 13.9495Z" fill="#284268"/>
<path d="M9.08203 13.2919H6.30859C6.24643 13.2919 6.18682 13.3166 6.14287 13.3605C6.09891 13.4045 6.07422 13.4641 6.07422 13.5262C6.07422 13.5884 6.09891 13.648 6.14287 13.692C6.18682 13.7359 6.24643 13.7606 6.30859 13.7606H9.08203C9.14419 13.7606 9.20381 13.7359 9.24776 13.692C9.29171 13.648 9.31641 13.5884 9.31641 13.5262C9.31641 13.4641 9.29171 13.4045 9.24776 13.3605C9.20381 13.3166 9.14419 13.2919 9.08203 13.2919Z" fill="#284268"/>
<path d="M2.91705 2.6965C2.96515 2.73588 3.02691 2.75454 3.08876 2.74837C3.15061 2.74221 3.20748 2.71174 3.24686 2.66365C3.27479 2.62951 3.37065 2.54533 3.55276 2.44627C3.57991 2.43177 3.60394 2.41207 3.62348 2.38828C3.64302 2.3645 3.65768 2.3371 3.66662 2.30765C3.67557 2.2782 3.67863 2.24728 3.67563 2.21664C3.67263 2.18601 3.66362 2.15627 3.64912 2.12912C3.63463 2.10197 3.61493 2.07794 3.59114 2.0584C3.56736 2.03886 3.53996 2.0242 3.51051 2.01525C3.48106 2.0063 3.45013 2.00324 3.4195 2.00624C3.38887 2.00925 3.35913 2.01825 3.33198 2.03275L3.32881 2.03447C3.05795 2.18177 2.93397 2.30584 2.88416 2.3665C2.86465 2.39031 2.85002 2.41772 2.8411 2.44718C2.83219 2.47664 2.82916 2.50757 2.8322 2.53819C2.83523 2.56882 2.84427 2.59855 2.8588 2.62569C2.87333 2.65283 2.89305 2.67683 2.91686 2.69634L2.91705 2.6965Z" fill="#284268"/>
<path d="M4.28825 2.14419C4.31 2.14419 4.33164 2.14115 4.35255 2.13517C5.0186 1.9456 5.84829 1.84119 6.68884 1.84119C6.751 1.84119 6.81061 1.81649 6.85457 1.77254C6.89852 1.72859 6.92321 1.66897 6.92321 1.60681C6.92321 1.54465 6.89852 1.48504 6.85457 1.44108C6.81061 1.39713 6.751 1.37244 6.68884 1.37244C5.79333 1.37244 4.94106 1.48029 4.22423 1.68431C4.16978 1.69973 4.12275 1.73433 4.09182 1.78172C4.06089 1.82911 4.04815 1.88609 4.05595 1.94214C4.06375 1.99819 4.09157 2.04952 4.13427 2.08666C4.17697 2.1238 4.23166 2.14423 4.28825 2.14419Z" fill="#284268"/>
<path d="M7.90305 11.4415C7.3777 11.4166 6.85366 11.5126 6.37115 11.7218C5.88865 11.9311 5.46052 12.2482 5.11964 12.6487C4.77876 13.0492 4.5342 13.5225 4.40474 14.0322C4.27527 14.542 4.26435 15.0746 4.37281 15.5893C4.48126 16.1039 4.70621 16.5868 5.03038 17.001C5.35455 17.4151 5.76932 17.7495 6.24284 17.9784C6.71636 18.2072 7.23604 18.3246 7.76196 18.3213C8.28788 18.3181 8.80607 18.1943 9.27673 17.9596C9.31037 17.9425 9.33938 17.9175 9.36128 17.8868C9.38319 17.856 9.39735 17.8204 9.40255 17.7831C9.40776 17.7457 9.40386 17.7076 9.39118 17.672C9.3785 17.6365 9.35742 17.6045 9.32973 17.5788C9.29432 17.5462 9.24977 17.5251 9.20206 17.5185C9.15435 17.5119 9.10576 17.5201 9.06282 17.5419C8.42756 17.8571 7.70059 17.9348 7.01304 17.7612C6.3255 17.5876 5.72263 17.1739 5.31319 16.595C4.90374 16.016 4.71468 15.3097 4.7801 14.6036C4.84552 13.8975 5.16112 13.238 5.66997 12.7441C6.17881 12.2502 6.84741 11.9543 7.55516 11.91C8.2629 11.8656 8.96321 12.0756 9.52975 12.5021C10.0963 12.9286 10.4918 13.5435 10.6449 14.236C10.798 14.9284 10.6986 15.6527 10.3647 16.2783C10.3403 16.3228 10.3314 16.3741 10.3393 16.4242C10.3473 16.4743 10.3716 16.5203 10.4085 16.5551L10.4189 16.5647C10.4444 16.5885 10.4751 16.606 10.5084 16.616C10.5418 16.626 10.577 16.6283 10.6114 16.6226C10.6458 16.6168 10.6784 16.6033 10.7067 16.583C10.735 16.5627 10.7583 16.5362 10.7747 16.5054C11.0497 15.9932 11.1903 15.4196 11.1836 14.8383C11.1768 14.257 11.0228 13.6868 10.7361 13.1811C10.4493 12.6754 10.039 12.2506 9.54363 11.9464C9.04821 11.6422 8.48379 11.4685 7.90305 11.4415Z" fill="#284268"/>
<path d="M16.6559 9.79322C15.7587 9.43435 14.5709 9.23669 13.3112 9.23669C12.7144 9.23557 12.1184 9.28285 11.5292 9.37806V2.47302C11.5292 1.87849 10.9977 1.33845 10.0325 0.952397C9.13535 0.59353 7.94758 0.395874 6.68793 0.395874C5.42828 0.395874 4.24051 0.59353 3.34336 0.952397C2.3782 1.33845 1.84668 1.87849 1.84668 2.47302V13.5295C1.84668 14.0501 2.26109 14.5353 3.01754 14.906C3.02203 15.7903 3.27475 16.6555 3.74691 17.4033C4.21907 18.151 4.8917 18.7511 5.68822 19.1353C6.48473 19.5194 7.37311 19.6722 8.25221 19.5763C9.1313 19.4803 9.96578 19.1394 10.6606 18.5924C11.4456 18.8062 12.3588 18.9192 13.3113 18.9192C14.5709 18.9192 15.7587 18.7216 16.6559 18.3627C17.621 17.9767 18.1525 17.4366 18.1525 16.8421V11.3138C18.1525 10.7193 17.621 10.1792 16.6559 9.79322ZM3.51742 1.38759C4.36055 1.05037 5.48652 0.864624 6.68797 0.864624C7.88941 0.864624 9.01535 1.05037 9.85848 1.38759C10.6223 1.69318 11.0605 2.0888 11.0605 2.47302C11.0605 2.85724 10.6223 3.25287 9.85848 3.55861C9.01535 3.89583 7.88937 4.08158 6.68797 4.08158C5.48656 4.08158 4.36055 3.89568 3.51742 3.55861C2.75352 3.25287 2.31543 2.85728 2.31543 2.47302C2.31543 2.08876 2.75352 1.69318 3.51742 1.38759ZM2.31543 5.23283C2.46511 5.36572 2.62884 5.48189 2.80371 5.57927C2.83015 5.59579 2.85963 5.60686 2.8904 5.61182C2.92118 5.61679 2.95264 5.61556 2.98294 5.6082C3.01323 5.60084 3.04175 5.58751 3.06682 5.56897C3.09189 5.55044 3.113 5.52708 3.12892 5.50028C3.14484 5.47347 3.15524 5.44375 3.15951 5.41287C3.16379 5.38199 3.16185 5.35056 3.15381 5.32044C3.14577 5.29032 3.13179 5.26211 3.11269 5.23746C3.0936 5.21282 3.06978 5.19224 3.04262 5.17693C3.03977 5.17525 3.03688 5.17361 3.03395 5.17205C2.5718 4.91033 2.31543 4.60986 2.31543 4.31603V3.39025C2.56504 3.61642 2.91039 3.82064 3.34332 3.9938C4.24051 4.35267 5.42828 4.55033 6.68797 4.55033C7.94766 4.55033 9.13539 4.35267 10.0325 3.9938C10.4655 3.82064 10.8109 3.61642 11.0605 3.39025V4.31603C11.0605 4.70029 10.6223 5.09591 9.85848 5.40146C9.01539 5.73869 7.88937 5.92443 6.68797 5.92443C6.09263 5.92615 5.49822 5.87759 4.91105 5.77927C4.87776 5.77337 4.84357 5.77482 4.81089 5.78353C4.77822 5.79224 4.74784 5.80799 4.7219 5.82969C4.69595 5.85138 4.67507 5.87848 4.66071 5.9091C4.64636 5.93972 4.63887 5.97311 4.63879 6.00693V6.01275C4.63876 6.06735 4.65804 6.1202 4.69322 6.16196C4.7284 6.20372 4.7772 6.2317 4.83102 6.24095C5.4446 6.34395 6.0658 6.39491 6.68797 6.3933C7.94762 6.3933 9.13543 6.19564 10.0325 5.83681C10.4655 5.66361 10.8109 5.45939 11.0605 5.23322V6.159C11.0605 6.54322 10.6223 6.93884 9.85848 7.24439C9.01535 7.58166 7.88937 7.7674 6.68797 7.7674C5.48656 7.7674 4.36047 7.58169 3.51742 7.24447C2.75352 6.93861 2.31543 6.54314 2.31543 6.15853V5.23283ZM2.31543 7.07564C2.56504 7.30181 2.91039 7.50607 3.34332 7.67923C4.24043 8.03802 5.42824 8.23568 6.68797 8.23568C7.9477 8.23568 9.13539 8.03802 10.0325 7.67916C10.4655 7.50599 10.8109 7.30173 11.0605 7.07556V8.00134C11.0605 8.38556 10.6223 8.78119 9.85848 9.08673C9.01535 9.42396 7.88937 9.6097 6.68797 9.6097C5.48656 9.6097 4.36055 9.42396 3.51742 9.08673C2.75352 8.78126 2.31543 8.38552 2.31543 8.0013V7.07564ZM2.31543 8.91833C2.56504 9.14451 2.91039 9.34873 3.34332 9.52193C4.24051 9.8808 5.42828 10.0784 6.68797 10.0784C7.94766 10.0784 9.13539 9.8808 10.0325 9.52193C10.4655 9.34873 10.8109 9.14451 11.0605 8.91833V9.46751C10.1926 9.6572 9.47172 9.95529 9.01641 10.3294C8.27488 10.1218 7.49382 10.0988 6.74134 10.2623C5.98887 10.4259 5.28784 10.7711 4.69941 11.2678C3.26875 10.9859 2.31543 10.4195 2.31543 9.84404V8.91833ZM2.31543 10.7579C2.73211 11.1363 3.41125 11.4504 4.28887 11.6583C3.97888 11.9902 3.71815 12.3649 3.51465 12.7709C2.75973 12.4681 2.31543 12.07 2.31543 11.6868V10.7579ZM3.04258 14.3894C2.57691 14.126 2.31551 13.8213 2.31551 13.5295V12.606C2.5616 12.8282 2.90086 13.0287 3.3259 13.2002C3.17995 13.5825 3.0847 13.9823 3.04258 14.3894ZM10.7254 17.5313C10.6814 17.4873 10.6218 17.4626 10.5596 17.4626C10.4975 17.4626 10.4378 17.4873 10.3939 17.5313C10.3499 17.5752 10.3252 17.6349 10.3252 17.697C10.3253 17.7592 10.3499 17.8188 10.3939 17.8627L10.5796 18.0484C9.86044 18.695 8.94182 19.0763 7.97617 19.1289V18.8643C7.97617 18.8021 7.95148 18.7425 7.90753 18.6985C7.86357 18.6546 7.80396 18.6299 7.7418 18.6299C7.67964 18.6299 7.62002 18.6546 7.57607 18.6985C7.53211 18.7425 7.50742 18.8021 7.50742 18.8643V19.1289C6.54184 19.0763 5.62329 18.6951 4.90418 18.0485L5.08984 17.8629C5.1338 17.8189 5.1585 17.7593 5.1585 17.6972C5.1585 17.635 5.1338 17.5754 5.08984 17.5314C5.04589 17.4875 4.98627 17.4628 4.9241 17.4628C4.86194 17.4628 4.80232 17.4875 4.75836 17.5314L4.57273 17.7171C3.92621 16.998 3.545 16.0794 3.49234 15.1138H3.75703C3.81919 15.1138 3.87881 15.0891 3.92276 15.0452C3.96671 15.0012 3.99141 14.9416 3.99141 14.8795C3.99141 14.8173 3.96671 14.7577 3.92276 14.7137C3.87881 14.6698 3.81919 14.6451 3.75703 14.6451H3.4925C3.54515 13.6795 3.92637 12.761 4.57289 12.0419L4.75855 12.2276C4.80251 12.2715 4.86212 12.2962 4.92428 12.2962C4.98644 12.2962 5.04606 12.2715 5.09002 12.2276C5.13398 12.1836 5.15867 12.124 5.15868 12.0618C5.15868 11.9997 5.13399 11.9401 5.09004 11.8961L4.90434 11.7104C5.62341 11.0639 6.54189 10.6827 7.50742 10.6299V10.8945C7.50742 10.9567 7.53211 11.0163 7.57607 11.0603C7.62002 11.1042 7.67964 11.1289 7.7418 11.1289C7.80396 11.1289 7.86357 11.1042 7.90753 11.0603C7.95148 11.0163 7.97617 10.9567 7.97617 10.8945V10.6299C8.94175 10.6825 9.8603 11.0637 10.5794 11.7102L10.3937 11.896C10.3719 11.9177 10.3547 11.9436 10.3429 11.972C10.3311 12.0004 10.3251 12.0309 10.3251 12.0617C10.3251 12.0925 10.3311 12.1229 10.3429 12.1514C10.3547 12.1798 10.372 12.2057 10.3937 12.2274C10.4155 12.2492 10.4413 12.2664 10.4698 12.2782C10.4982 12.29 10.5287 12.2961 10.5595 12.2961C10.5902 12.2961 10.6207 12.29 10.6492 12.2782C10.6776 12.2664 10.7034 12.2492 10.7252 12.2274L10.9109 12.0417C11.5574 12.7608 11.9386 13.6794 11.9912 14.6449H11.7266C11.6644 14.6449 11.6048 14.6696 11.5609 14.7136C11.5169 14.7575 11.4922 14.8172 11.4922 14.8793C11.4922 14.9415 11.5169 15.0011 11.5609 15.045C11.6048 15.089 11.6644 15.1137 11.7266 15.1137H11.9912C11.9386 16.0793 11.5574 16.9978 10.9109 17.7169L10.7254 17.5313ZM17.6838 16.842C17.6838 17.2263 17.2457 17.6219 16.4818 17.9274C15.6387 18.2647 14.5127 18.4504 13.3113 18.4504C12.5626 18.4547 11.8159 18.3758 11.0847 18.2152C11.4407 17.8586 11.7377 17.4475 11.9645 16.9975C12.4021 17.0499 12.8424 17.0763 13.2832 17.0765C14.5429 17.0765 15.7587 16.8788 16.6559 16.52C17.0888 16.3468 17.4342 16.1426 17.6838 15.9164V16.842ZM17.6838 14.9992C17.6838 15.3835 17.2457 15.7791 16.4818 16.0847C15.6387 16.4219 14.5127 16.6076 13.3099 16.6076C12.9264 16.6095 12.5432 16.5896 12.1619 16.5483C12.3254 16.1165 12.4243 15.6629 12.4554 15.2023C12.7352 15.223 13.0214 15.2335 13.2966 15.2335C14.5563 15.2335 15.7586 15.0359 16.656 14.677C17.0889 14.5038 17.4343 14.2996 17.6839 14.0735L17.6838 14.9992ZM17.6838 13.1565C17.6838 13.5408 17.2457 13.9364 16.4818 14.2419C15.6387 14.5792 14.5127 14.7649 13.3106 14.7649C13.0294 14.7652 12.7457 14.7544 12.4642 14.7327C12.45 14.2576 12.3637 13.7875 12.2084 13.3383C12.5669 13.3731 12.934 13.391 13.2847 13.391C14.5444 13.391 15.7587 13.1933 16.6558 12.8344C17.0887 12.6612 17.4341 12.457 17.6837 12.2308L17.6838 13.1565ZM16.4818 12.3992C15.6387 12.7365 14.5127 12.9222 13.3099 12.9222C12.8739 12.9244 12.4382 12.8984 12.0055 12.8447C11.5018 11.7954 10.6308 10.9675 9.55738 10.5176C10.3525 10.0229 11.7824 9.70544 13.3113 9.70544C14.5127 9.70544 15.6387 9.89119 16.4818 10.2284C17.2457 10.534 17.6838 10.9296 17.6838 11.3138C17.6838 11.6981 17.2457 12.0938 16.4818 12.3992Z" fill="#284268"/>
</svg>
