<svg width="20" height="20" viewBox="0 0 20 20" fill="none" xmlns="http://www.w3.org/2000/svg">
<path fill-rule="evenodd" clip-rule="evenodd" d="M0.000200186 14.3649C0.944898 14.4094 1.83602 14.6523 2.57912 15.0658C2.59604 15.0638 2.61327 15.0625 2.63089 15.0625H9.50877C9.68383 15.0625 9.82574 15.1644 9.82574 15.2901C9.82574 15.4157 9.68383 15.5176 9.50877 15.5176H3.24771C3.7153 15.8998 4.0522 16.3452 4.24198 16.8259H9.50877C9.68383 16.8259 9.82574 16.9278 9.82574 17.0535C9.82574 17.1791 9.68383 17.281 9.50877 17.281H4.37528C4.40582 17.438 4.42174 17.5975 4.42174 17.7588C4.42174 18.0425 4.37367 18.3209 4.28023 18.5893H15.4041C15.5792 18.5893 15.7211 18.6911 15.7211 18.8168C15.7211 18.9425 15.5792 19.0443 15.4041 19.0443H4.10468C4.09406 19.0443 4.08364 19.0439 4.07333 19.0432C3.87654 19.3899 3.59893 19.7128 3.24761 19.9999H18.0347V1.41064H0V14.3649H0.000200186ZM15.6632 16.9176C15.787 17.0064 15.787 17.1505 15.6632 17.2394C15.6013 17.2838 15.5202 17.306 15.4391 17.306C15.3579 17.306 15.2768 17.2838 15.2149 17.2394L13.7021 16.1534L12.1892 17.2394C12.1273 17.2838 12.0463 17.306 11.9651 17.306C11.884 17.306 11.8029 17.2838 11.741 17.2394C11.6172 17.1505 11.6172 17.0064 11.741 16.9176L13.2538 15.8316L11.741 14.7455C11.6172 14.6567 11.6172 14.5126 11.741 14.4237C11.8648 14.3349 12.0655 14.3349 12.1892 14.4237L13.7021 15.5098L15.2149 14.4237C15.3387 14.3349 15.5394 14.3349 15.6632 14.4237C15.787 14.5126 15.787 14.6567 15.6632 14.7455L14.1503 15.8316L15.6632 16.9176ZM16.3868 12.6961H10.0001C9.82504 12.6961 9.68313 12.5943 9.68313 12.4686C9.68313 12.3429 9.82504 12.2411 10.0001 12.2411H16.3868C16.5618 12.2411 16.7037 12.3429 16.7037 12.4686C16.7037 12.5943 16.5618 12.6961 16.3868 12.6961ZM16.3868 11.2855H10.0001C9.82504 11.2855 9.68313 11.1836 9.68313 11.058C9.68313 10.9323 9.82504 10.8304 10.0001 10.8304H16.3868C16.5618 10.8304 16.7037 10.9323 16.7037 11.058C16.7037 11.1836 16.5618 11.2855 16.3868 11.2855ZM12.4565 2.36625C13.591 2.36625 14.6576 2.68345 15.4597 3.25924C16.2619 3.83511 16.7037 4.60078 16.7037 5.41519C16.7037 6.2296 16.2619 6.99527 15.4597 7.57106C14.6575 8.14693 13.5909 8.46405 12.4565 8.46405C11.3222 8.46405 10.2556 8.14693 9.45339 7.57106C8.65121 6.99519 8.20945 6.22953 8.20945 5.41519C8.20945 4.60078 8.65131 3.83511 9.45339 3.25924C10.2555 2.68338 11.3221 2.36625 12.4565 2.36625ZM1.64844 2.36625H8.03509C8.21015 2.36625 8.35206 2.46813 8.35206 2.5938C8.35206 2.71947 8.21015 2.82134 8.03509 2.82134H1.64844C1.47338 2.82134 1.33147 2.71947 1.33147 2.5938C1.33147 2.46813 1.47338 2.36625 1.64844 2.36625ZM1.64844 3.77695H7.05254C7.2276 3.77695 7.36951 3.87882 7.36951 4.00449C7.36951 4.13016 7.2276 4.23204 7.05254 4.23204H1.64844C1.47338 4.23204 1.33147 4.13016 1.33147 4.00449C1.33147 3.87882 1.47338 3.77695 1.64844 3.77695ZM1.64844 5.18764H7.05254C7.2276 5.18764 7.36951 5.28952 7.36951 5.41519C7.36951 5.54086 7.2276 5.64273 7.05254 5.64273H1.64844C1.47338 5.64273 1.33147 5.54086 1.33147 5.41519C1.33147 5.28952 1.47338 5.18764 1.64844 5.18764ZM1.64844 6.59834H7.05254C7.2276 6.59834 7.36951 6.70021 7.36951 6.82588C7.36951 6.95155 7.2276 7.05343 7.05254 7.05343H1.64844C1.47338 7.05343 1.33147 6.95155 1.33147 6.82588C1.33147 6.70021 1.47338 6.59834 1.64844 6.59834ZM1.64844 8.00904H7.05254C7.2276 8.00904 7.36951 8.11091 7.36951 8.23658C7.36951 8.36225 7.2276 8.46412 7.05254 8.46412H1.64844C1.47338 8.46412 1.33147 8.36225 1.33147 8.23658C1.33147 8.11091 1.47338 8.00904 1.64844 8.00904ZM1.64844 9.41973H16.3868C16.5618 9.41973 16.7037 9.52161 16.7037 9.64728C16.7037 9.77295 16.5618 9.87482 16.3868 9.87482H1.64844C1.47338 9.87482 1.33147 9.77295 1.33147 9.64728C1.33147 9.52161 1.47338 9.41973 1.64844 9.41973ZM1.64844 10.8304H8.03509C8.21015 10.8304 8.35206 10.9323 8.35206 11.058C8.35206 11.1836 8.21015 11.2855 8.03509 11.2855H1.64844C1.47338 11.2855 1.33147 11.1836 1.33147 11.058C1.33147 10.9323 1.47338 10.8304 1.64844 10.8304ZM1.64844 12.2411H8.03509C8.21015 12.2411 8.35206 12.343 8.35206 12.4687C8.35206 12.5943 8.21015 12.6962 8.03509 12.6962H1.64844C1.47338 12.6962 1.33147 12.5943 1.33147 12.4687C1.33147 12.3429 1.47338 12.2411 1.64844 12.2411ZM1.64844 13.6518H9.01765C9.19271 13.6518 9.33462 13.7537 9.33462 13.8794C9.33462 14.005 9.19271 14.1069 9.01765 14.1069H1.64844C1.47338 14.1069 1.33147 14.005 1.33147 13.8794C1.33147 13.7537 1.47338 13.6518 1.64844 13.6518Z" fill="#BF0000" fill-opacity="0.7"/>
<path fill-rule="evenodd" clip-rule="evenodd" d="M1.96582 0.955609H18.3523C18.5273 0.955609 18.6692 1.05748 18.6692 1.18315V18.5893H20.0004V0H1.96582V0.955609Z" fill="#BF0000" fill-opacity="0.7"/>
<path fill-rule="evenodd" clip-rule="evenodd" d="M12.457 8.00911C14.4493 8.00911 16.0702 6.84551 16.0702 5.41526C16.0702 3.98501 14.4493 2.82141 12.457 2.82141C10.4646 2.82141 8.84375 3.98501 8.84375 5.41526C8.84375 6.84551 10.4646 8.00911 12.457 8.00911ZM12.14 4.00456C12.14 3.87889 12.2819 3.77702 12.457 3.77702C12.6321 3.77702 12.774 3.87889 12.774 4.00456V5.41526C12.774 5.54093 12.6321 5.6428 12.457 5.6428C12.2819 5.6428 12.14 5.54093 12.14 5.41526V4.00456ZM12.14 6.47325C12.14 6.34758 12.2819 6.2457 12.457 6.2457C12.6321 6.2457 12.774 6.34758 12.774 6.47325V6.82588C12.774 6.95155 12.6321 7.05343 12.457 7.05343C12.2819 7.05343 12.14 6.95155 12.14 6.82588V6.47325Z" fill="#BF0000" fill-opacity="0.7"/>
</svg>
