<svg width="21" height="20" viewBox="0 0 21 20" fill="none" xmlns="http://www.w3.org/2000/svg">
<path d="M1.4375 18.4375H6.4375V19.0625H1.4375V18.4375Z" fill="#F4B241"/>
<path d="M1.4375 9.6875H6.4375V10.3125H1.4375V9.6875Z" fill="#F4B241"/>
<path d="M15.5 8.125C15.5 8.20788 15.4671 8.28737 15.4085 8.34597C15.3499 8.40458 15.2704 8.4375 15.1875 8.4375H5.8125C5.72962 8.4375 5.65013 8.40458 5.59153 8.34597C5.53292 8.28737 5.5 8.20788 5.5 8.125V4.375C5.5 4.29212 5.53292 4.21263 5.59153 4.15403C5.65013 4.09542 5.72962 4.0625 5.8125 4.0625H13.625V2.8125H4.25V9.0625H6.75C6.83288 9.0625 6.91237 9.09542 6.97097 9.15403C7.02958 9.21263 7.0625 9.29212 7.0625 9.375V10.625C7.0625 10.7079 7.02958 10.7874 6.97097 10.846C6.91237 10.9046 6.83288 10.9375 6.75 10.9375H6.4375V12.2188C6.43712 12.5492 6.34958 12.8738 6.18372 13.1596C6.01786 13.4455 5.77954 13.6825 5.49281 13.8469L4.56719 14.375L5.49281 14.9038C5.77945 15.068 6.01771 15.305 6.18357 15.5907C6.34942 15.8765 6.43701 16.2009 6.4375 16.5312V17.8125H6.75C6.83288 17.8125 6.91237 17.8454 6.97097 17.904C7.02958 17.9626 7.0625 18.0421 7.0625 18.125V19.0625H16.75V5.9375H15.5V8.125ZM15.5 17.8125H12.375V17.1875H15.5V17.8125ZM15.5 16.5625H12.375V15.9375H15.5V16.5625ZM15.5 14.0625H7.6875V13.4375H15.5V14.0625ZM15.5 12.8125H7.6875V12.1875H15.5V12.8125ZM15.5 11.5625H7.6875V10.9375H15.5V11.5625ZM15.5 10.3125H7.6875V9.6875H15.5V10.3125Z" fill="#F4B241"/>
<path d="M2.0625 16.5312V17.8125H5.8125V16.5312C5.81226 16.3109 5.75389 16.0945 5.64327 15.904C5.53265 15.7134 5.37371 15.5554 5.1825 15.4459L3.9375 14.735L2.6925 15.4465C2.50138 15.556 2.3425 15.7139 2.23189 15.9043C2.12128 16.0948 2.06285 16.311 2.0625 16.5312Z" fill="#F4B241"/>
<path d="M5.8125 12.2187V10.9375H2.0625V12.2187C2.06274 12.4391 2.12111 12.6555 2.23173 12.846C2.34235 13.0366 2.50129 13.1946 2.6925 13.3041L3.9375 14.015L5.1825 13.3034C5.37362 13.194 5.5325 13.0361 5.64311 12.8457C5.75372 12.6552 5.81215 12.439 5.8125 12.2187Z" fill="#F4B241"/>
<path d="M7.0625 0.9375V2.1875H13.9375C14.0204 2.18752 14.0998 2.22045 14.1584 2.27906L17.2834 5.40406C17.342 5.46265 17.375 5.54213 17.375 5.625V17.1875H19.5625V0.9375H7.0625Z" fill="#F4B241"/>
<path d="M14.25 3.25439V5.31252H16.3081L14.25 3.25439Z" fill="#F4B241"/>
<path d="M13.625 5.625V4.6875H6.125V7.8125H14.875V5.9375H13.9375C13.8546 5.9375 13.7751 5.90458 13.7165 5.84597C13.6579 5.78737 13.625 5.70788 13.625 5.625ZM13 7.1875H6.75V6.5625H13V7.1875ZM13 5.9375H8V5.3125H13V5.9375Z" fill="#F4B241"/>
</svg>
