<svg width="20" height="20" viewBox="0 0 20 20" fill="none" xmlns="http://www.w3.org/2000/svg">
<path d="M20.0002 13.7474C20.0002 13.7073 20.0002 13.6673 20.0002 13.6273C19.9673 12.6921 19.5717 11.8415 18.9404 11.2046C18.9358 11.2002 18.931 11.1956 18.931 11.1956C18.9075 11.1689 18.8792 11.1467 18.8509 11.1199C18.8414 11.111 18.832 11.1021 18.8225 11.0931C18.8131 11.0842 18.7991 11.071 18.7896 11.062C18.7802 11.0531 18.7708 11.0442 18.7568 11.0309C18.0831 10.434 17.1834 10.0557 16.1943 10.0289C16.1519 10.0289 16.1096 10.0289 16.0672 10.0289V6.23905L14.0417 4.32424V1.56292C14.0417 1.19348 13.7262 0.894897 13.3351 0.894897H0.711443C0.320689 0.894897 0.00488281 1.19348 0.00488281 1.56292V17.4171C0.00488281 17.7866 0.320689 18.0849 0.711443 18.0849H2.03045V19.3319C2.03045 19.7017 2.34597 20 2.73701 20H15.3607C15.7514 20 16.0672 19.7017 16.0672 19.3319V17.475H16.1848C16.1802 17.475 16.1802 17.475 16.1754 17.475H16.1943H16.2603C17.2258 17.4304 18.0974 17.0564 18.7568 16.473C18.7662 16.4641 18.7756 16.4551 18.7896 16.4416C18.7991 16.4327 18.8131 16.4194 18.8225 16.4105C18.832 16.4016 18.8414 16.3927 18.8509 16.3837C18.8792 16.3572 18.9026 16.3348 18.931 16.308C18.9358 16.3037 18.9404 16.2991 18.9404 16.2991C19.5717 15.6624 19.9719 14.8119 20.0002 13.8766C20.0002 13.8277 20.0002 13.7874 20.0002 13.7474Z" fill="#382B73"/>
<path d="M13.3302 17.19H0.70656C0.31552 17.19 0 16.8917 0 16.522V0.668019C0 0.29831 0.31552 0 0.70656 0H13.3302C13.721 0 14.0368 0.29831 14.0368 0.668019V16.522C14.0368 16.8917 13.721 17.19 13.3302 17.19Z" fill="#FEDE3A"/>
<path d="M16.0622 5.34387V18.4368C16.0622 18.8065 15.7467 19.1048 15.3556 19.1048H2.73195C2.3412 19.1048 2.02539 18.8065 2.02539 18.4368V2.58281C2.02539 2.2131 2.3412 1.91479 2.73195 1.91479H12.4353L16.0622 5.34387Z" fill="white"/>
<path d="M12.4355 1.91479L16.0625 5.34387H13.1421C12.7511 5.34387 12.4355 5.04556 12.4355 4.67585V1.91479Z" fill="#E6E7E8"/>
<path d="M10.1928 17.6887H4.05514C3.82916 17.6887 3.64551 17.515 3.64551 17.3011C3.64551 17.0874 3.82916 16.9138 4.05514 16.9138H10.1976C10.4236 16.9138 10.6073 17.0874 10.6073 17.3011C10.6027 17.515 10.4188 17.6887 10.1928 17.6887Z" fill="#E6E7E8"/>
<path d="M10.1928 17.4661H4.05514C3.82916 17.4661 3.64551 17.2922 3.64551 17.0786C3.64551 16.8649 3.82916 16.6913 4.05514 16.6913H10.1976C10.4236 16.6913 10.6073 16.8649 10.6073 17.0786C10.6027 17.2922 10.4188 17.4661 10.1928 17.4661Z" fill="#D1D3D4"/>
<path d="M10.1928 17.1097H4.05512C3.89522 17.1097 3.75848 17.0253 3.68782 16.9004C3.6595 16.9539 3.64062 17.0164 3.64062 17.0786C3.64062 17.2923 3.82456 17.4662 4.05054 17.4662H10.1928C10.4187 17.4662 10.6027 17.2923 10.6027 17.0786C10.6027 17.0164 10.5838 16.9539 10.5555 16.9004C10.4894 17.0253 10.3529 17.1097 10.1928 17.1097Z" fill="#BCBEC0"/>
<path d="M13.961 9.36091H4.05514C3.82916 9.36091 3.64551 9.18728 3.64551 8.97335C3.64551 8.75969 3.82916 8.58606 4.05514 8.58606H13.9659C14.1918 8.58606 14.3755 8.75969 14.3755 8.97335C14.3709 9.18728 14.187 9.36091 13.961 9.36091Z" fill="#E6E7E8"/>
<path d="M13.961 9.13828H4.05514C3.82916 9.13828 3.64551 8.96438 3.64551 8.75072C3.64551 8.53706 3.82916 8.36316 4.05514 8.36316H13.9659C14.1918 8.36316 14.3755 8.53706 14.3755 8.75072C14.3709 8.96438 14.187 9.13828 13.961 9.13828Z" fill="#D1D3D4"/>
<path d="M13.961 8.78184H4.05512C3.89522 8.78184 3.75848 8.69719 3.68782 8.57251C3.6595 8.62606 3.64062 8.68853 3.64062 8.75074C3.64062 8.9644 3.82456 9.1383 4.05054 9.1383H13.961C14.187 9.1383 14.3709 8.9644 14.3709 8.75074C14.3709 8.68853 14.352 8.62606 14.3237 8.57251C14.2576 8.69719 14.1212 8.78184 13.961 8.78184Z" fill="#BCBEC0"/>
<path d="M13.961 11.5429H4.05514C3.82916 11.5429 3.64551 11.3693 3.64551 11.1556C3.64551 10.9417 3.82916 10.7681 4.05514 10.7681H13.9659C14.1918 10.7681 14.3755 10.9417 14.3755 11.1556C14.3709 11.3693 14.187 11.5429 13.961 11.5429Z" fill="#E6E7E8"/>
<path d="M13.961 11.3204H4.05514C3.82916 11.3204 3.64551 11.1467 3.64551 10.9331C3.64551 10.7192 3.82916 10.5455 4.05514 10.5455H13.9659C14.1918 10.5455 14.3755 10.7192 14.3755 10.9331C14.3709 11.1467 14.187 11.3204 13.961 11.3204Z" fill="#D1D3D4"/>
<path d="M13.961 10.9642H4.05512C3.89522 10.9642 3.75848 10.8796 3.68782 10.7549C3.6595 10.8084 3.64062 10.8706 3.64062 10.9331C3.64062 11.1468 3.82456 11.3204 4.05054 11.3204H13.961C14.187 11.3204 14.3709 11.1468 14.3709 10.9331C14.3709 10.8706 14.352 10.8084 14.3237 10.7549C14.2576 10.8796 14.1212 10.9642 13.961 10.9642Z" fill="#BCBEC0"/>
<path d="M13.961 13.7252H4.05514C3.82916 13.7252 3.64551 13.5515 3.64551 13.3376C3.64551 13.1239 3.82916 12.9503 4.05514 12.9503H13.9659C14.1918 12.9503 14.3755 13.1239 14.3755 13.3376C14.3709 13.5515 14.187 13.7252 13.961 13.7252Z" fill="#E6E7E8"/>
<path d="M13.961 13.5027H4.05514C3.82916 13.5027 3.64551 13.3288 3.64551 13.1151C3.64551 12.9014 3.82916 12.7275 4.05514 12.7275H13.9659C14.1918 12.7275 14.3755 12.9014 14.3755 13.1151C14.3709 13.3288 14.187 13.5027 13.961 13.5027Z" fill="#D1D3D4"/>
<path d="M13.961 13.1462H4.05512C3.89522 13.1462 3.75848 13.0616 3.68782 12.9369C3.6595 12.9904 3.64062 13.0529 3.64062 13.1151C3.64062 13.3288 3.82456 13.5027 4.05054 13.5027H13.961C14.187 13.5027 14.3709 13.3288 14.3709 13.1151C14.3709 13.0529 14.352 12.9904 14.3237 12.9369C14.2576 13.0616 14.1212 13.1462 13.961 13.1462Z" fill="#BCBEC0"/>
<path d="M16.0619 17.4704C16.0241 17.4704 15.9818 17.4704 15.944 17.4704H15.9535C15.9489 17.4704 15.9394 17.4704 15.9349 17.4704C15.9111 17.4704 15.8877 17.4704 15.8688 17.4704C14.9031 17.4258 14.0317 17.0517 13.3724 16.4684C13.3629 16.4594 13.3486 16.4505 13.3395 16.4416C13.33 16.4327 13.3157 16.4194 13.3063 16.4105C13.2969 16.4016 13.2874 16.3926 13.278 16.3837C13.2499 16.3572 13.2262 16.3348 13.1982 16.308C13.1933 16.3037 13.1887 16.2991 13.1887 16.2991C12.5528 15.6535 12.1572 14.8072 12.124 13.872C12.124 13.832 12.124 13.792 12.124 13.7519C12.124 13.7119 12.124 13.6716 12.124 13.6316C12.1383 13.164 12.2465 12.7188 12.4304 12.3091C12.614 11.8993 12.8683 11.5296 13.1887 11.2089C13.1933 11.2045 13.1982 11.2002 13.1982 11.2002C13.2216 11.1734 13.2499 11.1467 13.278 11.1245C13.2874 11.1156 13.2969 11.1066 13.3063 11.0977C13.3157 11.0888 13.33 11.0753 13.3395 11.0666C13.3486 11.0577 13.3581 11.0488 13.3724 11.0352C14.046 10.4386 14.9457 10.0646 15.9349 10.0332H16.0619V17.4704Z" fill="#D1D3D4"/>
<path d="M19.9997 12.8568V12.9772C19.9337 14.9767 18.1956 16.5799 16.0619 16.5799C13.9282 16.5799 12.1947 14.9767 12.124 12.9772C12.124 12.9369 12.124 12.8969 12.124 12.8568C12.124 12.8168 12.124 12.7768 12.124 12.7365C12.1901 10.737 13.9282 9.13379 16.0619 9.13379C18.1956 9.13379 19.9291 10.737 19.9997 12.7365V12.8568Z" fill="#FFF335"/>
<path d="M19.9431 12.9104V13.0305C19.8773 15.0034 18.1627 16.5799 16.0619 16.5799C13.9611 16.5799 12.2513 15.0034 12.1807 13.0305C12.1807 12.9904 12.1807 12.9504 12.1807 12.9104C12.1807 12.8701 12.1807 12.8301 12.1807 12.79C12.2465 10.8171 13.9611 9.2406 16.0619 9.2406C18.1627 9.2406 19.8724 10.8171 19.9431 12.79V12.9104Z" fill="#E7AD27"/>
<path d="M19.9997 12.8568V12.9772H12.124C12.124 12.9369 12.124 12.8968 12.124 12.8568C12.124 12.8168 12.124 12.7767 12.124 12.7365H19.9949C19.9997 12.7767 19.9997 12.8168 19.9997 12.8568Z" fill="#F7CB15"/>
<path d="M19.9997 12.7365H19.9385C19.9385 12.7543 19.9385 12.7721 19.9431 12.79V12.9104V12.9772H19.9997C19.9997 12.9369 19.9997 12.8968 19.9997 12.8568C19.9997 12.8168 19.9997 12.7767 19.9997 12.7365Z" fill="#FEDE3A"/>
<path d="M12.1807 12.9104C12.1807 12.8701 12.1807 12.83 12.1807 12.79C12.1807 12.7721 12.1807 12.7543 12.1852 12.7365H12.124V12.8568V12.9772H12.1807C12.1807 12.9547 12.1807 12.9325 12.1807 12.9104Z" fill="#FEDE3A"/>
<path d="M16.0626 9.13379H16.1899V16.5753C16.1472 16.5753 16.1049 16.5753 16.0626 16.5753C16.0202 16.5753 15.9779 16.5753 15.9355 16.5753V9.13379H16.0626Z" fill="#F7CB15"/>
<path d="M16.0626 9.24054C16.1049 9.24054 16.1472 9.24054 16.1899 9.24513V9.13831C16.1472 9.13831 16.1049 9.13831 16.0626 9.13831C16.0202 9.13831 15.9779 9.13831 15.9355 9.13831V9.24513C15.9779 9.24054 16.0202 9.24054 16.0626 9.24054Z" fill="#FEDE3A"/>
<path d="M18.8465 15.4889C18.8182 15.5154 18.7853 15.5467 18.7521 15.5732L13.1895 10.314C13.2175 10.2826 13.2507 10.2561 13.2787 10.2248C13.307 10.1983 13.3402 10.1669 13.3731 10.1404L18.9406 15.4042C18.9077 15.431 18.8794 15.4621 18.8465 15.4889Z" fill="#F7CB15"/>
<path d="M18.7422 15.5646L18.7516 15.5732C18.7848 15.5467 18.8128 15.5154 18.846 15.4889C18.8741 15.4621 18.9072 15.431 18.9356 15.3996L18.9213 15.3864C18.8649 15.4486 18.8037 15.5064 18.7422 15.5646Z" fill="#FEDE3A"/>
<path d="M13.4389 10.2072L13.3682 10.1404C13.3353 10.1669 13.307 10.1983 13.2741 10.2248C13.2458 10.2515 13.2129 10.2826 13.1846 10.314L13.2506 10.3762C13.3164 10.3183 13.3777 10.2605 13.4389 10.2072Z" fill="#FEDE3A"/>
<path d="M18.8465 10.2247C18.8745 10.2515 18.9077 10.2826 18.936 10.314L13.3682 15.5732C13.3353 15.5467 13.307 15.5153 13.2741 15.4888C13.2458 15.462 13.2129 15.4309 13.1846 15.3996L18.7521 10.1357C18.7853 10.1668 18.8182 10.1936 18.8465 10.2247Z" fill="#F7CB15"/>
<path d="M18.8692 10.3762L18.9353 10.314C18.9069 10.2826 18.8738 10.2561 18.8457 10.2248C18.8174 10.1983 18.7845 10.1669 18.7513 10.1404L18.6807 10.2072C18.7467 10.2605 18.808 10.3183 18.8692 10.3762Z" fill="#FEDE3A"/>
<path d="M13.1989 15.3906L13.1846 15.4041C13.2129 15.4352 13.2458 15.462 13.2741 15.4931C13.3024 15.5199 13.3353 15.551 13.3682 15.5778L13.3777 15.5689C13.3213 15.5064 13.2601 15.4485 13.1989 15.3906Z" fill="#FEDE3A"/>
<path d="M19.1516 12.8567C19.1516 14.4703 17.7683 15.7782 16.0617 15.7782C14.355 15.7782 12.9717 14.4703 12.9717 12.8567C12.9717 11.2432 14.355 9.9353 16.0617 9.9353C17.7683 9.9353 19.1516 11.2432 19.1516 12.8567Z" fill="#FFF335"/>
<path d="M18.8461 12.8568C18.8461 14.3105 17.5998 15.4888 16.0622 15.4888C14.5247 15.4888 13.2783 14.3105 13.2783 12.8568C13.2783 11.4031 14.5247 10.2247 16.0622 10.2247C17.5998 10.2247 18.8461 11.4031 18.8461 12.8568Z" fill="#FEDE3A"/>
<path d="M17.094 13.3376C17.047 13.2354 16.9764 13.1418 16.8869 13.0615C16.8019 12.986 16.6983 12.9236 16.5805 12.87C16.4724 12.8211 16.3451 12.7721 16.2086 12.7321C16.0765 12.692 15.9729 12.652 15.8928 12.6117C15.8176 12.5763 15.7609 12.536 15.7186 12.5006C15.6857 12.4692 15.662 12.4338 15.6479 12.3981C15.6339 12.3534 15.6245 12.3045 15.6245 12.2466C15.6245 12.1887 15.6339 12.1352 15.6528 12.0862C15.6714 12.0419 15.6951 12.0016 15.7326 11.9662C15.7704 11.9305 15.8176 11.9037 15.8739 11.8858C15.9354 11.8637 16.0107 11.8547 16.1002 11.8547C16.1803 11.8547 16.251 11.868 16.3122 11.8904C16.3685 11.9172 16.4157 11.9483 16.4581 11.9929C16.5004 12.0373 16.5287 12.0952 16.5525 12.1576C16.5759 12.2244 16.5854 12.3002 16.5854 12.3848V12.4292C16.5854 12.4827 16.6326 12.5273 16.6889 12.5273H17.0376C17.094 12.5273 17.1412 12.4827 17.1412 12.4292V12.3848C17.1412 12.2377 17.1223 12.1041 17.0799 11.984C17.0376 11.8593 16.9764 11.7522 16.9009 11.6632C16.8208 11.5743 16.7218 11.5029 16.6088 11.4496C16.5711 11.4317 16.5287 11.4139 16.4864 11.4006C16.4206 11.3782 16.3734 11.3249 16.3734 11.2581V11.0531C16.3734 10.9998 16.3262 10.9552 16.2698 10.9552H15.9589C15.9023 10.9552 15.8553 10.9998 15.8553 11.0531V11.2535C15.8553 11.3203 15.8081 11.3782 15.7375 11.396C15.6997 11.405 15.662 11.4182 15.6245 11.4361C15.5115 11.4807 15.4125 11.5429 15.3324 11.6232C15.2523 11.7033 15.1863 11.7968 15.1439 11.9037C15.1016 12.0105 15.0781 12.1265 15.0781 12.2512C15.0781 12.3891 15.1016 12.5138 15.1488 12.6163C15.1957 12.7232 15.2663 12.8121 15.3559 12.8925C15.4408 12.9682 15.5444 13.0304 15.662 13.0839C15.7704 13.1329 15.8977 13.1818 16.0341 13.2219C16.152 13.2619 16.2555 13.3022 16.3356 13.3422C16.4063 13.3779 16.4675 13.4179 16.5098 13.4536C16.5476 13.4891 16.5711 13.5248 16.5854 13.5605C16.5994 13.6005 16.6088 13.6495 16.6088 13.703C16.6088 13.7563 16.5994 13.8098 16.5759 13.8542C16.557 13.8988 16.5241 13.9388 16.4818 13.9745C16.4392 14.0102 16.3828 14.0413 16.3216 14.0635C16.2555 14.086 16.1803 14.0992 16.0908 14.0992C16.0201 14.0992 15.9495 14.0903 15.8739 14.0724C15.8081 14.0592 15.7515 14.0324 15.6997 13.9924C15.6479 13.9567 15.6102 13.9077 15.5727 13.8409C15.5395 13.7787 15.5207 13.6941 15.5207 13.587V13.5426C15.5207 13.4891 15.4737 13.4447 15.4171 13.4447H15.0687C15.012 13.4447 14.9648 13.4891 14.9648 13.5426V13.587C14.9648 13.7609 14.9932 13.9123 15.0544 14.037C15.111 14.1617 15.1911 14.2685 15.2901 14.3486C15.3888 14.4289 15.5021 14.4911 15.6245 14.5311C15.6574 14.5401 15.6903 14.549 15.7235 14.5579C15.7941 14.5758 15.8459 14.6336 15.8459 14.705V14.8741C15.8459 14.9276 15.8928 14.9722 15.9495 14.9722H16.2604C16.3167 14.9722 16.3639 14.9276 16.3639 14.8741V14.7004C16.3639 14.6336 16.4111 14.5758 16.4818 14.5536C16.5193 14.5447 16.557 14.5311 16.5948 14.5179C16.7124 14.4733 16.8162 14.411 16.8963 14.3353C16.981 14.255 17.047 14.1617 17.094 14.0546C17.1412 13.9478 17.16 13.832 17.16 13.703C17.1646 13.5648 17.1412 13.4447 17.094 13.3376Z" fill="#E7AD27"/>
<path d="M17.094 13.1418C17.047 13.0393 16.9764 12.9458 16.8869 12.8657C16.8019 12.79 16.6983 12.7275 16.5805 12.6742C16.4724 12.6253 16.3451 12.5763 16.2086 12.536C16.0765 12.496 15.9729 12.456 15.8928 12.416C15.8176 12.3803 15.7609 12.3402 15.7186 12.3045C15.6857 12.2734 15.662 12.2377 15.6479 12.202C15.6339 12.1577 15.6245 12.1087 15.6245 12.0508C15.6245 11.993 15.6339 11.9394 15.6528 11.8905C15.6714 11.8458 15.6951 11.8058 15.7326 11.7701C15.7704 11.7347 15.8176 11.7079 15.8739 11.6901C15.9354 11.6679 16.0107 11.659 16.1002 11.659C16.1803 11.659 16.251 11.6722 16.3122 11.6944C16.3685 11.7212 16.4157 11.7523 16.4581 11.7969C16.5004 11.8415 16.5287 11.8994 16.5525 11.9616C16.5759 12.0284 16.5854 12.1041 16.5854 12.1888V12.2334C16.5854 12.2867 16.6326 12.3313 16.6889 12.3313H17.0376C17.094 12.3313 17.1412 12.2867 17.1412 12.2334V12.1888C17.1412 12.0419 17.1223 11.9083 17.0799 11.788C17.0376 11.6633 16.9764 11.5565 16.9009 11.4675C16.8208 11.3782 16.7218 11.3071 16.6088 11.2535C16.5711 11.2357 16.5287 11.2178 16.4864 11.2046C16.4206 11.1824 16.3734 11.1289 16.3734 11.0621V10.8573C16.3734 10.8038 16.3262 10.7592 16.2698 10.7592H15.9589C15.9023 10.7592 15.8553 10.8038 15.8553 10.8573V11.0577C15.8553 11.1245 15.8081 11.1824 15.7375 11.2003C15.6997 11.2089 15.662 11.2224 15.6245 11.2403C15.5115 11.2846 15.4125 11.3471 15.3324 11.4272C15.2523 11.5075 15.1863 11.6011 15.1439 11.7079C15.1016 11.8147 15.0781 11.9305 15.0781 12.0552C15.0781 12.1934 15.1016 12.318 15.1488 12.4203C15.1957 12.5274 15.2663 12.6164 15.3559 12.6964C15.4408 12.7721 15.5444 12.8346 15.662 12.8879C15.7704 12.9368 15.8977 12.9861 16.0341 13.0261C16.152 13.0661 16.2555 13.1061 16.3356 13.1462C16.4063 13.1819 16.4675 13.2219 16.5098 13.2576C16.5476 13.2933 16.5711 13.3287 16.5854 13.3644C16.5994 13.4045 16.6088 13.4537 16.6088 13.507C16.6088 13.5605 16.5994 13.6138 16.5759 13.6584C16.557 13.703 16.5241 13.7431 16.4818 13.7788C16.4392 13.8142 16.3828 13.8456 16.3216 13.8677C16.2555 13.8899 16.1803 13.9034 16.0908 13.9034C16.0201 13.9034 15.9495 13.8945 15.8739 13.8767C15.8081 13.8631 15.7515 13.8366 15.6997 13.7963C15.6479 13.7609 15.6102 13.712 15.5727 13.6452C15.5395 13.5827 15.5207 13.498 15.5207 13.3912V13.3466C15.5207 13.2933 15.4737 13.2487 15.4171 13.2487H15.0687C15.012 13.2487 14.9648 13.2933 14.9648 13.3466V13.3912C14.9648 13.5648 14.9932 13.7163 15.0544 13.841C15.111 13.9656 15.1911 14.0725 15.2901 14.1528C15.3888 14.2329 15.5021 14.2953 15.6245 14.3354C15.6574 14.3443 15.6903 14.3532 15.7235 14.3621C15.7941 14.38 15.8459 14.4379 15.8459 14.509V14.6783C15.8459 14.7316 15.8928 14.7762 15.9495 14.7762H16.2604C16.3167 14.7762 16.3639 14.7316 16.3639 14.6783V14.5047C16.3639 14.4379 16.4111 14.38 16.4818 14.3575C16.5193 14.3486 16.557 14.3354 16.5948 14.3218C16.7124 14.2775 16.8162 14.215 16.8963 14.1393C16.981 14.0592 17.047 13.9656 17.094 13.8588C17.1412 13.752 17.16 13.6362 17.16 13.507C17.1646 13.3644 17.1412 13.2443 17.094 13.1418Z" fill="white"/>
<path d="M15.6562 11.7658C15.6374 11.8148 15.6279 11.8681 15.6279 11.9262C15.6279 11.9484 15.6279 11.9706 15.6328 11.993C15.6374 11.9573 15.6468 11.9262 15.6562 11.8948C15.6751 11.8505 15.6986 11.8102 15.7363 11.7747C15.7741 11.739 15.821 11.7123 15.8777 11.6944C15.9389 11.6722 16.0141 11.6633 16.1036 11.6633C16.1837 11.6633 16.2544 11.6766 16.3156 11.699C16.3722 11.7258 16.4194 11.7569 16.4618 11.8013C16.5041 11.8459 16.5324 11.9038 16.5559 11.9662C16.5794 12.033 16.5888 12.1088 16.5888 12.1934V12.2378C16.5888 12.2913 16.636 12.3357 16.6926 12.3357H17.041C17.0977 12.3357 17.1446 12.2913 17.1446 12.2378V12.1934C17.1446 12.171 17.1446 12.1488 17.1446 12.1309C17.1352 12.1799 17.0928 12.2156 17.041 12.2156H16.6926C16.636 12.2156 16.5888 12.171 16.5888 12.1177V12.0731C16.5888 11.993 16.5794 11.9127 16.5559 11.8459C16.537 11.7837 16.5041 11.7258 16.4618 11.6812C16.424 11.6365 16.3768 11.6054 16.3156 11.5787C16.2544 11.5519 16.1837 11.543 16.1036 11.543C16.0141 11.543 15.9389 11.5519 15.8777 11.5743C15.821 11.5965 15.7741 11.6233 15.7363 11.6544C15.6986 11.6812 15.6703 11.7169 15.6562 11.7658Z" fill="#D1D3D4"/>
<path d="M15.3451 12.6922C15.4301 12.7679 15.5337 12.8301 15.6515 12.8836C15.7596 12.9326 15.8869 12.9815 16.0234 13.0216C16.1412 13.0616 16.2448 13.1019 16.3249 13.1419C16.3955 13.1776 16.4568 13.2177 16.4991 13.2534C16.5369 13.2888 16.5606 13.3245 16.5746 13.3602C16.5841 13.3824 16.5886 13.4091 16.5935 13.4402C16.5981 13.4224 16.5981 13.4002 16.5981 13.3824C16.5981 13.3288 16.5886 13.2799 16.5746 13.2398C16.5606 13.1998 16.5323 13.1641 16.4991 13.133C16.4568 13.093 16.4004 13.0573 16.3249 13.0216C16.2448 12.9815 16.1458 12.9415 16.0234 12.9015C15.8869 12.8612 15.7596 12.8122 15.6515 12.7633C15.5337 12.71 15.4301 12.6432 15.3451 12.5718C15.2556 12.4918 15.185 12.4025 15.138 12.2957C15.1003 12.2067 15.0768 12.1088 15.0674 11.993V12.0552C15.0674 12.1934 15.0908 12.3181 15.138 12.4204C15.185 12.5229 15.2556 12.6164 15.3451 12.6922Z" fill="#D1D3D4"/>
<path d="M17.0933 13.7296C17.0464 13.8367 16.9803 13.93 16.8956 14.0103C16.8107 14.086 16.7071 14.1482 16.5941 14.1929C16.5564 14.2061 16.5186 14.2196 16.4811 14.2286C16.4105 14.2464 16.3633 14.3043 16.3633 14.3754V14.5001C16.3633 14.4333 16.4105 14.3754 16.4811 14.3532C16.5186 14.3443 16.5564 14.3308 16.5941 14.3175C16.7117 14.2729 16.8155 14.2107 16.8956 14.135C16.9803 14.0547 17.0464 13.9613 17.0933 13.8542C17.1405 13.7474 17.1594 13.6317 17.1594 13.5027C17.1594 13.4802 17.1594 13.458 17.1594 13.4402C17.1545 13.5427 17.1311 13.6406 17.0933 13.7296Z" fill="#D1D3D4"/>
<path d="M15.8401 14.3801C15.8401 14.3133 15.7883 14.2508 15.7176 14.233C15.6847 14.2241 15.6518 14.2151 15.6187 14.2062C15.4916 14.1662 15.3832 14.104 15.2843 14.0237C15.1853 13.9436 15.1052 13.8368 15.0488 13.7121C14.997 13.605 14.9687 13.476 14.9639 13.3289V13.3424V13.387C14.9639 13.5606 14.9922 13.7121 15.0534 13.8368C15.11 13.9614 15.1901 14.0683 15.2891 14.1483C15.3878 14.2287 15.5011 14.2909 15.6235 14.3309C15.6564 14.3398 15.6893 14.3487 15.7225 14.3577C15.7931 14.3755 15.8449 14.4334 15.8449 14.5048V14.3801H15.8401Z" fill="#D1D3D4"/>
<path d="M16.2543 14.647H15.9434C15.887 14.647 15.8398 14.6026 15.8398 14.5491V14.6738C15.8398 14.7273 15.887 14.7719 15.9434 14.7719H16.2543C16.311 14.7719 16.3579 14.7273 16.3579 14.6738V14.5491C16.3579 14.6026 16.311 14.647 16.2543 14.647Z" fill="#D1D3D4"/>
<path d="M7.01804 3.94108C7.22515 4.13715 7.22515 4.45791 7.01804 4.65372L4.84659 6.70673C4.6392 6.90281 4.30022 6.90281 4.09283 6.70673C3.88572 6.51065 3.88572 6.19016 4.09283 5.99408L6.26428 3.94108C6.47168 3.74067 6.81065 3.74067 7.01804 3.94108Z" fill="#E6E7E8"/>
<path d="M7.18356 6.35756C7.18356 6.07954 6.94527 5.85425 6.65149 5.85425C6.35743 5.85425 6.11914 6.07954 6.11914 6.35756C6.11914 6.63532 6.35743 6.8606 6.65149 6.8606C6.94527 6.8606 7.18356 6.63532 7.18356 6.35756Z" fill="#E6E7E8"/>
<path d="M4.99244 4.28932C4.99244 4.0113 4.75415 3.78601 4.46009 3.78601C4.16602 3.78601 3.92773 4.0113 3.92773 4.28932C3.92773 4.56735 4.16602 4.79264 4.46009 4.79264C4.75415 4.79264 4.99244 4.56735 4.99244 4.28932Z" fill="#E6E7E8"/>
<path d="M7.01804 3.71842C7.22515 3.9145 7.22515 4.23498 7.01804 4.43106L4.84659 6.48407C4.6392 6.67988 4.30022 6.67988 4.09283 6.48407C3.88572 6.28799 3.88572 5.96751 4.09283 5.77143L6.26428 3.71842C6.47168 3.51801 6.81065 3.51801 7.01804 3.71842Z" fill="#D1D3D4"/>
<path d="M7.01857 4.20826L4.84711 6.26127C4.63972 6.45735 4.30075 6.45735 4.09335 6.26127C4.01812 6.19014 3.97092 6.10549 3.95204 6.01651C3.91428 6.18122 3.96148 6.35944 4.09335 6.48412C4.30075 6.67993 4.63972 6.67993 4.84711 6.48412L7.01857 4.43111C7.15502 4.30184 7.20222 4.12821 7.15988 3.9635C7.141 4.05248 7.0938 4.13713 7.01857 4.20826Z" fill="#BCBEC0"/>
<path d="M7.18384 6.13463C7.18384 5.85688 6.94527 5.63159 6.65149 5.63159C6.35743 5.63159 6.11914 5.85688 6.11914 6.13463C6.11914 6.41266 6.35743 6.63795 6.65149 6.63795C6.94527 6.63795 7.18384 6.41266 7.18384 6.13463Z" fill="#D1D3D4"/>
<path d="M7.02778 6.27015C6.82039 6.46623 6.48141 6.46623 6.27402 6.27015C6.19879 6.19902 6.15159 6.11437 6.13271 6.02539C6.09495 6.1901 6.14215 6.36833 6.27402 6.493C6.48141 6.68881 6.82039 6.68881 7.02778 6.493C7.16423 6.36373 7.21143 6.1901 7.16909 6.02539C7.14535 6.11437 7.09843 6.19902 7.02778 6.27015Z" fill="#BCBEC0"/>
<path d="M4.99244 4.06679C4.99244 3.78876 4.75415 3.56348 4.46009 3.56348C4.16602 3.56348 3.92773 3.78876 3.92773 4.06679C3.92773 4.34454 4.16602 4.56983 4.46009 4.56983C4.75415 4.56983 4.99244 4.34454 4.99244 4.06679Z" fill="#D1D3D4"/>
<path d="M4.83735 4.19935C4.62996 4.39543 4.29098 4.39543 4.08359 4.19935C4.00836 4.12822 3.96116 4.04357 3.94228 3.95459C3.90452 4.1193 3.95172 4.29752 4.08359 4.4222C4.29098 4.61801 4.62996 4.61801 4.83735 4.4222C4.9738 4.29293 5.021 4.1193 4.97866 3.95459C4.95978 4.04357 4.91258 4.13255 4.83735 4.19935Z" fill="#BCBEC0"/>
</svg>
