<svg width="113" height="115" viewBox="0 0 113 115" fill="none" xmlns="http://www.w3.org/2000/svg">
<path d="M111.006 36.9169C111.006 39.4871 110.738 42.0557 110.211 44.5511C110.066 45.2375 109.535 45.7763 108.85 45.9309L103.021 47.2469C102.687 48.1808 102.306 49.0999 101.882 49.9954L105.073 55.0395C105.448 55.6327 105.443 56.3903 105.06 56.9785C102.283 61.2429 98.5518 64.9769 94.2692 67.7766C93.6807 68.1614 92.922 68.1672 92.3281 67.7917L87.2773 64.6004C86.382 65.0249 85.4627 65.4061 84.5286 65.7396L83.2126 71.5687C83.0578 72.2542 82.5174 72.7863 81.8294 72.9303C79.9465 73.3247 78.0365 73.5738 76.1529 73.6713C76.1214 73.6731 76.0898 73.6737 76.0588 73.6737C75.1098 73.674 74.3171 72.9298 74.2675 71.9712C74.2163 70.9811 74.9775 70.137 75.9676 70.0858C77.2937 70.0173 78.635 69.865 79.9692 69.6321L81.2484 63.9661C81.3887 63.3446 81.8478 62.844 82.4552 62.6508C83.8662 62.202 85.2464 61.6297 86.5579 60.9501C87.1241 60.6572 87.8036 60.6857 88.3427 61.0264L93.2519 64.1285C96.4106 61.9033 99.2009 59.1116 101.411 55.966L98.3083 51.0616C97.9672 50.5221 97.938 49.8425 98.2318 49.276C98.9116 47.964 99.4837 46.5838 99.9323 45.1735C100.125 44.5662 100.626 44.1066 101.247 43.9664L106.915 42.6868C107.248 40.7902 107.416 38.8546 107.416 36.9166C107.416 34.9787 107.248 33.0428 106.915 31.146L101.253 29.8666C100.634 29.7267 100.135 29.2703 99.9404 28.6661C99.4822 27.2436 98.9069 25.8611 98.2313 24.5571C97.938 23.9908 97.9669 23.3114 98.3077 22.7723L101.41 17.8619C99.1938 14.7102 96.4039 11.9203 93.2522 9.70386L88.3355 12.8075C87.7964 13.1476 87.1172 13.1765 86.5514 12.8834C85.2406 12.2042 83.8603 11.629 82.4487 11.1744C81.8447 10.9796 81.3883 10.4806 81.2484 9.86131L79.9688 4.20003C76.1747 3.53496 72.2222 3.53496 68.4279 4.20003L67.1483 9.86131C67.0083 10.4806 66.5519 10.9796 65.948 11.1744C64.5343 11.6297 63.1498 12.2038 61.8331 12.8798C61.2689 13.17 60.5926 13.1406 60.0553 12.8012L55.1436 9.70296C52.3708 11.6478 49.9158 14.0006 47.8343 16.7103C47.2304 17.4962 46.1037 17.6445 45.3169 17.0403C44.5308 16.4363 44.383 15.3092 44.987 14.5228C47.5502 11.1865 50.6265 8.33756 54.1299 6.05508C54.7179 5.67234 55.4747 5.66695 56.0674 6.04093L61.1211 9.22903C62.0162 8.80677 62.9346 8.42605 63.8674 8.09071L65.1841 2.26479C65.3386 1.58041 65.8774 1.04921 66.5636 0.903884C71.5565 -0.151555 76.84 -0.151555 81.8323 0.903884C82.5185 1.04898 83.0574 1.58041 83.2119 2.26479L84.5288 8.09116C85.4611 8.42718 86.3784 8.80924 87.2715 9.2333L92.3283 6.0416C92.9218 5.66673 93.6791 5.67234 94.2669 6.05597C98.5401 8.8427 102.272 12.5744 105.059 16.8476C105.442 17.4356 105.448 18.1934 105.073 18.7868L101.881 23.8376C102.305 24.7295 102.687 25.6486 103.024 26.5862L108.85 27.9028C109.534 28.0574 110.066 28.5962 110.211 29.2824C110.738 31.778 111.006 34.3464 111.006 36.9169ZM66.2132 54.8845C65.8959 55.8238 66.4003 56.8422 67.3399 57.1593C69.5606 57.9091 71.868 58.2893 74.1983 58.2893C85.9833 58.2893 95.5713 48.7017 95.5713 36.9166C95.5713 25.1314 85.9833 15.5437 74.1983 15.5437C69.5224 15.5437 65.0794 17.0288 61.35 19.8387C60.5582 20.4352 60.3997 21.5608 60.9965 22.3525C61.5928 23.1445 62.7183 23.3031 63.5103 22.706C66.6124 20.3694 70.3083 19.1341 74.1983 19.1341C84.0036 19.1341 91.9811 27.1115 91.9811 36.9169C91.9811 46.7222 84.0036 54.6994 74.1983 54.6994C72.2595 54.6994 70.3382 54.3827 68.4883 53.7581C67.5485 53.4405 66.5304 53.9452 66.2132 54.8845ZM74.1983 21.3009C73.2069 21.3009 72.4033 22.1045 72.4033 23.096V38.9756C72.4033 39.6854 72.8215 40.3284 73.4701 40.6164L80.8286 43.8824C81.0655 43.9876 81.3126 44.0372 81.5561 44.0372C82.2441 44.0372 82.9006 43.6394 83.1977 42.9701C83.5998 42.0638 83.1915 41.0032 82.2852 40.6009L75.9936 37.8086V23.0962C75.9934 22.1045 75.1897 21.3009 74.1983 21.3009ZM37.127 57.4572C38.1184 57.4572 38.9221 56.6535 38.9221 55.6621V53.6285C38.9221 52.637 38.1184 51.8334 37.127 51.8334C36.1356 51.8334 35.3319 52.637 35.3319 53.6285V55.6621C35.3319 56.6535 36.1356 57.4572 37.127 57.4572ZM50.0899 57.4572C51.0815 57.4572 51.885 56.6535 51.885 55.6621V53.6285C51.885 52.637 51.0813 51.8334 50.0899 51.8334C49.0984 51.8334 48.2948 52.637 48.2948 53.6285V55.6621C48.295 56.6535 49.0984 57.4572 50.0899 57.4572ZM85.201 104.705V113.093C85.201 114.084 84.3974 114.888 83.406 114.888H3.80484C2.81319 114.888 2.00977 114.084 2.00977 113.093V104.705C2.00977 103.714 2.81342 102.91 3.80484 102.91H7.58884V94.5384C7.58884 88.1862 9.97105 82.0159 14.1465 77.486V62.6775C14.1465 61.6861 14.9502 60.8825 15.9416 60.8825H26.3226C23.6998 56.344 22.2799 50.8882 22.2799 45.1778C22.2799 37.588 22.4894 31.404 25.1248 26.6403C28.2361 21.0163 34.1094 18.3971 43.6085 18.3971C53.1077 18.3971 58.9808 21.0165 62.0921 26.6403C64.7272 31.4038 64.937 37.588 64.937 45.1778C64.937 45.5782 64.928 45.9771 64.9141 46.3749C64.9098 46.5003 64.9024 46.6249 64.8968 46.75C64.8842 47.0256 64.869 47.3008 64.8499 47.5748C64.84 47.7158 64.8287 47.8565 64.8173 47.9971C64.7951 48.2639 64.7694 48.5296 64.7411 48.7946C64.727 48.9258 64.714 49.0574 64.6985 49.1884C64.6601 49.5123 64.616 49.8344 64.5684 50.1553C64.5585 50.2209 64.5509 50.2872 64.5408 50.3525C64.4813 50.7364 64.4143 51.1178 64.3413 51.4971C64.3202 51.6074 64.2962 51.7164 64.274 51.8262C64.2192 52.0975 64.1619 52.3675 64.1003 52.6359C64.0693 52.7702 64.037 52.9039 64.0044 53.0377C63.944 53.2868 63.8804 53.5344 63.8142 53.7808C63.7791 53.9106 63.7446 54.0406 63.7082 54.17C63.6302 54.4456 63.5478 54.7192 63.4627 54.9912C63.4339 55.083 63.4072 55.1758 63.3778 55.2672C63.2616 55.6264 63.1395 55.9821 63.011 56.3346C62.9793 56.4215 62.9447 56.5071 62.9124 56.5935C62.8122 56.8606 62.7096 57.1261 62.6022 57.3889C62.5523 57.5108 62.5007 57.6314 62.4495 57.7525C62.3522 57.9821 62.2525 58.21 62.1496 58.4362C62.0941 58.5584 62.0384 58.6802 61.9814 58.8012C61.8691 59.0398 61.7525 59.2758 61.6341 59.5101C61.5845 59.6082 61.5366 59.7073 61.4861 59.8046C61.3203 60.1233 61.1501 60.4386 60.9731 60.7493C61.219 60.7441 61.4571 60.7899 61.6844 60.8822H71.2757C72.2671 60.8822 73.0708 61.6859 73.0708 62.6773V77.4865C77.2465 82.0225 79.6287 88.1923 79.6287 94.5381V102.91H83.4062C84.3972 102.91 85.201 103.713 85.201 104.705ZM71.2755 96.9179H50.4364V102.91H76.0381V94.5384C76.0381 90.6219 74.9865 86.7884 73.0706 83.5022V95.1228C73.0703 96.1142 72.2669 96.9179 71.2755 96.9179ZM25.8985 41.5204C28.338 39.6789 30.3883 37.3578 31.9147 34.6856C32.2276 34.1378 32.8053 33.7941 33.4362 33.7813C34.0622 33.7784 34.6585 34.0872 34.9939 34.622C39.1687 41.2772 46.342 45.2505 54.1823 45.2505C56.6498 45.2505 59.0531 44.8588 61.3448 44.09C61.3226 37.5253 61.0551 32.1819 58.9509 28.3779C57.4333 25.6345 54.1915 21.9868 43.6088 21.9868C33.0261 21.9868 29.7843 25.6345 28.2664 28.3779C26.4435 31.6727 25.9994 36.1229 25.8985 41.5204ZM30.5834 60.8822H56.6336C59.2045 57.2539 60.7909 52.7379 61.2224 47.8836C58.9485 48.5186 56.5905 48.8409 54.1823 48.8409C46.0251 48.8409 38.4915 45.1292 33.5375 38.7896C31.4897 41.6314 28.8879 44.037 25.883 45.8639C26.0079 51.4794 27.659 56.755 30.5834 60.8822ZM17.7367 93.3275H36.7806V89.7023C36.7806 88.7109 37.5843 87.9072 38.5757 87.9072H48.6411C49.6328 87.9072 50.4362 88.7109 50.4362 89.7023V93.3275H69.4802V64.4724H61.2849C61.2828 64.4724 61.2806 64.4728 61.2786 64.4728C61.2765 64.4728 61.2741 64.4724 61.2721 64.4724H17.7367V93.3275ZM40.3708 91.4974V102.91H46.8461V91.4974H40.3708ZM11.179 102.91H36.7806V96.9177H15.9416C14.95 96.9177 14.1465 96.114 14.1465 95.1226V83.4977C12.2304 86.7826 11.179 90.6174 11.179 94.5381V102.91ZM81.6107 106.5H48.6411H38.5757H5.59992V111.298H81.6109V106.5H81.6107Z" fill="#008080" stroke="#008080" stroke-width="3"/>
</svg>
