<svg width="20" height="21" viewBox="0 0 20 21" fill="none" xmlns="http://www.w3.org/2000/svg">
<path d="M17.8125 13.2778H17.5V11.557C18.2621 11.1726 18.8953 10.6147 19.3346 9.94079C19.774 9.26686 20.0036 8.50113 20 7.72223C19.9984 6.5439 19.4712 5.41423 18.5338 4.58102C17.5965 3.74782 16.3256 3.27913 15 3.27778C14.4688 3.27754 13.9411 3.35398 13.4375 3.50411C12.8803 3.23753 12.286 3.03732 11.67 2.90867C11.8029 2.67905 11.8731 2.42487 11.875 2.16667C11.875 1.72464 11.6774 1.30072 11.3258 0.988156C10.9742 0.675595 10.4973 0.5 9.99998 0.5C9.5027 0.5 9.02579 0.675595 8.67416 0.988156C8.32253 1.30072 8.12498 1.72464 8.12498 2.16667C8.12672 2.41713 8.19261 2.66395 8.31767 2.88839C6.65593 3.21383 5.17074 4.03752 4.1114 5.22119C3.05207 6.40486 2.48309 7.87644 2.49999 9.3889V13.2778H2.1875C1.60734 13.2778 1.05094 13.4827 0.640702 13.8473C0.230467 14.212 0 14.7065 0 15.2222C0 15.7379 0.230467 16.2325 0.640702 16.5972C1.05094 16.9618 1.60734 17.1667 2.1875 17.1667H17.8125C18.3924 17.1661 18.9484 16.961 19.3585 16.5965C19.7686 16.232 19.9993 15.7377 20 15.2222C19.9888 14.7097 19.7547 14.2208 19.3469 13.8583C18.939 13.4958 18.3891 13.2877 17.8125 13.2778ZM18.75 7.72223C18.7383 8.60307 18.3395 9.4449 17.6387 10.0678C16.938 10.6907 15.9909 11.0452 15 11.0556C14.0057 11.0546 13.0526 10.7031 12.3495 10.0782C11.6465 9.45327 11.2511 8.60599 11.25 7.72223C11.2638 6.842 11.6633 6.00127 12.3636 5.37879C13.0639 4.75631 14.0097 4.40118 15 4.38889C15.9942 4.38986 16.9474 4.74136 17.6504 5.36628C18.3534 5.99119 18.7489 6.83847 18.75 7.72223ZM9.99998 1.61111C10.0831 1.61101 10.1653 1.62562 10.242 1.65409C10.3187 1.68257 10.3882 1.72433 10.4465 1.77695C10.5048 1.82957 10.5507 1.89199 10.5816 1.96056C10.6125 2.02914 10.6277 2.10249 10.6263 2.17634C10.6249 2.25018 10.607 2.32305 10.5736 2.39067C10.5402 2.4583 10.4919 2.51933 10.4317 2.5702C10.3715 2.62107 10.3004 2.66076 10.2227 2.68696C10.145 2.71316 10.0623 2.72533 9.97923 2.72278C9.81796 2.71546 9.66584 2.65395 9.55366 2.55071C9.44147 2.44746 9.37761 2.31019 9.37498 2.16667C9.3752 2.01938 9.44111 1.87819 9.55828 1.77404C9.67544 1.6699 9.83428 1.6113 9.99998 1.61111Z" fill="url(#paint0_linear_552_1387)"/>
<path d="M7.79375 19.6889C8.19323 20.0431 8.69314 20.2946 9.24042 20.4166C9.7877 20.5386 10.3619 20.5266 10.9022 20.3819C11.4424 20.2372 11.9285 19.9652 12.3089 19.5948C12.6892 19.2243 12.9496 18.7692 13.0625 18.2778H6.9375C7.06079 18.8128 7.3586 19.3035 7.79375 19.6889Z" fill="url(#paint1_linear_552_1387)"/>
<path d="M14.6875 6.61111V9.38889C14.6875 9.53624 14.7533 9.67754 14.8706 9.78173C14.9878 9.88592 15.1467 9.94445 15.3125 9.94445C15.4783 9.94445 15.6372 9.88592 15.7544 9.78173C15.8716 9.67754 15.9375 9.53624 15.9375 9.38889V6.05556C15.9375 5.90821 15.8716 5.76691 15.7544 5.66272C15.6372 5.55853 15.4783 5.5 15.3125 5.5H14.6875C14.5217 5.5 14.3628 5.55853 14.2456 5.66272C14.1283 5.76691 14.0625 5.90821 14.0625 6.05556C14.0625 6.2029 14.1283 6.34421 14.2456 6.44839C14.3628 6.55258 14.5217 6.61111 14.6875 6.61111Z" fill="url(#paint2_linear_552_1387)"/>
<defs>
<linearGradient id="paint0_linear_552_1387" x1="9.99998" y1="0.795556" x2="9.99998" y2="20.0995" gradientUnits="userSpaceOnUse">
<stop stop-color="#F4B241"/>
<stop offset="1" stop-color="#00D3D3"/>
</linearGradient>
<linearGradient id="paint1_linear_552_1387" x1="9.99999" y1="0.795598" x2="9.99999" y2="20.0995" gradientUnits="userSpaceOnUse">
<stop stop-color="#F4B241"/>
<stop offset="1" stop-color="#00D3D3"/>
</linearGradient>
<linearGradient id="paint2_linear_552_1387" x1="15" y1="0.795551" x2="15" y2="20.0995" gradientUnits="userSpaceOnUse">
<stop stop-color="#F4B241"/>
<stop offset="1" stop-color="#00D3D3"/>
</linearGradient>
</defs>
</svg>
