<svg width="20" height="20" viewBox="0 0 20 20" fill="none" xmlns="http://www.w3.org/2000/svg">
<g clip-path="url(#clip0_310_91)">
<path d="M13.5815 4.15615C13.6743 4.15615 13.7687 4.1442 13.8625 4.11924C14.1445 4.04354 14.3802 3.86287 14.526 3.61049C14.672 3.35787 14.7106 3.06365 14.6349 2.78213C14.5592 2.5001 14.3785 2.26447 14.1261 2.11865C13.8736 1.97268 13.5792 1.934 13.2976 2.00979C13.0157 2.08549 12.7801 2.26615 12.6343 2.51854C12.4883 2.77115 12.4496 3.06537 12.5254 3.34705C12.6564 3.83396 13.0991 4.15623 13.5815 4.15615ZM13.1079 2.79217C13.1807 2.66611 13.2985 2.57588 13.4395 2.53803L13.4397 2.53799C13.4866 2.52537 13.5343 2.51912 13.5816 2.51912C13.6758 2.51912 13.7687 2.54385 13.8525 2.59221C13.9785 2.66506 14.0687 2.78283 14.1067 2.92404C14.1444 3.06436 14.1252 3.21096 14.0524 3.33678C13.9796 3.46283 13.8618 3.55303 13.7212 3.59076C13.4311 3.66807 13.1317 3.49502 13.0536 3.2049C13.0159 3.06463 13.0351 2.91803 13.1079 2.79217ZM15.3018 12.6019C16.0296 12.1153 16.51 11.2863 16.51 10.347C16.51 8.85182 15.294 7.63533 13.7993 7.63533C12.8444 7.63533 11.9641 8.14119 11.4778 8.94654C11.0429 8.69416 10.5384 8.54885 10.0003 8.54885C9.46238 8.54885 8.95809 8.69404 8.5232 8.94623C8.03609 8.14107 7.15551 7.63533 6.20113 7.63533C4.70648 7.63533 3.49047 8.85182 3.49047 10.347C3.49047 11.2864 3.97098 12.1154 4.69895 12.602C3.24258 12.9502 2.15625 14.2615 2.15625 15.8226V16.7959C2.15625 16.8905 2.20516 16.9784 2.28559 17.0283C3.05254 17.5041 3.96004 17.8379 4.91012 17.9937C4.92512 17.9962 4.94 17.9974 4.95473 17.9974C5.08629 17.9974 5.2023 17.9021 5.22426 17.7681C5.24871 17.619 5.14766 17.4783 4.99863 17.4539C4.17195 17.3184 3.38176 17.0383 2.70332 16.6414V15.8226C2.70332 14.298 3.94414 13.0577 5.4693 13.0577H6.93422C7.13605 13.0577 7.33652 13.0798 7.53172 13.1232C7.76168 13.4724 8.06359 13.7699 8.41629 13.9948C6.79543 14.3517 5.57887 15.7991 5.57887 17.5256V18.5963C5.57887 18.691 5.62781 18.7789 5.7082 18.8287C6.94367 19.5952 8.42785 20.0004 10.0003 20.0004C11.5727 20.0004 13.0569 19.5952 14.2924 18.8287C14.3728 18.7789 14.4217 18.691 14.4217 18.5963V17.5256C14.4217 15.7991 13.2052 14.3517 11.5843 13.9948C11.937 13.7699 12.2389 13.4724 12.4688 13.1233C12.6648 13.0799 12.8653 13.0577 13.0663 13.0577H14.5324C16.057 13.0577 17.2973 14.298 17.2973 15.8226V16.6415C16.6199 17.0383 15.8301 17.3183 15.003 17.4539C14.854 17.4783 14.753 17.619 14.7774 17.768C14.7994 17.9021 14.9154 17.9973 15.047 17.9973C15.0617 17.9973 15.0766 17.9962 15.0916 17.9937C16.0422 17.8378 16.9494 17.504 17.7152 17.0281C17.7955 16.9783 17.8443 16.8904 17.8443 16.7958V15.8226C17.8443 14.2613 16.758 12.9498 15.3018 12.6019ZM7.15348 12.2906C6.85813 12.435 6.53281 12.5107 6.20121 12.5107C5.00816 12.5107 4.03758 11.5401 4.03758 10.347C4.03758 9.15342 5.00816 8.18236 6.20121 8.18236C6.97699 8.18236 7.69164 8.601 8.07598 9.26439C7.44609 9.80658 7.04609 10.6088 7.04609 11.5031C7.04605 11.7758 7.08398 12.0397 7.15348 12.2906ZM13.8747 17.5256V18.4422C12.752 19.1042 11.416 19.4534 10.0003 19.4534C8.58461 19.4534 7.24863 19.1042 6.1259 18.4422V17.5256C6.1259 15.8337 7.50231 14.4573 9.19418 14.4573H10.8064C12.4982 14.4573 13.8747 15.8337 13.8747 17.5256ZM10.0003 13.9103C8.67297 13.9103 7.59309 12.8304 7.59309 11.5031C7.59309 10.1758 8.67297 9.09588 10.0003 9.09588C11.3276 9.09588 12.4075 10.1758 12.4075 11.5031C12.4075 12.8304 11.3276 13.9103 10.0003 13.9103ZM13.7994 12.5107C13.4677 12.5107 13.1424 12.4349 12.8471 12.2906C12.9166 12.0397 12.9545 11.7758 12.9545 11.5031C12.9545 10.609 12.5548 9.80705 11.9252 9.26486C12.3085 8.60123 13.023 8.18236 13.7994 8.18236C14.9924 8.18236 15.963 9.15342 15.963 10.347C15.963 11.5401 14.9924 12.5107 13.7994 12.5107ZM3.2791 6.12947H8.84805L9.76344 7.71561C9.8123 7.80021 9.90258 7.85236 10.0003 7.8524H10.0004C10.098 7.8524 10.1883 7.80029 10.2372 7.71572L11.1536 6.12947H16.7216C17.312 6.12947 17.7923 5.64861 17.7923 5.05764V1.07025C17.7923 0.479863 17.312 -0.000488281 16.7216 -0.000488281H3.2791C2.68871 -0.000488281 2.20836 0.479863 2.20836 1.07025V5.0576C2.20832 5.64861 2.68867 6.12947 3.2791 6.12947ZM2.75535 1.07025C2.75535 0.781465 2.99031 0.546543 3.27906 0.546543H16.7215C17.0103 0.546543 17.2452 0.781504 17.2452 1.07025V5.0576C17.2452 5.34697 17.0102 5.58244 16.7215 5.58244H10.9957C10.898 5.58244 10.8077 5.63455 10.7589 5.71912L10.0004 7.03193L9.24281 5.71924C9.19395 5.63459 9.10363 5.58244 9.00594 5.58244H3.2791C2.99031 5.58244 2.75539 5.34701 2.75539 5.0576L2.75535 1.07025ZM6.42289 4.15607C6.51582 4.15607 6.6102 4.14412 6.70406 4.1192C6.98559 4.0435 7.22086 3.86275 7.36656 3.61033C7.51231 3.35772 7.5509 3.06354 7.47535 2.78271C7.40035 2.50064 7.21988 2.2649 6.96715 2.11881C6.7143 1.9726 6.41973 1.93396 6.13789 2.00975L6.13785 2.00979C5.55727 2.166 5.21078 2.76561 5.36566 3.34705C5.49672 3.83385 5.93992 4.15607 6.42289 4.15607ZM6.28004 2.53795C6.42055 2.50006 6.56734 2.51947 6.69344 2.5924C6.81945 2.66518 6.90937 2.78272 6.94695 2.92404C6.98469 3.06436 6.96547 3.211 6.89277 3.33689C6.82008 3.46291 6.70258 3.55311 6.56277 3.59072C6.27199 3.66795 5.97195 3.4949 5.8941 3.20557C5.8168 2.91549 5.98992 2.616 6.28004 2.53795ZM10.0027 4.15607C10.0956 4.15607 10.19 4.14412 10.2839 4.1192C10.5655 4.0435 10.8007 3.86275 10.9464 3.61037C11.0922 3.35771 11.1308 3.0635 11.055 2.78213C10.9793 2.50014 10.7987 2.26451 10.5463 2.11865C10.2937 1.97268 9.99934 1.934 9.71777 2.00979L9.71773 2.00982C9.13711 2.16604 8.79062 2.76568 8.94559 3.34709C9.07656 3.83385 9.51973 4.15607 10.0027 4.15607ZM9.85984 2.53795C10.0001 2.50018 10.1468 2.51947 10.2726 2.59221C10.3986 2.66506 10.4888 2.78283 10.5268 2.92404C10.5645 3.06436 10.5453 3.211 10.4726 3.33689C10.3999 3.46291 10.2824 3.55311 10.1426 3.59072C9.85172 3.66795 9.5518 3.4949 9.47395 3.20557C9.39664 2.91549 9.56977 2.616 9.85984 2.53795Z" fill="white"/>
</g>
<defs>
<clipPath id="clip0_310_91">
<rect width="20" height="20" fill="white"/>
</clipPath>
</defs>
</svg>
