<svg width="20" height="20" viewBox="0 0 20 20" fill="none" xmlns="http://www.w3.org/2000/svg">
<path d="M10 20C15.5228 20 20 15.5228 20 10C20 4.47715 15.5228 0 10 0C4.47715 0 0 4.47715 0 10C0 15.5228 4.47715 20 10 20Z" fill="white"/>
<path fill-rule="evenodd" clip-rule="evenodd" d="M14.5382 11.1489C14.4603 11.1489 14.397 11.0856 14.397 11.0078V9.108C14.397 6.68329 12.4245 4.71082 9.99984 4.71082C7.57514 4.71082 5.60267 6.68329 5.60267 9.108V11.0078C5.60267 11.0856 5.53961 11.1489 5.46149 11.1489C5.38361 11.1489 5.32031 11.0856 5.32031 11.0078V9.108C5.32031 7.86305 5.80855 6.68917 6.6949 5.80282C7.58125 4.91647 8.7549 4.42847 9.99984 4.42847C11.2448 4.42847 12.4184 4.91647 13.3048 5.80282C14.1911 6.68917 14.6794 7.86305 14.6794 9.108V11.0078C14.6794 11.0856 14.6161 11.1489 14.5382 11.1489Z" fill="#BF0000"/>
<path fill-rule="evenodd" clip-rule="evenodd" d="M6.02386 13.8362H5.46127C4.64268 13.8362 3.97656 13.1701 3.97656 12.3515C3.97656 11.5327 4.64268 10.8666 5.46127 10.8666H6.02386C6.10174 10.8666 6.16503 10.9296 6.16503 11.0078V13.6953C6.16503 13.7732 6.10174 13.8362 6.02386 13.8362Z" fill="#BF0000"/>
<path fill-rule="evenodd" clip-rule="evenodd" d="M14.5377 13.8362H13.9752C13.8973 13.8362 13.834 13.7732 13.834 13.6953V11.0078C13.834 10.9296 13.8973 10.8666 13.9752 10.8666H14.5377C15.3563 10.8666 16.0227 11.5327 16.0227 12.3513C16.0227 13.1701 15.3563 13.8362 14.5377 13.8362Z" fill="#BF0000"/>
<path fill-rule="evenodd" clip-rule="evenodd" d="M11.7209 15.2058C11.5797 15.2058 11.4387 15.1952 11.2994 15.1741C11.2225 15.1623 11.1696 15.0903 11.1813 15.0134C11.1931 14.9362 11.2651 14.8832 11.342 14.895C12.4161 15.0588 13.538 14.4992 13.8427 13.6475C13.8691 13.5741 13.9498 13.5359 14.0234 13.5623C14.0966 13.5884 14.135 13.6694 14.1086 13.7428C13.9383 14.2188 13.5503 14.6291 13.0164 14.8985C12.6157 15.1007 12.1674 15.2058 11.7209 15.2058Z" fill="#BF0000"/>
<path fill-rule="evenodd" clip-rule="evenodd" d="M10.925 15.5716H9.82991C9.53367 15.5716 9.29297 15.3309 9.29297 15.0346C9.29297 14.7386 9.53367 14.4977 9.82991 14.4977H10.925C11.221 14.4977 11.4617 14.7386 11.4617 15.0346C11.4617 15.3309 11.221 15.5716 10.925 15.5716Z" fill="#BF0000"/>
<path fill-rule="evenodd" clip-rule="evenodd" d="M7.5092 13.9364C7.4725 13.9364 7.4365 13.9223 7.4092 13.895C7.36403 13.8499 7.35485 13.7797 7.38708 13.7244L8.1045 12.4889C7.35014 11.904 6.90332 10.9981 6.90332 10.0402C6.90332 8.33291 8.2925 6.94397 9.99979 6.94397C10.8268 6.94397 11.6045 7.26609 12.1892 7.85079C12.7741 8.43573 13.0963 9.21315 13.0963 10.0402C13.0963 11.7477 11.7071 13.1367 9.99979 13.1367C9.70591 13.1367 9.41532 13.0955 9.13532 13.0143L7.58003 13.9174C7.55791 13.9301 7.53344 13.9364 7.5092 13.9364ZM10.4344 9.22162H10.141V11.891H10.4344C10.5125 11.891 10.5756 11.9543 10.5756 12.0322C10.5756 12.1101 10.5125 12.1734 10.4344 12.1734H9.99979H9.5652C9.48709 12.1734 9.42403 12.1101 9.42403 12.0322C9.42403 11.9543 9.48709 11.891 9.5652 11.891H9.85861V9.22162H9.5652C9.48709 9.22162 9.42403 9.15832 9.42403 9.08044C9.42403 9.00256 9.48709 8.93926 9.5652 8.93926H9.99979H10.4344C10.5125 8.93926 10.5756 9.00256 10.5756 9.08044C10.5756 9.15832 10.5125 9.22162 10.4344 9.22162ZM9.99979 8.67832C9.78709 8.67832 9.61414 8.50538 9.61414 8.29268C9.61414 8.08021 9.78709 7.90703 9.99979 7.90703C10.2125 7.90703 10.3854 8.08021 10.3854 8.29268C10.3854 8.50538 10.2125 8.67832 9.99979 8.67832Z" fill="#BF0000"/>
</svg>
