<svg width="20" height="20" viewBox="0 0 20 20" fill="none" xmlns="http://www.w3.org/2000/svg">
<g clip-path="url(#clip0_310_84)">
<path d="M0.666667 18.6667H5.33333C5.44972 18.6662 5.56395 18.6352 5.66457 18.5767C5.76519 18.5182 5.84868 18.4343 5.90667 18.3334H7.436C7.55027 18.3334 7.66369 18.353 7.77133 18.3914L11.9153 19.8777C12.1417 19.9595 12.3807 20.0009 12.6213 20C13.1441 19.9995 13.6516 19.8234 14.0623 19.5L18.9463 15.5734C19.0676 15.4727 19.1651 15.3465 19.232 15.2038C19.2989 15.061 19.3335 14.9053 19.3333 14.7477C19.3326 14.5511 19.2772 14.3585 19.1733 14.1916C19.0694 14.0246 18.9211 13.8899 18.745 13.8024C18.5665 13.7095 18.3656 13.668 18.1649 13.6824C17.9641 13.6969 17.7714 13.7668 17.608 13.8844L16.053 15.0177C15.9956 14.8154 15.8813 14.6339 15.7236 14.4948C15.5659 14.3558 15.3715 14.265 15.1637 14.2334L9.85967 13.3667C9.60069 13.3207 9.33501 13.3287 9.07925 13.3901C8.82349 13.4516 8.58317 13.5651 8.37333 13.7237L8.37733 13.729C8.28133 13.7924 8.12167 13.912 7.822 14.1367C7.64876 14.2663 7.43832 14.3364 7.222 14.3367H5.90767C5.85002 14.235 5.76656 14.1504 5.66572 14.0912C5.56487 14.0321 5.45022 14.0007 5.33333 14H0.666667C0.489856 14 0.320286 14.0703 0.195262 14.1953C0.0702379 14.3203 0 14.4899 0 14.6667L0 18C0 18.1769 0.0702379 18.3464 0.195262 18.4715C0.320286 18.5965 0.489856 18.6667 0.666667 18.6667ZM8.222 14.6667C8.222 14.6667 8.74133 14.2774 8.77067 14.256L8.773 14.2537C8.91034 14.1509 9.06719 14.0772 9.23396 14.0371C9.40074 13.997 9.57395 13.9913 9.743 14.0204L15.056 14.89C15.15 14.902 15.2372 14.9456 15.3033 15.0136C15.3694 15.0816 15.4104 15.17 15.4197 15.2644C15.4217 15.3185 15.4122 15.3724 15.3917 15.4225C15.3713 15.4727 15.3403 15.5178 15.301 15.555C15.2657 15.5909 15.2235 15.6193 15.1769 15.6385C15.1303 15.6577 15.0804 15.6673 15.03 15.6667H10.3333C10.2449 15.6667 10.1601 15.7018 10.0976 15.7643C10.0351 15.8269 10 15.9116 10 16C10 16.0885 10.0351 16.1732 10.0976 16.2357C10.1601 16.2983 10.2449 16.3334 10.3333 16.3334H11.5443L12.95 17.523C13.0557 17.6112 13.1877 17.6616 13.3252 17.6665C13.4627 17.6714 13.598 17.6304 13.7097 17.55L18 14.4237C18.0642 14.3789 18.1396 14.3526 18.2178 14.3478C18.296 14.3429 18.3741 14.3598 18.4433 14.3964C18.5097 14.4282 18.5659 14.4779 18.6053 14.54C18.6448 14.6022 18.6661 14.6741 18.6667 14.7477C18.667 14.8067 18.6545 14.865 18.6299 14.9187C18.6053 14.9723 18.5693 15.0198 18.5243 15.058L13.6447 18.9814C13.4355 19.1458 13.1892 19.2564 12.9273 19.3034C12.6654 19.3505 12.396 19.3325 12.1427 19.251L7.99567 17.7637C7.81601 17.6997 7.62672 17.6669 7.436 17.6667H6V15H7.22233C7.58272 14.9993 7.93326 14.8824 8.222 14.6667ZM14.2473 16.3334L13.3493 16.9877L12.5763 16.3334H14.2473ZM0.666667 14.6667H5.33333V18H0.666667V14.6667Z" fill="white"/>
<path d="M17.9229 2.14967C17.9799 2.02794 18.0056 1.8939 17.9977 1.7597C17.9898 1.62551 17.9486 1.49541 17.8776 1.38122C17.8067 1.26702 17.7084 1.17234 17.5916 1.10577C17.4748 1.0392 17.3433 1.00284 17.2089 1C17.2385 0.881197 17.2407 0.757191 17.2152 0.637422C17.1897 0.517653 17.1372 0.405278 17.0618 0.308849C16.9863 0.21242 16.8898 0.13448 16.7797 0.0809604C16.6696 0.0274406 16.5487 -0.000248114 16.4262 1.67515e-06H14.2395C14.1171 -0.000248114 13.9962 0.0274406 13.8861 0.0809604C13.7759 0.13448 13.6795 0.21242 13.604 0.308849C13.5285 0.405278 13.476 0.517653 13.4505 0.637422C13.425 0.757191 13.4272 0.881197 13.4569 1C13.3225 1.00284 13.1909 1.0392 13.0741 1.10577C12.9574 1.17234 12.859 1.26702 12.7881 1.38122C12.7172 1.49541 12.6759 1.62551 12.668 1.7597C12.6601 1.8939 12.6858 2.02794 12.7429 2.14967L13.2889 3.60933C13.1889 3.74267 13.0312 3.955 12.8392 4.23367C12.3983 3.17604 11.6785 2.25793 10.7567 1.57726C9.83495 0.896584 8.74569 0.478874 7.60513 0.368677C6.46458 0.25848 5.3155 0.459929 4.28045 0.951538C3.2454 1.44315 2.3632 2.20648 1.72793 3.16013C1.09266 4.11377 0.728154 5.22197 0.67328 6.36652C0.618406 7.51107 0.875225 8.64905 1.41635 9.6591C1.95747 10.6691 2.7626 11.5134 3.74587 12.1018C4.72914 12.6901 5.85368 13.0006 6.99954 13C8.53784 12.9941 10.022 12.4314 11.1775 11.416C11.8509 12.495 13.2052 13.3333 15.3329 13.3333C18.5392 13.3333 19.9995 11.4333 19.9995 9.66667C19.9995 7.20234 17.8975 4.293 17.3769 3.60933L17.9229 2.14967ZM13.3542 1.73334C13.3664 1.71282 13.3838 1.69588 13.4047 1.68418C13.4255 1.67248 13.449 1.66644 13.4729 1.66667H13.8752C13.9251 1.66652 13.9743 1.65519 14.0192 1.63351C14.0641 1.61182 14.1035 1.58034 14.1347 1.54139C14.1658 1.50243 14.1878 1.45698 14.199 1.4084C14.2102 1.35982 14.2104 1.30933 14.1995 1.26067L14.1149 0.882002C14.1126 0.870705 14.1096 0.859569 14.1059 0.848668C14.0989 0.827682 14.097 0.805327 14.1005 0.783478C14.1039 0.761629 14.1125 0.740922 14.1256 0.723096C14.1387 0.705269 14.1559 0.690841 14.1757 0.681023C14.1955 0.671205 14.2174 0.666283 14.2395 0.666668H16.4262C16.4484 0.666299 16.4703 0.671263 16.4902 0.68114C16.51 0.691017 16.5272 0.705519 16.5402 0.723425C16.5533 0.74133 16.5619 0.762115 16.5653 0.784027C16.5686 0.805939 16.5667 0.828337 16.5595 0.849335C16.5558 0.860236 16.5528 0.871371 16.5505 0.882668L16.4662 1.26067C16.4553 1.30933 16.4555 1.35982 16.4668 1.4084C16.478 1.45698 16.5 1.50243 16.5311 1.54139C16.5622 1.58034 16.6017 1.61182 16.6466 1.63351C16.6915 1.65519 16.7407 1.66652 16.7905 1.66667H17.1929C17.2167 1.66676 17.2401 1.67293 17.2609 1.68459C17.2817 1.69625 17.2991 1.71302 17.3116 1.73332C17.3241 1.75361 17.3312 1.77675 17.3322 1.80055C17.3333 1.82436 17.3282 1.84803 17.3175 1.86934C17.3122 1.88 17.3079 1.891 17.3035 1.90267L16.7702 3.336H13.8972L13.3639 1.90434C13.3595 1.89367 13.3552 1.88267 13.3499 1.871C13.3383 1.84973 13.3327 1.82577 13.3334 1.80158C13.3342 1.7774 13.3414 1.75384 13.3542 1.73334ZM6.99954 12.3333C5.95375 12.3345 4.92803 12.0463 4.03594 11.5005C3.14384 10.9547 2.42018 10.1727 1.94507 9.2411C1.46995 8.30946 1.26192 7.26451 1.34399 6.22194C1.42607 5.17937 1.79506 4.17985 2.4101 3.33403C3.02515 2.48821 3.86226 1.8291 4.82877 1.42965C5.79527 1.0302 6.85346 0.906006 7.88619 1.07081C8.91892 1.23562 9.88589 1.683 10.6801 2.36342C11.4742 3.04384 12.0646 3.93077 12.3859 4.926C12.2302 5.17567 12.0695 5.44767 11.9099 5.73867C11.7014 4.63081 11.1248 3.62585 10.2736 2.8867C9.42247 2.14756 8.3466 1.71756 7.22046 1.66642C6.09431 1.61528 4.9839 1.946 4.06924 2.60496C3.15459 3.26393 2.48931 4.2125 2.18126 5.2969C1.87321 6.3813 1.94045 7.53796 2.37207 8.57937C2.8037 9.62077 3.5744 10.4859 4.55925 11.0344C5.5441 11.583 6.68535 11.7828 7.79799 11.6015C8.91063 11.4202 9.92942 10.8685 10.6892 10.0357C10.72 10.2945 10.7814 10.5487 10.8722 10.793C9.82237 11.7774 8.43871 12.3278 6.99954 12.3333ZM10.7435 8.843C10.612 9.07036 10.4598 9.28515 10.2889 9.48467L10.0635 9.25934C10.0007 9.19862 9.91648 9.16502 9.82908 9.16578C9.74168 9.16654 9.65807 9.20159 9.59627 9.2634C9.53447 9.3252 9.49941 9.4088 9.49865 9.4962C9.49789 9.5836 9.53149 9.6678 9.59221 9.73067L9.81688 9.95534C9.11905 10.5535 8.24919 10.9144 7.33288 10.986V10.6667C7.33288 10.5783 7.29776 10.4935 7.23525 10.431C7.17273 10.3685 7.08795 10.3333 6.99954 10.3333C6.91114 10.3333 6.82635 10.3685 6.76384 10.431C6.70133 10.4935 6.66621 10.5783 6.66621 10.6667V10.983C5.75019 10.9133 4.88043 10.5526 4.18388 9.95367L4.40688 9.73067C4.43871 9.69992 4.46411 9.66314 4.48158 9.62247C4.49905 9.5818 4.50824 9.53806 4.50863 9.4938C4.50901 9.44954 4.50058 9.40565 4.48382 9.36468C4.46706 9.32372 4.44231 9.2865 4.41101 9.2552C4.37971 9.22391 4.34249 9.19915 4.30153 9.18239C4.26056 9.16564 4.21667 9.1572 4.17241 9.15759C4.12815 9.15797 4.08441 9.16716 4.04374 9.18464C4.00307 9.2021 3.96629 9.2275 3.93554 9.25934L3.71254 9.48234C3.11357 8.78578 2.75291 7.91602 2.68321 7H2.99954C3.08795 7 3.17273 6.96488 3.23525 6.90237C3.29776 6.83986 3.33288 6.75507 3.33288 6.66667C3.33288 6.57826 3.29776 6.49348 3.23525 6.43097C3.17273 6.36845 3.08795 6.33334 2.99954 6.33334H2.68321C2.75291 5.41732 3.11357 4.54755 3.71254 3.851L3.93554 4.074C3.96629 4.10584 4.00307 4.13123 4.04374 4.1487C4.08441 4.16617 4.12815 4.17537 4.17241 4.17575C4.21667 4.17614 4.26056 4.1677 4.30153 4.15094C4.34249 4.13418 4.37971 4.10943 4.41101 4.07813C4.44231 4.04684 4.46706 4.00962 4.48382 3.96865C4.50058 3.92769 4.50901 3.88379 4.50863 3.83953C4.50824 3.79527 4.49905 3.75153 4.48158 3.71087C4.46411 3.6702 4.43871 3.63342 4.40688 3.60267L4.18388 3.37967C4.88043 2.7807 5.75019 2.42004 6.66621 2.35034V2.66667C6.66621 2.75507 6.70133 2.83986 6.76384 2.90237C6.82635 2.96488 6.91114 3 6.99954 3C7.08795 3 7.17273 2.96488 7.23525 2.90237C7.29776 2.83986 7.33288 2.75507 7.33288 2.66667V2.35034C8.2489 2.42004 9.11866 2.7807 9.81521 3.37967L9.59221 3.60267C9.56037 3.63342 9.53498 3.6702 9.51751 3.71087C9.50004 3.75153 9.49085 3.79527 9.49046 3.83953C9.49008 3.88379 9.49851 3.92769 9.51527 3.96865C9.53203 4.00962 9.55678 4.04684 9.58808 4.07813C9.61938 4.10943 9.65659 4.13418 9.69756 4.15094C9.73853 4.1677 9.78242 4.17614 9.82668 4.17575C9.87094 4.17537 9.91468 4.16617 9.95535 4.1487C9.99601 4.13123 10.0328 4.10584 10.0635 4.074L10.2865 3.851C10.8855 4.54755 11.2462 5.41732 11.3159 6.33334H10.9995C10.9111 6.33334 10.8264 6.36845 10.7638 6.43097C10.7013 6.49348 10.6662 6.57826 10.6662 6.66667C10.6662 6.75507 10.7013 6.83986 10.7638 6.90237C10.8264 6.96488 10.9111 7 10.9995 7H11.2949C11.0402 7.59087 10.8552 8.20936 10.7435 8.843ZM15.3329 12.6667C12.5699 12.6667 11.3329 11.1597 11.3329 9.66667C11.3329 7.42267 13.3689 4.60867 13.8302 4H16.8355C17.2965 4.60767 19.3329 7.41934 19.3329 9.66667C19.3329 11.1597 18.0959 12.6667 15.3329 12.6667Z" fill="white"/>
<path d="M15.3333 6.66671C15.5101 6.66671 15.6797 6.73695 15.8047 6.86197C15.9298 6.98699 16 7.15656 16 7.33337C16 7.42178 16.0351 7.50656 16.0976 7.56908C16.1601 7.63159 16.2449 7.66671 16.3333 7.66671C16.4217 7.66671 16.5065 7.63159 16.569 7.56908C16.6315 7.50656 16.6667 7.42178 16.6667 7.33337C16.6656 7.03864 16.5668 6.75257 16.3859 6.5199C16.205 6.28722 15.952 6.12106 15.6667 6.04737V5.66671C15.6667 5.5783 15.6315 5.49352 15.569 5.431C15.5065 5.36849 15.4217 5.33337 15.3333 5.33337C15.2449 5.33337 15.1601 5.36849 15.0976 5.431C15.0351 5.49352 15 5.5783 15 5.66671V6.04737C14.6861 6.12816 14.4125 6.32072 14.2305 6.58892C14.0486 6.85712 13.9707 7.18251 14.0117 7.50403C14.0526 7.82554 14.2094 8.12107 14.4528 8.33514C14.6961 8.54921 15.0092 8.66711 15.3333 8.66671C15.4652 8.66671 15.5941 8.70581 15.7037 8.77906C15.8133 8.85232 15.8988 8.95643 15.9493 9.07825C15.9997 9.20007 16.0129 9.33411 15.9872 9.46343C15.9615 9.59275 15.898 9.71154 15.8047 9.80478C15.7115 9.89801 15.5927 9.96151 15.4634 9.98723C15.3341 10.013 15.2 9.99975 15.0782 9.94929C14.9564 9.89884 14.8523 9.81339 14.779 9.70375C14.7058 9.59412 14.6667 9.46523 14.6667 9.33337C14.6667 9.24497 14.6315 9.16018 14.569 9.09767C14.5065 9.03516 14.4217 9.00004 14.3333 9.00004C14.2449 9.00004 14.1601 9.03516 14.0976 9.09767C14.0351 9.16018 14 9.24497 14 9.33337C14.0011 9.62811 14.0998 9.91418 14.2808 10.1469C14.4617 10.3795 14.7146 10.5457 15 10.6194V11C15 11.0884 15.0351 11.1732 15.0976 11.2357C15.1601 11.2983 15.2449 11.3334 15.3333 11.3334C15.4217 11.3334 15.5065 11.2983 15.569 11.2357C15.6315 11.1732 15.6667 11.0884 15.6667 11V10.6194C15.9805 10.5386 16.2541 10.346 16.4361 10.0778C16.6181 9.80963 16.6959 9.48424 16.655 9.16272C16.6141 8.84121 16.4572 8.54568 16.2139 8.33161C15.9706 8.11754 15.6574 7.99964 15.3333 8.00004C15.1565 8.00004 14.987 7.9298 14.8619 7.80478C14.7369 7.67975 14.6667 7.51019 14.6667 7.33337C14.6667 7.15656 14.7369 6.98699 14.8619 6.86197C14.987 6.73695 15.1565 6.66671 15.3333 6.66671Z" fill="white"/>
<path d="M8.10566 6.684L7.33366 6.42633V4.33333C7.33366 4.24493 7.29854 4.16014 7.23603 4.09763C7.17352 4.03512 7.08873 4 7.00033 4C6.91192 4 6.82714 4.03512 6.76462 4.09763C6.70211 4.16014 6.66699 4.24493 6.66699 4.33333V6.66667C6.66705 6.7366 6.68909 6.80474 6.73001 6.86145C6.77093 6.91816 6.82864 6.96057 6.89499 6.98267L7.89499 7.316C7.93658 7.32983 7.98048 7.33534 8.02419 7.3322C8.06791 7.32907 8.11057 7.31736 8.14976 7.29773C8.18895 7.27811 8.22388 7.25096 8.25258 7.21783C8.28127 7.18471 8.30316 7.14625 8.31699 7.10467C8.33083 7.06308 8.33633 7.01918 8.3332 6.97547C8.33006 6.93175 8.31835 6.88908 8.29872 6.8499C8.2791 6.81071 8.25195 6.77577 8.21882 6.74708C8.1857 6.71839 8.14724 6.6965 8.10566 6.68267V6.684Z" fill="white"/>
</g>
<defs>
<clipPath id="clip0_310_84">
<rect width="20" height="20" fill="white"/>
</clipPath>
</defs>
</svg>
