<svg width="116" height="115" viewBox="0 0 116 115" fill="none" xmlns="http://www.w3.org/2000/svg">
<g clip-path="url(#clip0_72_124)">
<path d="M115.02 54.1176V0H94.7254V10.1471H87.9607C83.781 10.1471 79.6212 9.57454 75.5966 8.44528C75.5966 8.44528 44.555 0.362137 44.4005 0.326059C41.0808 -0.450755 37.5111 0.250294 34.6066 2.24881L6.50373 21.5823C6.15129 21.8247 5.06961 22.4963 5.06961 22.4963C1.90734 24.4675 0.0195312 27.8701 0.0195312 31.5977C0.0195312 34.4989 1.15735 37.2147 3.2233 39.2445C5.22294 41.2092 7.95183 42.3268 10.7353 42.3268C10.7964 42.3268 10.8573 42.3261 10.9184 42.3252C11.8305 42.3092 12.7518 42.1608 13.7356 41.8715L37.264 34.9505C37.6602 39.8845 41.1582 44.0058 46.0477 45.1587L51.9885 46.6767C48.5912 49.593 46.4329 53.9134 46.4329 58.731C46.4329 60.7295 46.8074 62.6412 47.4839 64.4045C45.5523 64.1134 43.5743 64.2807 41.7321 64.8947L32.7733 67.8207L32.2527 67.9943C27.2524 69.6611 24.4246 70.6023 20.3136 70.9128V60.8824H0.0195312V115H20.3136V104.853H27.0784C31.258 104.853 35.4179 105.425 39.4424 106.555L70.172 114.555C70.3276 114.598 70.4841 114.638 70.6383 114.674C71.5252 114.881 72.4296 114.983 73.3347 114.983C75.8174 114.983 78.3034 114.216 80.4323 112.751L108.535 93.4177C108.888 93.1753 109.969 92.5037 109.969 92.5037C113.132 90.5325 115.02 87.1299 115.02 83.4023C115.02 80.5011 113.882 77.7853 111.816 75.7555C109.772 73.7477 106.961 72.6214 104.121 72.675C103.209 72.691 102.287 72.8392 101.303 73.1287L77.7751 80.0497C77.4732 76.2903 75.3702 73.0038 72.2231 71.1415C75.8672 68.2279 78.2083 63.7488 78.2083 58.731C78.2083 55.281 77.0993 52.0871 75.2246 49.4791L82.266 47.1793L82.7866 47.0057C87.7868 45.3389 90.615 44.3977 94.7256 44.0872V54.1176H115.02ZM101.49 6.76471H108.255V47.3529H101.49V6.76471ZM64.7021 49.9251C68.581 50.9752 71.4436 54.5242 71.4436 58.7307C71.4436 63.7612 67.3511 67.8536 62.3207 67.8536C61.6938 67.8536 61.0816 67.79 60.4899 67.6689L59.6624 67.4574C55.9246 66.3167 53.1976 62.8367 53.1976 58.7307C53.1976 53.7003 57.29 49.6078 62.3207 49.6078C63.0621 49.6078 63.7821 49.6989 64.4725 49.8667L64.7021 49.9251ZM13.5489 108.235H6.78424V67.6471H13.5489V108.235ZM75.6199 87.7348L103.212 79.6186C103.6 79.5045 103.946 79.4438 104.24 79.4386C104.263 79.4384 104.286 79.4379 104.31 79.4379C105.344 79.4379 106.323 79.8422 107.075 80.5807C107.836 81.3285 108.255 82.3305 108.255 83.4023C108.255 84.7791 107.558 86.0356 106.39 86.7634L106.116 86.9339C105.659 87.2178 105.185 87.5114 104.701 87.8444L76.5983 107.178C75.2588 108.099 73.6482 108.431 72.1771 108.086C72.1029 108.069 72.0291 108.05 71.9554 108.03L41.2391 100.033C36.6294 98.7426 31.8653 98.0882 27.0784 98.0882H20.3136V77.6899C25.5816 77.3472 29.1154 76.1706 34.3921 74.4118L43.8521 71.3187C44.7879 71.0066 45.7913 70.9458 46.7587 71.1426L67.4219 76.4216C69.5578 76.9174 71.0492 78.7951 71.0492 80.9877C71.0492 82.4412 70.3921 83.7881 69.2464 84.6826C68.1004 85.5771 66.6348 85.8881 65.2245 85.5354L48.193 81.2775L46.5526 87.8402L63.5841 92.0981C64.5147 92.3308 65.4548 92.4451 66.3874 92.4451C68.9066 92.4451 71.3667 91.6095 73.4098 90.0146C74.2611 89.3494 75.0007 88.5809 75.6199 87.7348ZM80.6469 40.5882L71.1869 43.6813C70.2507 43.9929 69.247 44.0542 68.2804 43.8574L66.4144 43.3807C66.3206 43.3557 66.2266 43.3318 66.1321 43.3085L47.6895 38.5963L47.6174 38.5787C45.4815 38.0828 43.9901 36.2052 43.9901 34.0125C43.9901 32.559 44.6472 31.2121 45.7929 30.3176C46.9386 29.4229 48.4041 29.1119 49.8148 29.4648L66.8463 33.7227L68.4867 27.1601L51.4552 22.9021C48.0108 22.0412 44.4289 22.8 41.6297 24.9857C40.778 25.6509 40.0382 26.4193 39.4192 27.2654L11.8269 35.3814C11.4386 35.4955 11.0929 35.5562 10.7993 35.5614C9.7359 35.5801 8.73315 35.1744 7.96423 34.4193C7.2032 33.6716 6.78424 32.6695 6.78424 31.5977C6.78424 30.2209 7.48123 28.9644 8.64882 28.2366C8.64882 28.2366 9.85406 27.4886 10.3382 27.1556L38.441 7.82203C39.7802 6.90068 41.3913 6.56921 42.8622 6.91353C42.9364 6.93067 73.7999 14.9671 73.7999 14.9671C78.4096 16.2574 83.174 16.9118 87.9607 16.9118H94.7254V37.3101C89.4575 37.6528 85.9236 38.8294 80.6469 40.5882Z" fill="#008080"/>
</g>
<defs>
<clipPath id="clip0_72_124">
<rect width="115" height="115" fill="white" transform="translate(0.0195312)"/>
</clipPath>
</defs>
</svg>
