<svg width="20" height="20" viewBox="0 0 20 20" fill="none" xmlns="http://www.w3.org/2000/svg">
<g clip-path="url(#clip0_310_61)">
<path d="M9.21375 1.99219L6.99063 0.695312C6.56125 0.444687 6.07188 0.3125 5.575 0.3125C4.71688 0.3125 3.91719 0.696875 3.38156 1.36688L3.25688 1.5225C2.955 1.89969 2.86625 2.39875 3.01875 2.85719C3.05656 2.97031 3.0275 3.09281 2.94344 3.17688L2.61937 3.50094C2.34094 3.78 2.1875 4.15031 2.1875 4.54437C2.1875 4.66531 2.2025 4.78594 2.23188 4.90219L2.55375 6.19031H2.57781C2.72187 5.85781 3.05219 5.625 3.4375 5.625H3.75V4.6875C3.75 4.16969 4.16969 3.75 4.6875 3.75H7.15063L7.14594 3.73406C7.35469 4.06563 7.67094 4.32781 8.06094 4.45781C8.4725 4.595 8.75 4.98 8.75 5.41406V5.625H9.0625C9.44594 5.625 9.77469 5.85594 9.92 6.18594H9.96313L10.2822 4.26969C10.3025 4.15031 10.3125 4.0275 10.3125 3.905C10.3125 3.12063 9.89156 2.3875 9.21375 1.99219Z" fill="#F0BC5E"/>
<path d="M12.8125 9.375V10.625H10.9375V13.4375H14.6875V10.625V9.375H12.8125Z" fill="#F0BC5E"/>
<path d="M5 5.9375C5.17259 5.9375 5.3125 5.79759 5.3125 5.625C5.3125 5.45241 5.17259 5.3125 5 5.3125C4.82741 5.3125 4.6875 5.45241 4.6875 5.625C4.6875 5.79759 4.82741 5.9375 5 5.9375Z" fill="white"/>
<path d="M7.5 5.9375C7.67259 5.9375 7.8125 5.79759 7.8125 5.625C7.8125 5.45241 7.67259 5.3125 7.5 5.3125C7.32741 5.3125 7.1875 5.45241 7.1875 5.625C7.1875 5.79759 7.32741 5.9375 7.5 5.9375Z" fill="white"/>
<path d="M6.5625 7.8125H5.3125V8.4375H6.5625C7.25188 8.4375 7.8125 7.87688 7.8125 7.1875H7.1875C7.1875 7.53219 6.90719 7.8125 6.5625 7.8125Z" fill="white"/>
<path d="M6.47094 4.46656C6.12688 4.1225 5.9375 3.665 5.9375 3.17844V2.8125H5.3125V3.17844C5.3125 3.83187 5.56687 4.44625 6.02906 4.90844L6.47094 4.46656Z" fill="white"/>
<path d="M19.6871 3.55687V2.1875C19.6871 1.49812 19.1265 0.9375 18.4371 0.9375H18.3796C18.2503 0.574687 17.9065 0.3125 17.4996 0.3125H16.2506C15.9996 0.3125 15.764 0.410313 15.5871 0.587813C15.41 0.765 15.3128 1.00094 15.3131 1.25094L15.3125 6.5625H13.2937C13.1281 6.5625 12.9646 6.60656 12.8212 6.69031L9.52715 8.61188C9.24027 8.77906 9.06215 9.08938 9.06215 9.42156V10.3047C8.64996 10.0628 8.20809 9.87906 7.74496 9.74781L7.67371 9.53406C8.39184 9.25094 8.92402 8.59906 9.03715 7.81219H9.06215C9.75152 7.81219 10.3121 7.25156 10.3121 6.56219C10.3121 5.87281 9.75152 5.31219 9.06215 5.31219H9.05402C9.0134 4.78594 8.66652 4.33031 8.15934 4.16094C7.57777 3.9675 7.18715 3.42531 7.18715 2.8125H6.56215C6.56215 3.69469 7.12465 4.475 7.96184 4.75437C8.24621 4.84906 8.43715 5.11438 8.43715 5.41406V7.5C8.43715 8.36156 7.73621 9.0625 6.87465 9.0625H5.62465C4.76309 9.0625 4.06215 8.36156 4.06215 7.5V4.6875C4.06215 4.34281 4.34246 4.0625 4.68715 4.0625V3.4375C3.99777 3.4375 3.43715 3.99813 3.43715 4.6875V5.3125C2.74777 5.3125 2.18715 5.87313 2.18715 6.5625C2.18715 7.25187 2.74777 7.8125 3.43715 7.8125H3.46215C3.57559 8.59937 4.10746 9.25094 4.82559 9.53438L4.75496 9.74656C2.46996 10.3934 0.829023 12.3881 0.652461 14.7697L0.288086 19.6875H19.6871V7.1875C19.6871 6.84281 19.4068 6.5625 19.0621 6.5625H18.4371V4.88062L19.0621 5.19312V5.9375H19.6871V5.19312C19.6871 4.95469 19.5546 4.74063 19.3418 4.63406L18.8234 4.375L19.3415 4.11594C19.5546 4.00937 19.6871 3.79531 19.6871 3.55687ZM9.68715 6.5625C9.68715 6.90719 9.40684 7.1875 9.06215 7.1875V5.9375C9.40684 5.9375 9.68715 6.21781 9.68715 6.5625ZM2.81215 6.5625C2.81215 6.21781 3.09246 5.9375 3.43715 5.9375V7.1875C3.09246 7.1875 2.81215 6.90719 2.81215 6.5625ZM17.3296 10.9375H16.4196L16.0446 9.6875H17.7046L17.3296 10.9375ZM17.1421 11.5625L16.9775 12.1112C16.95 12.2025 16.7993 12.2025 16.7718 12.1112L16.6071 11.5625H17.1421ZM15.9371 9.0625L15.9378 4.6875H17.8121V9.0625H15.9371ZM16.0293 1.02906C16.0884 0.97 16.1668 0.9375 16.2506 0.9375H17.4996C17.6721 0.9375 17.8121 1.07781 17.8121 1.25V4.0625H15.9378L15.9381 1.25031C15.9381 1.16688 15.9703 1.08844 16.0293 1.02906ZM12.3806 7.67094L11.7287 8.96937C11.3537 8.82531 10.9521 8.75 10.5509 8.75H10.5309L12.3806 7.67094ZM9.06215 19.0625H7.00402L8.15277 17.9137L6.88527 11.8934L7.03027 11.4578L8.03152 12.0584L8.31934 10.62C8.57871 10.74 8.82527 10.8856 9.06215 11.0494V19.0625ZM4.96934 10.3341L5.60059 10.6497L4.90652 11.0662L4.77152 10.3919C4.83684 10.3713 4.90309 10.3525 4.96934 10.3341ZM7.52871 10.3347C7.59559 10.3528 7.66121 10.3737 7.72715 10.3947L7.59277 11.0666L6.89871 10.65L7.52871 10.3347ZM6.24965 10.9894L6.48152 11.1284L6.33684 11.5625H6.16215L6.01746 11.1287L6.24965 10.9894ZM6.19059 12.1875H6.30871L7.47152 17.7113L6.24965 18.9331L5.02777 17.7113L6.19059 12.1875ZM5.62465 9.6875H6.87465C6.93809 9.6875 7.0009 9.68344 7.06309 9.67781L7.11777 9.84156L6.24965 10.2756L5.38184 9.84188L5.43652 9.67812C5.4984 9.68344 5.56121 9.6875 5.62465 9.6875ZM1.27559 14.8153C1.41277 12.9659 2.5434 11.3791 4.18027 10.6222L4.46777 12.0584L5.46902 11.4578L5.61402 11.8934L4.34652 17.9137L5.49527 19.0625H3.43715V13.75H2.81215V19.0625H0.961211L1.27559 14.8153ZM19.0621 7.1875V19.0625H9.68715V9.42156C9.68715 9.40563 9.6909 9.39062 9.6934 9.375H10.5509C10.96 9.375 11.3693 9.47156 11.735 9.65469L12.014 9.79406L13.3225 7.1875H15.3121V9.32906C15.3121 9.38875 15.3206 9.44844 15.3384 9.50875L16.1731 12.2903C16.2653 12.5978 16.5537 12.8125 16.8746 12.8125C17.1959 12.8125 17.4843 12.5975 17.5762 12.2906L18.4115 9.50688C18.4287 9.44844 18.4371 9.38875 18.4371 9.32906V7.1875H19.0621ZM19.0621 3.55687L18.4371 3.86937V1.5625C18.7818 1.5625 19.0621 1.84281 19.0621 2.1875V3.55687Z" fill="white"/>
<path d="M15.5931 15.0319C15.4653 14.4772 14.9675 14.0625 14.375 14.0625C13.7825 14.0625 13.2847 14.4772 13.1569 15.0319C12.6022 15.1597 12.1875 15.6572 12.1875 16.25C12.1875 16.8428 12.6022 17.3403 13.1569 17.4681C13.2847 18.0228 13.7825 18.4375 14.375 18.4375C14.9675 18.4375 15.4653 18.0228 15.5931 17.4681C16.1478 17.3403 16.5625 16.8428 16.5625 16.25C16.5625 15.6572 16.1478 15.1597 15.5931 15.0319ZM14.375 14.6875C14.7197 14.6875 15 14.9678 15 15.3125V15.5562C14.8338 15.4062 14.6159 15.3125 14.375 15.3125C14.1341 15.3125 13.9162 15.4066 13.75 15.5562V15.3125C13.75 14.9678 14.0303 14.6875 14.375 14.6875ZM14.6875 16.25C14.6875 16.4222 14.5475 16.5625 14.375 16.5625C14.2025 16.5625 14.0625 16.4222 14.0625 16.25C14.0625 16.0778 14.2025 15.9375 14.375 15.9375C14.5475 15.9375 14.6875 16.0778 14.6875 16.25ZM13.4375 16.875C13.0928 16.875 12.8125 16.5947 12.8125 16.25C12.8125 15.9053 13.0928 15.625 13.4375 15.625H13.6812C13.5312 15.7912 13.4375 16.0091 13.4375 16.25C13.4375 16.4909 13.5316 16.7088 13.6812 16.875H13.4375ZM14.375 17.8125C14.0303 17.8125 13.75 17.5322 13.75 17.1875V16.9438C13.9162 17.0938 14.1341 17.1875 14.375 17.1875C14.6159 17.1875 14.8338 17.0934 15 16.9438V17.1875C15 17.5322 14.7197 17.8125 14.375 17.8125ZM15.3125 16.875H15.0688C15.2188 16.7088 15.3125 16.4909 15.3125 16.25C15.3125 16.0091 15.2184 15.7912 15.0688 15.625H15.3125C15.6572 15.625 15.9375 15.9053 15.9375 16.25C15.9375 16.5947 15.6572 16.875 15.3125 16.875Z" fill="white"/>
<path d="M14.0625 4.0625H14.6875V4.6875H14.0625V4.0625Z" fill="white"/>
<path d="M12.8125 4.0625H13.4375V4.6875H12.8125V4.0625Z" fill="white"/>
<path d="M11.5625 4.0625H12.1875V4.6875H11.5625V4.0625Z" fill="white"/>
<path d="M10.9375 10.3125H14.6875V10.9375H10.9375V10.3125Z" fill="white"/>
<path d="M10.9375 11.5625H14.6875V12.1875H10.9375V11.5625Z" fill="white"/>
<path d="M10.9375 12.8125H12.1875V13.4375H10.9375V12.8125Z" fill="white"/>
<path d="M12.8125 12.8125H14.6875V13.4375H12.8125V12.8125Z" fill="white"/>
<path d="M12.8125 9.0625H14.6875V9.6875H12.8125V9.0625Z" fill="white"/>
</g>
<defs>
<clipPath id="clip0_310_61">
<rect width="20" height="20" fill="white"/>
</clipPath>
</defs>
</svg>
