<svg width="20" height="20" viewBox="0 0 20 20" fill="none" xmlns="http://www.w3.org/2000/svg">
<path fill-rule="evenodd" clip-rule="evenodd" d="M1.26284 8.74257C1.33317 8.85199 1.29188 8.9925 1.16862 9.05527C1.12796 9.07601 1.08409 9.08638 1.04085 9.0858C0.951802 9.0858 0.865323 9.04491 0.818221 8.97121C0.00516099 7.71405 -0.211006 6.24956 0.210364 4.84786C0.63173 3.44615 1.6384 2.2748 3.04705 1.54916C3.16965 1.48639 3.32646 1.52324 3.3968 1.63324C3.46778 1.74266 3.42584 1.88261 3.30323 1.94538C2.01395 2.60995 1.09184 3.68282 0.705956 4.96648C0.320723 6.25071 0.518818 7.59194 1.26284 8.74257ZM2.48113 8.34406C2.52501 8.34406 2.56889 8.33428 2.60954 8.31296C2.73214 8.25019 2.77409 8.10967 2.70376 8.00083C2.18108 7.19286 2.04234 6.25185 2.31272 5.35174C2.58244 4.45106 3.23031 3.6978 4.13501 3.23133C4.25761 3.16856 4.29956 3.02804 4.22923 2.91862C4.15889 2.80921 4.00144 2.77176 3.87883 2.83453C2.85541 3.36205 2.12301 4.21379 1.81714 5.23252C1.51128 6.25184 1.66808 7.31551 2.25916 8.22944C2.30627 8.30317 2.39274 8.34406 2.48113 8.34406ZM3.42261 5.61723C3.23161 6.25301 3.32969 6.91758 3.6988 7.48771C3.7459 7.56143 3.83238 7.60231 3.92142 7.60231C3.96529 7.60231 4.00918 7.59252 4.04919 7.57178C4.17244 7.50901 4.21438 7.36849 4.14341 7.25907C3.84336 6.79491 3.76334 6.25357 3.91885 5.73584C4.07437 5.21754 4.44606 4.78448 4.9668 4.51668C5.09005 4.45391 5.13199 4.31339 5.06102 4.20397C4.99069 4.09398 4.83324 4.05711 4.71062 4.11988C4.07048 4.44875 3.61361 4.98087 3.42261 5.61723ZM12.8451 18.5188C12.1062 19.1782 11.1235 19.5416 10.0787 19.5416C9.03404 19.5416 8.05126 19.1782 7.31242 18.5188C7.2124 18.4301 7.04978 18.4301 6.94977 18.5188C6.84976 18.6081 6.84976 18.7532 6.94977 18.8431C7.78541 19.5888 8.89659 20 10.0787 20C11.2609 20 12.3721 19.5888 13.2077 18.8431C13.3077 18.7538 13.3077 18.6087 13.2077 18.5188C13.1077 18.4301 12.9457 18.4301 12.8451 18.5188ZM12.032 17.7938C12.132 17.7045 12.132 17.5594 12.032 17.4695C11.932 17.3803 11.7694 17.3803 11.6687 17.4695C11.2441 17.8491 10.6795 18.0575 10.0781 18.0575C9.47734 18.0575 8.91207 17.8491 8.48748 17.4695C8.38746 17.3803 8.22484 17.3803 8.12418 17.4695C8.02417 17.5588 8.02417 17.7039 8.12418 17.7932C8.64557 18.2591 9.3399 18.5154 10.0781 18.5154C10.8163 18.5159 11.5106 18.2591 12.032 17.7938ZM8.93789 4.84438C8.81787 4.77701 8.65977 4.80925 8.58428 4.91636C8.56104 4.94919 8.01062 5.73758 7.6783 6.8859C7.23498 8.41892 7.40341 9.86207 8.16549 11.0582C8.21259 11.1325 8.2997 11.1745 8.38876 11.1745C8.432 11.1745 8.47523 11.1647 8.51524 11.144C8.63848 11.0812 8.68172 10.9419 8.61139 10.8319C7.90868 9.72904 7.7609 8.44483 8.1713 7.01315C8.48168 5.92991 9.0134 5.16744 9.01856 5.15995C9.09339 5.05284 9.05726 4.91234 8.93789 4.84438ZM18.5829 7.41169C18.5829 9.22975 16.9258 10.7092 14.888 10.7092C12.8509 10.7092 11.1938 9.22977 11.1938 7.41169C11.1938 5.59362 12.8508 4.11416 14.888 4.11416C16.9258 4.11473 18.5829 5.59362 18.5829 7.41169ZM18.07 7.41169C18.07 5.84585 16.6432 4.57256 14.8887 4.57256C13.1348 4.57256 11.7081 5.84643 11.7081 7.41169C11.7081 8.97696 13.1348 10.2508 14.8887 10.2508C16.6426 10.2514 18.07 8.97753 18.07 7.41169ZM15.6314 11.9261C15.9547 12.5734 16.4135 13.0346 17.0272 13.3295H17.7363C17.8783 13.3295 17.9932 13.432 17.9932 13.5587V14.4053C17.9932 14.9984 17.4524 15.4816 16.7878 15.4816H12.2127C12.0849 16.4318 11.1777 17.1712 10.0787 17.1712C8.97982 17.1712 8.07255 16.4318 7.94478 15.4816H3.36971C2.70507 15.4816 2.16431 14.999 2.16431 14.4053V13.5587C2.16431 13.432 2.27917 13.3295 2.42114 13.3295H3.12966C4.91775 12.4703 5.07843 10.3884 5.24555 8.18452C5.3559 6.74192 5.46946 5.25037 6.09151 4.1274C6.67551 3.07179 7.64472 2.45675 9.03789 2.26209C8.76558 2.02252 8.59716 1.68966 8.59716 1.32224C8.59716 0.593165 9.26181 0 10.0787 0C10.8957 0 11.5603 0.593165 11.5603 1.32224C11.5603 1.68966 11.3912 2.02194 11.1196 2.26209C11.9765 2.38073 12.6676 2.65888 13.2135 3.10174C13.7382 2.93876 14.3015 2.85007 14.8881 2.85007C17.7067 2.85007 20 4.89621 20 7.41224C20 9.70254 18.099 11.6036 15.6314 11.9261ZM9.11016 1.32227C9.11016 1.79852 9.54444 2.18667 10.0787 2.18667C10.613 2.18667 11.0473 1.79852 11.0473 1.32227C11.0473 0.845433 10.613 0.457857 10.0787 0.457857C9.54444 0.457857 9.11016 0.845433 9.11016 1.32227ZM11.6951 15.4816H8.46228C8.58553 16.179 9.26309 16.7134 10.0787 16.7134C10.8944 16.7134 11.5719 16.179 11.6951 15.4816ZM17.4808 13.7873H16.9987C16.9878 13.7885 16.9768 13.7891 16.9665 13.7891C16.9555 13.7891 16.9452 13.7879 16.9342 13.7873H3.22383C3.21286 13.7885 3.20254 13.7891 3.19156 13.7891C3.18059 13.7891 3.16962 13.7879 3.15928 13.7873H2.67727V14.4053C2.67727 14.7462 2.98765 15.0238 3.36966 15.0238H16.7877C17.1691 15.0238 17.4801 14.7462 17.4801 14.4053L17.4808 13.7873ZM15.0945 11.9704C15.0261 11.9727 14.9571 11.9744 14.888 11.9744C12.07 11.9744 9.77607 9.92773 9.77607 7.41226C9.77607 5.60282 10.9627 4.03642 12.6773 3.29927C12.0397 2.86563 11.1854 2.65254 10.078 2.65254C6.18116 2.65254 5.9753 5.3546 5.75656 8.21562C5.6062 10.1817 5.45134 12.2059 4.02333 13.3295L16.1308 13.3295C15.694 12.984 15.3513 12.5342 15.0945 11.9704ZM19.487 7.4117C19.487 5.14846 17.424 3.30792 14.888 3.30792C12.3521 3.30792 10.2897 5.14903 10.2897 7.4117C10.2897 9.67436 12.3527 11.516 14.888 11.516C17.424 11.516 19.487 9.67492 19.487 7.4117ZM17.0923 6.87382V7.95073C17.0923 8.07743 16.9775 8.17993 16.8355 8.17993H12.9412C12.7992 8.17993 12.6844 8.078 12.6844 7.95073V6.87382C12.6844 6.74712 12.7992 6.64461 12.9412 6.64461H16.8355C16.9768 6.64461 17.0923 6.74712 17.0923 6.87382ZM16.5787 7.10245H13.1974V7.72153H16.5787V7.10245Z" fill="url(#paint0_linear_310_95)"/>
<defs>
<linearGradient id="paint0_linear_310_95" x1="-0.548372" y1="19.3203" x2="17.9711" y2="-1.43085" gradientUnits="userSpaceOnUse">
<stop offset="1" stop-color="white"/>
<stop offset="1" stop-color="#BF0000"/>
</linearGradient>
</defs>
</svg>
