<svg width="20" height="20" viewBox="0 0 20 20" fill="none" xmlns="http://www.w3.org/2000/svg">
<path fill-rule="evenodd" clip-rule="evenodd" d="M10.0003 2.29163C5.74313 2.29163 2.29199 5.74277 2.29199 9.99996C2.29199 14.2571 5.74313 17.7083 10.0003 17.7083C10.2609 17.7083 10.5183 17.6954 10.7719 17.6702C11.1154 17.6361 11.4215 17.8869 11.4556 18.2304C11.4897 18.5739 11.2389 18.88 10.8954 18.9141C10.6008 18.9434 10.3022 18.9583 10.0003 18.9583C5.05278 18.9583 1.04199 14.9475 1.04199 9.99996C1.04199 5.05241 5.05278 1.04163 10.0003 1.04163C14.9479 1.04163 18.9587 5.05241 18.9587 9.99996C18.9587 10.3019 18.9437 10.6005 18.9145 10.895C18.8803 11.2385 18.5742 11.4894 18.2307 11.4552C17.8872 11.4211 17.6365 11.115 17.6706 10.7715C17.6957 10.518 17.7087 10.2605 17.7087 9.99996C17.7087 5.74277 14.2575 2.29163 10.0003 2.29163Z" fill="white"/>
<path fill-rule="evenodd" clip-rule="evenodd" d="M9.99292 6.45825C9.18509 6.45825 8.53167 7.11201 8.53167 7.91659C8.53167 8.72117 9.18509 9.37492 9.99292 9.37492C10.8008 9.37492 11.4543 8.72117 11.4543 7.91659C11.4543 7.11201 10.8008 6.45825 9.99292 6.45825ZM7.28164 7.91659C7.28164 6.41998 8.49634 5.20825 9.99292 5.20825C11.4895 5.20825 12.7043 6.41998 12.7043 7.91659C12.7043 9.41317 11.4895 10.6249 9.99292 10.6249C8.49634 10.6249 7.28164 9.41317 7.28164 7.91659ZM10.7428 13.2801C9.27292 13.0647 7.71665 13.5355 6.70205 14.5982C6.46369 14.8478 6.06806 14.857 5.8184 14.6187C5.56874 14.3803 5.55959 13.9847 5.79795 13.735C7.1208 12.3495 9.09575 11.7753 10.9239 12.0433C11.2655 12.0933 11.5018 12.4108 11.4518 12.7523C11.4017 13.0938 11.0843 13.3301 10.7428 13.2801Z" fill="white"/>
<path fill-rule="evenodd" clip-rule="evenodd" d="M15.4167 13.125C14.151 13.125 13.125 14.151 13.125 15.4167C13.125 16.6823 14.151 17.7083 15.4167 17.7083C16.6823 17.7083 17.7083 16.6823 17.7083 15.4167C17.7083 14.151 16.6823 13.125 15.4167 13.125ZM11.875 15.4167C11.875 13.4607 13.4607 11.875 15.4167 11.875C17.3727 11.875 18.9583 13.4607 18.9583 15.4167C18.9583 17.3727 17.3727 18.9583 15.4167 18.9583C13.4607 18.9583 11.875 17.3727 11.875 15.4167Z" fill="white"/>
</svg>
