<svg width="20" height="20" viewBox="0 0 20 20" fill="none" xmlns="http://www.w3.org/2000/svg">
<g clip-path="url(#clip0_310_44)">
<path d="M17.0254 16.725V17.675C17.0254 18.2 17.6004 18.625 18.3087 18.625C19.0171 18.625 19.5837 18.1917 19.5837 17.6667V16.7167L17.0254 16.725Z" stroke="white" stroke-width="0.8" stroke-miterlimit="10" stroke-linecap="round" stroke-linejoin="round"/>
<path d="M18.3008 16.725V5.80835" stroke="white" stroke-width="0.8" stroke-miterlimit="10" stroke-linecap="round" stroke-linejoin="round"/>
<path d="M17.0254 5.80838V16.725C17.0254 16.725 19.5421 16.7167 19.5837 16.7167V5.80005" stroke="white" stroke-width="0.8" stroke-miterlimit="10" stroke-linecap="round" stroke-linejoin="round"/>
<path d="M15.9839 4.04163V16.8416C15.9839 17.1083 15.7755 17.3166 15.5089 17.3166H5.74219" stroke="white" stroke-width="0.8" stroke-miterlimit="10" stroke-linecap="round" stroke-linejoin="round"/>
<path d="M2.36719 13.25V1.69998C2.36719 1.42498 2.59219 1.22498 2.84219 1.22498H13.1672" stroke="white" stroke-width="0.8" stroke-miterlimit="10" stroke-linecap="round" stroke-linejoin="round"/>
<path d="M3.97559 3.57495H11.4764" stroke="white" stroke-width="0.8" stroke-miterlimit="10" stroke-linecap="round" stroke-linejoin="round"/>
<path d="M3.97559 5.54163H11.4764" stroke="white" stroke-width="0.8" stroke-miterlimit="10" stroke-linecap="round" stroke-linejoin="round"/>
<path d="M3.97559 7.77502H11.4764" stroke="white" stroke-width="0.8" stroke-miterlimit="10" stroke-linecap="round" stroke-linejoin="round"/>
<path d="M15.9832 4.04167H13.1582V1.21667L15.9832 4.04167Z" stroke="white" stroke-width="0.8" stroke-miterlimit="10" stroke-linecap="round" stroke-linejoin="round"/>
<path d="M3.25866 18.7833C4.82807 18.7833 6.10033 17.5111 6.10033 15.9416C6.10033 14.3722 4.82807 13.1 3.25866 13.1C1.68925 13.1 0.416992 14.3722 0.416992 15.9416C0.416992 17.5111 1.68925 18.7833 3.25866 18.7833Z" stroke="white" stroke-width="0.8" stroke-miterlimit="10" stroke-linecap="round" stroke-linejoin="round"/>
<path d="M3.25879 14.4917V17.4" stroke="white" stroke-width="0.8" stroke-miterlimit="10" stroke-linecap="round" stroke-linejoin="round"/>
<path d="M4.70911 15.9417H1.80078" stroke="white" stroke-width="0.8" stroke-miterlimit="10" stroke-linecap="round" stroke-linejoin="round"/>
<path d="M18.2999 3.59167L18.9416 4.70001L19.5749 5.80834H18.2999H17.0166L17.6583 4.70001L18.2999 3.59167Z" stroke="white" stroke-width="0.8" stroke-miterlimit="10" stroke-linecap="round" stroke-linejoin="round"/>
</g>
<defs>
<clipPath id="clip0_310_44">
<rect width="20" height="20" fill="white"/>
</clipPath>
</defs>
</svg>
