<svg width="99" height="113" viewBox="0 0 99 113" fill="none" xmlns="http://www.w3.org/2000/svg">
<path d="M95.8213 78.4642C94.9363 76.9323 93.5033 75.8363 91.7873 75.3758C90.069 74.9154 88.2812 75.149 86.7493 76.0339L67.9181 86.9072C67.0578 85.5349 65.6967 84.4725 64.0144 84.021L34.7725 76.1844C33.6809 75.8924 32.6566 75.8587 31.5471 76.0766L20.3391 78.2935V74.5245C20.3391 73.7811 19.7349 73.1769 18.9914 73.1769H3.77637C3.03291 73.1769 2.42871 73.7811 2.42871 74.5245V109.406C2.42871 110.15 3.03291 110.754 3.77637 110.754H18.9892C19.7326 110.754 20.3368 110.15 20.3368 109.406V105.637L31.6684 107.879C32.5017 108.045 33.2608 108.119 34.0919 108.119C34.1817 108.119 34.2716 108.119 34.3637 108.117L56.6539 107.695C57.8353 107.706 58.9898 107.398 60.0096 106.81L93.391 87.5384C96.5625 85.7078 97.6519 81.6357 95.8213 78.4642ZM17.6393 108.059H5.12402V75.8722H17.6415V108.059H17.6393ZM92.0434 85.2047L58.6619 104.476C58.0532 104.827 57.3682 105.015 56.6606 105C56.6472 105 56.6337 105 56.6202 105L34.3098 105.422C33.5596 105.438 32.9262 105.379 32.1895 105.235L20.3346 102.89V81.0427L32.0659 78.7225C32.7734 78.5832 33.3731 78.6012 34.0717 78.7899L63.3136 86.6265C64.3266 86.8983 65.1756 87.5519 65.7057 88.4683C65.8382 88.6974 65.946 88.9355 66.0291 89.1803C66.0381 89.2117 66.0493 89.2432 66.0605 89.2746C66.2829 89.9799 66.3009 90.7346 66.1055 91.4623C65.8337 92.4753 65.1801 93.3243 64.2637 93.8544C63.3473 94.3845 62.2849 94.526 61.2719 94.2542L41.5467 88.9692C40.8279 88.7783 40.089 89.2028 39.8958 89.9215C39.7026 90.6403 40.1294 91.3792 40.8481 91.5724L60.5733 96.8507C62.2804 97.3089 64.0705 97.0708 65.6113 96.1814C67.1521 95.2919 68.2527 93.8612 68.7087 92.1541C68.9513 91.2512 68.9939 90.3415 68.8637 89.47L88.0947 78.3676C89.0021 77.8443 90.0645 77.705 91.0888 77.979C92.1107 78.2531 92.962 78.9044 93.4876 79.8118C94.5747 81.6963 93.9278 84.1154 92.0434 85.2047ZM79.8965 23.4259C82.9287 28.8098 84.0473 35.0674 83.1174 41.1678C82.1852 47.2817 79.2519 52.843 74.7552 57.0881C70.2562 61.331 64.5332 63.9342 58.3744 64.5092C53.7879 64.9382 49.1789 64.2195 44.9742 62.4383L46.2545 60.3629C46.6273 59.7565 46.4409 58.9636 45.8345 58.5908C45.6076 58.4515 45.3538 58.3886 45.1045 58.3998L38.6649 58.2112C38.638 58.2112 38.6133 58.2112 38.5886 58.2112L32.1423 58.0225C31.4348 58 30.8418 58.5571 30.8193 59.2646C30.8126 59.5049 30.871 59.7318 30.9788 59.9272L34.0694 65.6614H34.0672L37.1668 71.4114C37.5037 72.0359 38.2831 72.2717 38.9075 71.9348C39.1142 71.8247 39.2781 71.663 39.3927 71.4766L39.3949 71.4788L40.8818 69.0688C46.542 71.6922 52.8311 72.7793 59.0909 72.1931C66.9657 71.4586 74.3037 68.1366 80.0582 62.7078C85.8127 57.279 89.5569 50.1499 90.7496 42.329C91.94 34.5239 90.5048 26.5165 86.6235 19.6278C85.5791 17.7747 83.2095 17.1166 81.3564 18.1633C79.5124 19.2122 78.8565 21.5796 79.8965 23.4259ZM82.6861 20.5127C83.2409 20.1983 83.9642 20.3982 84.2764 20.953C87.8521 27.3004 89.1841 34.726 88.0857 41.9247C86.9829 49.1482 83.5262 55.7337 78.2097 60.7492C72.8932 65.7625 66.1189 68.8329 58.8416 69.5113C53.0871 70.0481 47.2585 69.0553 42.0161 66.625L39.8441 65.6188L38.5414 67.7323L38.5369 67.7301L38.3797 67.9862L37.7283 66.7755H37.7306L34.5029 60.7897L38.5908 60.9087L38.6312 60.9065L42.6787 61.0255L41.0323 63.6939L43.923 64.918C48.5545 66.8811 53.6149 67.6582 58.626 67.191C65.3822 66.5599 71.6713 63.7029 76.606 59.0467C81.5406 54.3906 84.7593 48.2812 85.7835 41.5721C86.8032 34.89 85.5656 27.9945 82.2481 22.103C81.9337 21.5504 82.1313 20.8272 82.6861 20.5127ZM30.1994 55.7764C32.0457 54.732 32.7016 52.3646 31.6616 50.5183C28.6294 45.1344 27.5108 38.8768 28.4407 32.7764C29.3729 26.6625 32.3062 21.1012 36.8029 16.8561C41.3019 12.6132 47.0249 10.01 53.1837 9.43499C57.905 8.99475 62.651 9.76741 66.9545 11.6654L65.6428 13.7902C65.2699 14.3966 65.4563 15.1895 66.0628 15.5623C66.2896 15.7016 66.5435 15.7645 66.7928 15.7532L73.2323 15.9419H73.3109L79.7572 16.1306C80.4647 16.1531 81.0577 15.596 81.0802 14.8885C81.0869 14.6482 81.0285 14.4213 80.9207 14.2259L77.8301 8.49163L77.8323 8.48938L74.7327 2.73938C74.3958 2.11497 73.6164 1.87913 72.992 2.21604C72.7854 2.3261 72.6214 2.48782 72.5068 2.67425L72.5046 2.672L71.0424 5.04387C65.2879 2.2969 58.8641 1.15139 52.4694 1.74661C44.5946 2.48108 37.2566 5.80305 31.5021 11.2319C25.7477 16.6607 22.0034 23.7898 20.8107 31.6107C19.6203 39.4158 21.0556 47.4232 24.9368 54.3119C25.9768 56.1672 28.3486 56.8231 30.1994 55.7764ZM23.4724 32.0195C24.5752 24.796 28.0319 18.2105 33.3484 13.1949C38.6649 8.18167 45.4414 5.11126 52.7165 4.43294C58.5923 3.88489 64.5512 4.93382 69.8767 7.47864L72.0621 8.52083L73.3985 6.35559L73.403 6.35784L73.5176 6.17141L74.1532 7.35061L74.151 7.35286L77.3921 13.3657L73.3042 13.2466L73.2638 13.2489L69.2163 13.1298L70.8694 10.4502L68.0394 9.20139C63.3023 7.11253 58.0869 6.27024 52.9299 6.75315C46.1736 7.3843 39.8846 10.2436 34.9499 14.8975C30.0152 19.5536 26.7966 25.663 25.7724 32.3721C24.7526 39.0542 25.9902 45.9497 29.31 51.8412C29.6222 52.3938 29.4223 53.1193 28.8697 53.4315C28.3149 53.7459 27.5917 53.546 27.2795 52.9912C23.706 46.6438 22.374 39.2159 23.4724 32.0195ZM75.6401 51.4122C76.3836 51.4122 76.9878 50.808 76.9878 50.0646V23.9897C76.9878 23.2462 76.3836 22.642 75.6401 22.642H35.8865C35.1431 22.642 34.5389 23.2462 34.5389 23.9897V50.0646C34.5389 50.808 35.1431 51.4122 35.8865 51.4122H75.6401ZM37.2342 25.3373H74.2925V48.7169H37.2342V25.3373ZM70.2697 32.1767C68.7177 32.1767 67.4554 30.9144 67.4554 29.3623C67.4554 28.6189 66.8512 28.0147 66.1077 28.0147H45.4212C44.6777 28.0147 44.0735 28.6189 44.0735 29.3623C44.0735 30.9144 42.8112 32.1767 41.2592 32.1767C40.5157 32.1767 39.9115 32.7809 39.9115 33.5243V40.5322C39.9115 41.2756 40.5157 41.8798 41.2592 41.8798C42.8112 41.8798 44.0735 43.1421 44.0735 44.6942C44.0735 45.4376 44.6777 46.0418 45.4212 46.0418H66.1077C66.8512 46.0418 67.4554 45.4376 67.4554 44.6942C67.4554 43.1421 68.7177 41.8798 70.2697 41.8798C71.0132 41.8798 71.6174 41.2756 71.6174 40.5322V33.5243C71.6174 32.7786 71.0132 32.1767 70.2697 32.1767ZM68.9221 39.3507C66.9635 39.8449 65.4204 41.3879 64.9263 43.3465H46.6026C46.1085 41.3879 44.5654 39.8449 42.6068 39.3507V34.7058C44.5654 34.2116 46.1085 32.6663 46.6026 30.71H64.9263C65.4204 32.6686 66.9635 34.2116 68.9221 34.7058V39.3507ZM55.7645 31.5298C52.7322 31.5298 50.266 33.996 50.266 37.0282C50.266 40.0605 52.7322 42.5267 55.7645 42.5267C58.7967 42.5267 61.2629 40.0605 61.2629 37.0282C61.2606 33.996 58.7944 31.5298 55.7645 31.5298ZM55.7645 39.8291C54.2191 39.8291 52.9613 38.5713 52.9613 37.026C52.9613 35.4807 54.2191 34.2229 55.7645 34.2229C57.3098 34.2229 58.5676 35.4807 58.5676 37.026C58.5676 38.5713 57.3098 39.8291 55.7645 39.8291ZM66.0291 35.6783C66.7726 35.6783 67.3768 36.2825 67.3768 37.026C67.3768 37.7695 66.7726 38.3737 66.0291 38.3737H64.1334C63.3899 38.3737 62.7857 37.7695 62.7857 37.026C62.7857 36.2825 63.3899 35.6783 64.1334 35.6783H66.0291ZM48.7432 37.026C48.7432 37.7695 48.139 38.3737 47.3955 38.3737H45.4998C44.7563 38.3737 44.1521 37.7695 44.1521 37.026C44.1521 36.2825 44.7563 35.6783 45.4998 35.6783H47.3955C48.139 35.6783 48.7432 36.2825 48.7432 37.026Z" fill="#008080" stroke="#008080" stroke-width="3"/>
</svg>
