<svg width="20" height="20" viewBox="0 0 20 20" fill="none" xmlns="http://www.w3.org/2000/svg">
<path fill-rule="evenodd" clip-rule="evenodd" d="M11.3164 20H8.68359C8.23047 20 7.86328 19.6328 7.86328 19.1797V17.1992C7.36328 17.0508 6.87891 16.8516 6.41797 16.6016L5.01563 18.0039C4.69531 18.3242 4.17579 18.3242 3.85547 18.0039L1.99219 16.1406C1.67187 15.8203 1.67187 15.3008 1.99219 14.9805L3.39844 13.582C3.14844 13.1211 2.94923 12.6367 2.80078 12.1367H0.820308C0.367186 12.1367 0 11.7695 0 11.3164V8.68359C0 8.23047 0.367186 7.86328 0.820308 7.86328H2.80078C2.94923 7.36328 3.14844 6.87891 3.39844 6.41797L1.9961 5.01563C1.67578 4.69531 1.67578 4.17579 1.9961 3.85547L3.85938 1.99219C4.1797 1.67187 4.69922 1.67187 5.01954 1.99219L6.41797 3.39844C6.87891 3.14844 7.36328 2.94923 7.86328 2.80078V0.820308C7.86328 0.367186 8.23047 0 8.68359 0H11.3164C11.7695 0 12.1367 0.367186 12.1367 0.820308V2.80077C12.6367 2.94921 13.1211 3.14843 13.582 3.39843L14.9844 1.99609C15.3047 1.67577 15.8242 1.67577 16.1445 1.99609L18.0078 3.85937C18.3281 4.17969 18.3281 4.69921 18.0078 5.01953L16.6015 6.41797C16.8515 6.87891 17.0508 7.36328 17.1992 7.86328H19.1797C19.6328 7.86328 20 8.23047 20 8.68359V11.3164C20 11.7695 19.6328 12.1367 19.1797 12.1367H17.1992C17.0508 12.6367 16.8515 13.1211 16.6015 13.582L18.0039 14.9844C18.3242 15.3047 18.3242 15.8242 18.0039 16.1445L16.1406 18.0078C15.8203 18.3281 15.3008 18.3281 14.9804 18.0078L13.582 16.6015C13.1211 16.8515 12.6367 17.0508 12.1367 17.1992V19.1797C12.1367 19.6328 11.7695 20 11.3164 20ZM6.37891 16.0742C6.41797 16.0742 6.46093 16.0859 6.49609 16.1055C7.01954 16.4062 7.57813 16.6406 8.16016 16.7969C8.26172 16.8242 8.33203 16.918 8.33203 17.0234V19.1797C8.33203 19.3711 8.48828 19.5312 8.68359 19.5312H11.3164C11.5078 19.5312 11.668 19.375 11.668 19.1797V17.0234C11.668 16.918 11.7383 16.8242 11.8398 16.7969C12.4219 16.6406 12.9805 16.4063 13.5039 16.1055C13.5937 16.0508 13.7109 16.0664 13.7851 16.1445L15.3125 17.6719C15.4492 17.8086 15.6719 17.8086 15.8086 17.6719L17.6719 15.8086C17.8086 15.6719 17.8086 15.4492 17.6719 15.3125L16.1445 13.7852C16.0703 13.7109 16.0547 13.5938 16.1054 13.5039C16.4062 12.9805 16.6406 12.4219 16.7969 11.8398C16.8242 11.7383 16.918 11.668 17.0234 11.668H19.1797C19.3711 11.668 19.5312 11.5117 19.5312 11.3164V8.6836C19.5312 8.4922 19.375 8.33204 19.1797 8.33204H17.0234C16.918 8.33204 16.8242 8.26173 16.7969 8.16017C16.6406 7.57814 16.4062 7.01954 16.1054 6.49611C16.0508 6.40236 16.0664 6.28908 16.1445 6.21486L17.6719 4.68752C17.8086 4.5508 17.8086 4.32814 17.6719 4.19142L15.8086 2.32814C15.6719 2.19142 15.4492 2.19142 15.3125 2.32814L13.7851 3.85548C13.7109 3.9297 13.5937 3.94533 13.5039 3.89455C12.9805 3.59376 12.4219 3.35938 11.8398 3.20314C11.7383 3.1758 11.668 3.08204 11.668 2.97657V0.820317C11.668 0.628912 11.5117 0.468755 11.3164 0.468755H8.68359C8.49219 0.468755 8.33203 0.625003 8.33203 0.820317V2.97656C8.33203 3.08203 8.26172 3.17579 8.16016 3.20312C7.57813 3.35937 7.01954 3.59375 6.4961 3.89454C6.40235 3.94922 6.28907 3.9336 6.21485 3.85547L4.6875 2.32814C4.55078 2.19142 4.32812 2.19142 4.1914 2.32814L2.32812 4.19142C2.1914 4.32814 2.1914 4.5508 2.32812 4.68752L3.85546 6.21486C3.92968 6.28908 3.94531 6.40627 3.89453 6.49611C3.59375 7.01954 3.35937 7.57814 3.20313 8.16017C3.17579 8.26173 3.08203 8.33204 2.97657 8.33204H0.820308C0.628903 8.33204 0.468746 8.48829 0.468746 8.6836V11.3164C0.468746 11.5078 0.624994 11.668 0.820308 11.668H2.97657C3.08203 11.668 3.17579 11.7383 3.20313 11.8398C3.35938 12.4219 3.59375 12.9805 3.89454 13.5039C3.94923 13.5976 3.9336 13.7109 3.85547 13.7851L2.32813 15.3125C2.19141 15.4492 2.19141 15.6719 2.32813 15.8086L4.19141 17.6719C4.32813 17.8086 4.55079 17.8086 4.68751 17.6719L6.21485 16.1445C6.25781 16.0977 6.32031 16.0742 6.37891 16.0742Z" fill="black"/>
<path fill-rule="evenodd" clip-rule="evenodd" d="M10 13.8008C7.90235 13.8008 6.19922 12.0938 6.19922 10C6.19922 7.90234 7.90625 6.19922 10 6.19922C12.0977 6.19922 13.8008 7.90625 13.8008 10C13.8008 12.0977 12.0977 13.8008 10 13.8008ZM10 6.66798C8.16018 6.66798 6.66798 8.16407 6.66798 10C6.66798 11.8359 8.16407 13.332 10 13.332C11.8359 13.332 13.332 11.8359 13.332 10C13.332 8.16407 11.8398 6.66798 10 6.66798Z" fill="black"/>
<path fill-rule="evenodd" clip-rule="evenodd" d="M9.99999 14.9765C7.25781 14.9765 5.02344 12.7461 5.02344 9.99999C5.02344 7.25389 7.25781 5.02344 9.99999 5.02344C12.7422 5.02344 14.9765 7.25391 14.9765 9.99999C14.9765 12.7461 12.7422 14.9765 9.99999 14.9765ZM9.99999 5.49217C7.51562 5.49217 5.49217 7.51561 5.49217 9.99999C5.49217 12.4844 7.51561 14.5078 9.99999 14.5078C12.4844 14.5078 14.5078 12.4844 14.5078 9.99999C14.5078 7.51561 12.4844 5.49217 9.99999 5.49217Z" fill="black"/>
<path fill-rule="evenodd" clip-rule="evenodd" d="M5.49219 10C5.49219 12.4844 7.51563 14.5078 10 14.5078C12.4844 14.5078 14.5078 12.4844 14.5078 10C14.5078 7.51563 12.4844 5.49219 10 5.49219C7.51564 5.49219 5.49219 7.51563 5.49219 10ZM10 13.8008C7.90236 13.8008 6.19922 12.0938 6.19922 10C6.19922 7.90235 7.90626 6.19922 10 6.19922C12.0977 6.19922 13.8008 7.90626 13.8008 10C13.8008 12.0977 12.0977 13.8008 10 13.8008Z" fill="#F9FBFB"/>
<path fill-rule="evenodd" clip-rule="evenodd" d="M6.66797 9.99999C6.66797 11.8359 8.16406 13.332 9.99999 13.332C11.8359 13.332 13.332 11.8359 13.332 9.99999C13.332 8.16406 11.8398 6.66797 9.99999 6.66797C8.16017 6.66797 6.66797 8.16406 6.66797 9.99999Z" fill="white"/>
<path fill-rule="evenodd" clip-rule="evenodd" d="M9.99999 14.9766C7.25781 14.9766 5.02344 12.7461 5.02344 10C5.02344 7.25391 7.25781 5.02345 9.99999 5.02345C12.7422 5.02345 14.9765 7.25392 14.9765 10C14.9765 12.7461 12.7422 14.9766 9.99999 14.9766ZM4.68751 17.6719L6.21485 16.1445C6.25782 16.0976 6.32031 16.0742 6.37891 16.0742C6.41797 16.0742 6.46094 16.0859 6.49609 16.1055C7.01954 16.4062 7.57813 16.6406 8.16016 16.7969C8.26172 16.8242 8.33204 16.918 8.33204 17.0234V19.1797C8.33204 19.3711 8.48829 19.5312 8.6836 19.5312H11.3164C11.5078 19.5312 11.668 19.375 11.668 19.1797V17.0234C11.668 16.918 11.7383 16.8242 11.8398 16.7969C12.4219 16.6406 12.9805 16.4062 13.5039 16.1055C13.5937 16.0508 13.7109 16.0664 13.7851 16.1445L15.3125 17.6719C15.4492 17.8086 15.6719 17.8086 15.8086 17.6719L17.6719 15.8086C17.8086 15.6719 17.8086 15.4492 17.6719 15.3125L16.1445 13.7852C16.0703 13.7109 16.0547 13.5937 16.1055 13.5039C16.4062 12.9805 16.6406 12.4219 16.7969 11.8398C16.8242 11.7383 16.918 11.668 17.0234 11.668H19.1797C19.3711 11.668 19.5312 11.5117 19.5312 11.3164V8.6836C19.5312 8.49219 19.375 8.33204 19.1797 8.33204H17.0234C16.918 8.33204 16.8242 8.26172 16.7969 8.16016C16.6406 7.57813 16.4062 7.01954 16.1055 6.49611C16.0508 6.40235 16.0664 6.28908 16.1445 6.21486L17.6719 4.68751C17.8086 4.5508 17.8086 4.32813 17.6719 4.19142L15.8086 2.32813C15.6719 2.19142 15.4492 2.19142 15.3125 2.32813L13.7851 3.85548C13.7109 3.9297 13.5937 3.94532 13.5039 3.89454C12.9805 3.59376 12.4219 3.35938 11.8398 3.20313C11.7383 3.17579 11.668 3.08204 11.668 2.97657V0.820313C11.668 0.628908 11.5117 0.46875 11.3164 0.46875H8.6836C8.49219 0.46875 8.33204 0.624999 8.33204 0.820313V2.97656C8.33204 3.08203 8.26172 3.17578 8.16016 3.20312C7.57813 3.35937 7.01954 3.59375 6.49611 3.89453C6.40235 3.94922 6.28908 3.9336 6.21486 3.85547L4.6875 2.32813C4.55079 2.19142 4.32812 2.19142 4.1914 2.32813L2.32812 4.19142C2.19141 4.32813 2.19141 4.5508 2.32812 4.68751L3.85547 6.21486C3.92969 6.28908 3.94531 6.40626 3.89453 6.49611C3.59376 7.01954 3.35938 7.57813 3.20313 8.16016C3.17579 8.26172 3.08204 8.33204 2.97657 8.33204H0.820313C0.628908 8.33204 0.46875 8.48829 0.46875 8.6836V11.3164C0.46875 11.5078 0.624999 11.668 0.820313 11.668H2.97657C3.08204 11.668 3.17579 11.7383 3.20313 11.8398C3.35938 12.4219 3.59376 12.9805 3.89454 13.5039C3.94923 13.5976 3.93361 13.7109 3.85548 13.7851L2.32813 15.3125C2.19142 15.4492 2.19142 15.6719 2.32813 15.8086L4.19142 17.6719C4.32813 17.8086 4.5508 17.8086 4.68751 17.6719Z" fill="#EFC416"/>
</svg>
