<svg width="123" height="123" viewBox="0 0 123 123" fill="none" xmlns="http://www.w3.org/2000/svg">
<g clip-path="url(#clip0_72_122)" filter="url(#filter0_d_72_122)">
<path d="M111.682 62.9839L95.6485 56.3014V51.5037C97.8555 50.237 99.7666 48.5136 101.254 46.4489C102.741 44.3842 103.771 42.0257 104.273 39.5311H104.633C106.063 39.5507 107.441 39.0015 108.466 38.0043C109.491 37.0072 110.078 35.6439 110.097 34.2142C110.117 32.7845 109.567 31.4056 108.57 30.3809C107.573 29.3561 106.21 28.7694 104.78 28.7499L106.541 24.6674C108.046 21.1788 108.123 17.2394 106.755 13.6948C105.388 10.1502 102.685 7.28292 99.2278 5.70855L94.211 3.42652C91.2424 2.10854 87.9781 1.59917 84.7491 1.95008C81.5201 2.301 78.4414 3.49973 75.8253 5.42465L73.0294 7.53418C70.1746 8.26942 67.7227 10.0961 66.2013 12.6211C65.361 14.016 64.8368 15.578 64.6654 17.1973C64.494 18.8166 64.6797 20.4538 65.2094 21.9936C62.4966 21.451 59.697 21.5191 57.0138 22.1931C57.7819 18.9329 57.3944 15.5071 55.9173 12.5009C54.4403 9.49475 51.9654 7.09457 48.9153 5.71035L43.8985 3.42652C40.9299 2.10854 37.6656 1.59917 34.4366 1.95008C31.2076 2.301 28.1289 3.49973 25.5128 5.42465L22.7169 7.53418C21.0975 7.94797 19.5913 8.71913 18.3089 9.79106C17.0265 10.863 16.0004 12.2085 15.3059 13.7288C14.6115 15.2491 14.2662 16.9056 14.2955 18.5767C14.3249 20.2479 14.7281 21.8912 15.4755 23.3862L18.16 28.7499C16.7303 28.7794 15.3709 29.3757 14.3809 30.4075C13.3908 31.4394 12.8512 32.8222 12.8808 34.2519C12.9103 35.6816 13.5066 37.041 14.5384 38.031C15.5703 39.0211 16.9531 39.5607 18.3828 39.5311H18.7422C19.2468 42.0245 20.2771 44.3816 21.7643 46.4455C23.2516 48.5093 25.1616 50.2325 27.3672 51.5001V56.3014L11.3337 62.9839C9.69464 63.6635 8.29423 64.8144 7.30994 66.2906C6.32564 67.7669 5.80176 69.5022 5.8047 71.2765V95.2343C5.8047 95.7108 5.99401 96.1679 6.33099 96.5048C6.66797 96.8418 7.12501 97.0311 7.60157 97.0311H20.1797V111.406C20.1797 111.883 20.369 112.34 20.706 112.677C21.043 113.014 21.5 113.203 21.9766 113.203H101.039C101.516 113.203 101.973 113.014 102.31 112.677C102.647 112.34 102.836 111.883 102.836 111.406V97.0311H115.414C115.891 97.0311 116.348 96.8418 116.685 96.5048C117.022 96.1679 117.211 95.7108 117.211 95.2343V71.2765C117.214 69.5022 116.69 67.7669 115.706 66.2906C114.721 64.8144 113.321 63.6635 111.682 62.9839ZM67.5687 26.4625L72.5838 28.7499C75.185 29.9349 77.218 32.0925 78.2464 34.7596C79.2747 37.4267 79.2164 40.3907 78.084 43.0153L77.5449 44.2461L75.7031 40.5248C75.5857 40.2878 75.4174 40.0797 75.2102 39.9152C75.0031 39.7508 74.7622 39.6341 74.5047 39.5735C74.2473 39.5129 73.9796 39.5099 73.7208 39.5647C73.4621 39.6195 73.2186 39.7308 73.0078 39.8905L70.1328 42.0468C67.6446 43.9129 64.6181 44.9218 61.5078 44.9218C58.3975 44.9218 55.3711 43.9129 52.8828 42.0468L50.0078 39.8905C49.798 39.7316 49.5556 39.6213 49.298 39.5676C49.0404 39.5138 48.774 39.5179 48.5182 39.5796C48.2616 39.6398 48.0214 39.7556 47.8146 39.919C47.6078 40.0823 47.4395 40.2891 47.3215 40.5248L45.336 44.5103L43.8517 41.5436C43.2727 40.3854 42.9993 39.0985 43.0574 37.805C43.1154 36.5114 43.5031 35.2542 44.1835 34.1525C44.8639 33.0509 45.8146 32.1414 46.9453 31.5103C48.0759 30.8792 49.3491 30.5476 50.6439 30.5468C52.0281 30.5454 53.3912 30.8865 54.6117 31.5395C55.8322 32.1926 56.8722 33.1373 57.6392 34.2896L58.2034 35.1378L61.1934 33.1432L60.6292 32.2969C59.0321 29.904 56.6267 28.1664 53.8531 27.4022C55.8914 26.1443 58.2052 25.4014 60.5948 25.2377C62.9844 25.074 65.3779 25.4943 67.5687 26.4625ZM79.4766 52.1093H81.2735C81.75 52.1093 82.2071 52.2986 82.544 52.6355C82.881 52.9725 83.0703 53.4296 83.0703 53.9061C83.0703 54.3827 82.881 54.8397 82.544 55.1767C82.2071 55.5137 81.75 55.703 81.2735 55.703H79.4766V52.1093ZM56.1172 72.8434C59.6261 73.9479 63.3896 73.9479 66.8985 72.8434V76.5216L61.5078 81.9122L56.1172 76.5216V72.8434ZM61.5078 70.078C57.6967 70.0737 54.0428 68.5578 51.3479 65.8629C48.653 63.168 47.1371 59.5142 47.1328 55.703V48.9396L49.573 44.0575L50.7266 44.9218C53.8369 47.2545 57.6199 48.5155 61.5078 48.5155C65.3957 48.5155 69.1788 47.2545 72.2891 44.9218L73.4427 44.0575L75.8828 48.9396V55.703C75.8785 59.5142 74.3627 63.168 71.6678 65.8629C68.9729 68.5578 65.319 70.0737 61.5078 70.078ZM43.5391 55.703H41.7422C41.2656 55.703 40.8086 55.5137 40.4716 55.1767C40.1346 54.8397 39.9453 54.3827 39.9453 53.9061C39.9453 53.4296 40.1346 52.9725 40.4716 52.6355C40.8086 52.2986 41.2656 52.1093 41.7422 52.1093H43.5391V55.703ZM20.1797 91.7124V93.4374H9.39845V71.2765C9.3978 70.2127 9.71257 69.1725 10.303 68.2875C10.8934 67.4026 11.7329 66.7125 12.7155 66.3046L29.8559 59.1638C30.184 59.0269 30.4642 58.7957 30.6609 58.4995C30.8576 58.2033 30.962 57.8554 30.9609 57.4999V50.4274C30.9515 50.087 30.8496 49.7555 30.6664 49.4685C30.4832 49.1814 30.2254 48.9495 29.9206 48.7976C27.7725 47.7291 25.9273 46.1379 24.5546 44.1703C23.1819 42.2026 22.3257 39.9215 22.0646 37.5366C22.016 37.0969 21.8068 36.6907 21.4773 36.3956C21.1477 36.1005 20.7209 35.9374 20.2785 35.9374H18.3828C17.9063 35.9374 17.4492 35.7481 17.1122 35.4111C16.7753 35.0741 16.5859 34.6171 16.5859 34.1405C16.5859 33.6639 16.7753 33.2069 17.1122 32.8699C17.4492 32.5329 17.9063 32.3436 18.3828 32.3436H20.1797C20.4167 32.3436 20.6514 32.2967 20.8703 32.2057C21.0891 32.1146 21.2877 31.9811 21.4547 31.8129C21.6218 31.6447 21.7539 31.4451 21.8434 31.2257C21.933 31.0062 21.9782 30.7712 21.9766 30.5342L21.964 28.7373C21.9623 28.4628 21.8978 28.1924 21.7753 27.9467L18.6901 21.778C18.1733 20.7423 17.8999 19.6023 17.8909 18.4449C17.8819 17.2875 18.1375 16.1433 18.6381 15.0997C19.1388 14.0562 19.8712 13.1408 20.7796 12.4235C21.688 11.7061 22.7483 11.2059 23.8795 10.9608C24.1338 10.9045 24.3732 10.7949 24.582 10.6392L27.6727 8.30324C29.7698 6.76182 32.2372 5.80207 34.8247 5.52123C37.4122 5.24039 40.028 5.64843 42.407 6.70402L47.4275 8.98426C50.0288 10.1693 52.0618 12.3269 53.0901 14.994C54.1185 17.6611 54.0602 20.6251 52.9277 23.2496L52.6367 23.9235C51.9544 24.3013 51.2982 24.7245 50.6727 25.1903L47.839 27.3124C46.2229 27.7276 44.7203 28.4993 43.4413 29.5709C42.1623 30.6425 41.1395 31.9869 40.4478 33.5053C39.7561 35.0238 39.4131 36.6778 39.444 38.3461C39.4749 40.0144 39.8789 41.6546 40.6263 43.1464L43.3145 48.5155H41.7422C40.3125 48.5155 38.9414 49.0834 37.9305 50.0944C36.9195 51.1053 36.3516 52.4764 36.3516 53.9061C36.3516 55.3358 36.9195 56.7069 37.9305 57.7179C38.9414 58.7288 40.3125 59.2968 41.7422 59.2968H43.8985C44.4131 61.783 45.4475 64.1324 46.934 66.1908C48.4204 68.2492 50.3252 69.9701 52.5235 71.2406V75.8999L26.7599 83.0568C24.87 83.586 23.2047 84.7178 22.0169 86.2801C20.8292 87.8424 20.1841 89.7499 20.1797 91.7124ZM99.2422 109.609H88.461V95.2343H84.8672V109.609H38.1485V95.2343H34.5547V109.609H23.7734V91.7124C23.7761 90.5342 24.1637 89.3891 24.8774 88.4516C25.5911 87.5141 26.5916 86.8356 27.7266 86.5194L53.7974 79.278L60.2428 85.7234C60.5798 86.0603 61.0367 86.2495 61.5132 86.2495C61.9897 86.2495 62.4466 86.0603 62.7836 85.7234L69.229 79.278L95.2891 86.5194C96.4241 86.8356 97.4246 87.5141 98.1383 88.4516C98.8519 89.3891 99.2396 90.5342 99.2422 91.7124V109.609ZM113.617 93.4374H102.836V91.7124C102.832 89.7499 102.186 87.8424 100.999 86.2801C99.811 84.7178 98.1456 83.586 96.2558 83.0568L70.4922 75.8999V71.2406C72.6905 69.9701 74.5953 68.2492 76.0817 66.1908C77.5681 64.1324 78.6026 61.783 79.1172 59.2968H81.2735C82.7031 59.2968 84.0743 58.7288 85.0852 57.7179C86.0961 56.7069 86.6641 55.3358 86.6641 53.9061C86.6641 52.4764 86.0961 51.1053 85.0852 50.0944C84.0743 49.0834 82.7031 48.5155 81.2735 48.5155H79.6239L81.3849 44.4348C82.8895 40.9463 82.9664 37.0068 81.5991 33.4622C80.2318 29.9176 77.5292 27.0503 74.0716 25.476L69.9028 23.5767L69.0044 21.7798C68.4872 20.7442 68.2136 19.6041 68.2043 18.4466C68.195 17.289 68.4503 16.1447 68.9508 15.1009C69.4513 14.0571 70.1837 13.1415 71.092 12.424C72.0004 11.7065 73.0607 11.206 74.192 10.9608C74.4463 10.9045 74.6857 10.7949 74.8945 10.6392L77.9852 8.30324C80.0823 6.76182 82.5497 5.80207 85.1372 5.52123C87.7247 5.24039 90.3405 5.64843 92.7195 6.70402L97.74 8.98426C100.341 10.1693 102.374 12.3269 103.403 14.994C104.431 17.6611 104.373 20.6251 103.24 23.2496L101.174 28.0311C101.076 28.258 101.026 28.5027 101.026 28.7499L101.039 30.5468C101.039 31.0233 101.228 31.4804 101.565 31.8173C101.902 32.1543 102.359 32.3436 102.836 32.3436H104.633C105.109 32.3436 105.566 32.5329 105.903 32.8699C106.24 33.2069 106.43 33.6639 106.43 34.1405C106.43 34.6171 106.24 35.0741 105.903 35.4111C105.566 35.7481 105.109 35.9374 104.633 35.9374H102.737C102.295 35.9374 101.868 36.1005 101.538 36.3956C101.209 36.6907 101 37.0969 100.951 37.5366C100.689 39.9306 99.8271 42.2197 98.445 44.1919C97.063 46.1642 95.2055 47.7557 93.0448 48.8192C92.7454 48.9679 92.4935 49.1973 92.3173 49.4814C92.1411 49.7655 92.0477 50.0931 92.0475 50.4274V57.4999C92.0475 57.8545 92.1524 58.2013 92.349 58.4964C92.5457 58.7915 92.8253 59.0219 93.1526 59.1584L110.3 66.3046C111.283 66.7125 112.122 67.4026 112.713 68.2875C113.303 69.1725 113.618 70.2127 113.617 71.2765V93.4374Z" fill="#008080" stroke="#008080" stroke-width="3"/>
</g>
<defs>
<filter id="filter0_d_72_122" x="0.0078125" y="0" width="123" height="123" filterUnits="userSpaceOnUse" color-interpolation-filters="sRGB">
<feFlood flood-opacity="0" result="BackgroundImageFix"/>
<feColorMatrix in="SourceAlpha" type="matrix" values="0 0 0 0 0 0 0 0 0 0 0 0 0 0 0 0 0 0 127 0" result="hardAlpha"/>
<feOffset dy="4"/>
<feGaussianBlur stdDeviation="2"/>
<feComposite in2="hardAlpha" operator="out"/>
<feColorMatrix type="matrix" values="0 0 0 0 0 0 0 0 0 0 0 0 0 0 0 0 0 0 0.25 0"/>
<feBlend mode="normal" in2="BackgroundImageFix" result="effect1_dropShadow_72_122"/>
<feBlend mode="normal" in="SourceGraphic" in2="effect1_dropShadow_72_122" result="shape"/>
</filter>
<clipPath id="clip0_72_122">
<rect width="115" height="115" fill="white" transform="translate(4.00781)"/>
</clipPath>
</defs>
</svg>
